<svg width="87" height="87" viewBox="0 0 87 87" fill="none" xmlns="http://www.w3.org/2000/svg">
<g clip-path="url(#clip0_3873_3778)">
<path d="M83.9741 36.8373H77.5363L79.3829 34.8681C80.3343 33.8536 80.2831 32.26 79.2685 31.3086C78.2542 30.3572 76.6604 30.4084 75.709 31.4229L69.8853 37.6329C68.9786 38.5972 68.9729 40.1433 69.8853 41.1155L75.709 47.3255C76.2048 47.854 76.8746 48.1211 77.5464 48.1211C78.1638 48.1211 78.7827 47.8953 79.2685 47.4397C80.2831 46.4882 80.3343 44.8947 79.3829 43.8801L77.5014 41.8737H83.9741C85.3649 41.8737 86.4924 40.7462 86.4924 39.3554C86.4924 37.9646 85.3649 36.8373 83.9741 36.8373Z" fill="url(#paint0_linear_3873_3778)"/>
<path d="M17.1412 37.6328L11.3176 31.4228C10.3661 30.4083 8.77239 30.3573 7.75802 31.3085C6.74348 32.2599 6.69227 33.8535 7.64369 34.868L9.49028 36.8372H3.05248C1.66171 36.8372 0.53418 37.9647 0.53418 39.3555C0.53418 40.7463 1.66171 41.8738 3.05248 41.8738H9.52537L7.64386 43.8802C6.69244 44.8948 6.74365 46.4883 7.75819 47.4398C8.24422 47.8956 8.86289 48.1212 9.48037 48.1212C10.1519 48.1212 10.8221 47.8541 11.3177 47.3256L17.1414 41.1156C18.0537 40.1432 18.048 38.597 17.1412 37.6328Z" fill="url(#paint1_linear_3873_3778)"/>
<path d="M72.0284 5.71276C70.6638 3.08281 69.1972 0.60362 66.8038 0.424316H20.2218C17.8251 0.606977 16.3651 3.07895 14.9972 5.71276C14.1057 7.62499 13.1152 10.6889 13.4593 14.4295C13.8069 18.2203 15.427 21.892 18.2743 25.3488L24.3502 23.0437C36.7067 18.3563 50.3189 18.3563 62.6754 23.0437L68.7512 25.3488C71.5986 21.892 73.2187 18.2203 73.5663 14.4295C73.9104 10.6889 72.9199 7.62499 72.0284 5.71276ZM70.4519 57.3095C66.9028 52.0143 64.685 46.108 64.2066 40.6803C63.8506 36.6493 64.4517 32.9205 65.9593 29.6753L60.8891 27.753C49.6843 23.5021 37.3413 23.5021 26.1365 27.753L21.0663 29.6753C22.5739 32.9205 23.175 36.6493 22.819 40.6803C22.3406 46.108 20.1228 52.0143 16.5736 57.3095C16.3185 57.6889 16.0717 58.07 15.8299 58.4528C24.6205 61.5033 33.9013 63.0462 43.5128 63.0462C53.1243 63.0462 62.4051 61.5033 71.1957 58.4528C70.9539 58.07 70.7071 57.6889 70.4519 57.3095ZM46.0311 55.4913C46.0311 56.8814 44.9029 58.0096 43.5128 58.0096C42.1227 58.0096 40.9945 56.8814 40.9945 55.4913V53.0972C40.9945 51.7071 42.1227 50.5789 43.5128 50.5789C44.9029 50.5789 46.0311 51.7071 46.0311 53.0972V55.4913ZM73.6972 62.9102C64.1243 66.3451 54.0007 68.0828 43.5128 68.0828C33.0249 68.0828 22.9013 66.3451 13.3284 62.9102C10.1083 69.4494 8.63931 76.3798 8.84749 83.9347C8.88442 85.2962 10.0009 86.3825 11.3641 86.3825H75.6615C77.0247 86.3825 78.1412 85.2962 78.1781 83.9347C78.3863 76.3798 76.9173 69.4494 73.6972 62.9102Z" fill="url(#paint2_linear_3873_3778)"/>
</g>
<defs>
<linearGradient id="paint0_linear_3873_3778" x1="77.8478" y1="31.3146" x2="77.8478" y2="48.1211" gradientUnits="userSpaceOnUse">
<stop stop-color="#41A53D"/>
<stop offset="1" stop-color="#0A7542"/>
</linearGradient>
<linearGradient id="paint1_linear_3873_3778" x1="9.17882" y1="31.3146" x2="9.17882" y2="48.1212" gradientUnits="userSpaceOnUse">
<stop stop-color="#41A53D"/>
<stop offset="1" stop-color="#0A7542"/>
</linearGradient>
<linearGradient id="paint2_linear_3873_3778" x1="43.5128" y1="3.80211" x2="43.5128" y2="86.3825" gradientUnits="userSpaceOnUse">
<stop stop-color="#41A53D"/>
<stop offset="1" stop-color="#0A7542"/>
</linearGradient>
<clipPath id="clip0_3873_3778">
<rect width="85.9581" height="85.9581" fill="white" transform="translate(0.53418 0.424316)"/>
</clipPath>
</defs>
</svg>
