<svg width="50" height="51" viewBox="0 0 50 51" fill="none" xmlns="http://www.w3.org/2000/svg">
<path d="M18.1172 33.4024C16.8516 35.7461 16.5547 39.3555 16.4922 40.4961C16.3986 41.9019 16.4562 43.3136 16.6641 44.707C16.6775 44.7864 16.7157 44.8596 16.7731 44.916C16.8305 44.9725 16.9043 45.0094 16.9839 45.0215C17.0635 45.0336 17.145 45.0203 17.2166 44.9835C17.2882 44.9467 17.3464 44.8882 17.3828 44.8164L18.9453 41.8399C18.9787 41.7304 19.0356 41.6296 19.1122 41.5446C19.1887 41.4596 19.283 41.3924 19.3884 41.3478C19.4938 41.3033 19.6076 41.2824 19.722 41.2867C19.8363 41.291 19.9483 41.3203 20.05 41.3726C20.1518 41.4249 20.2408 41.499 20.3108 41.5895C20.3807 41.68 20.43 41.7848 20.455 41.8964C20.4801 42.008 20.4803 42.1238 20.4557 42.2355C20.431 42.3473 20.3822 42.4522 20.3125 42.543L17.9688 47.1133C18.3546 47.2932 18.7777 47.3789 19.2032 47.3633C19.5752 47.3558 19.9462 47.3193 20.3125 47.2539C23.086 46.8008 27.9844 44.7617 30.2891 42.4102C29.0469 39.6055 25.4922 33.3945 18.1172 33.4024ZM25.8282 42.2695C25.7401 42.3979 25.6156 42.497 25.4708 42.5542C25.326 42.6113 25.1674 42.6239 25.0154 42.5903C24.8634 42.5567 24.7249 42.4784 24.6176 42.3655C24.5104 42.2527 24.4393 42.1103 24.4136 41.9568C24.3878 41.8032 24.4085 41.6455 24.473 41.5038C24.5374 41.3621 24.6428 41.2429 24.7755 41.1615C24.9082 41.0801 25.0622 41.0402 25.2178 41.0469C25.3733 41.0536 25.5233 41.1067 25.6485 41.1992C25.8113 41.3196 25.921 41.4984 25.9545 41.6981C25.988 41.8977 25.9427 42.1026 25.8282 42.2695Z" fill="#3E3E3E"/>
<path d="M46.875 14.5587C46.839 14.3901 46.7482 14.2381 46.6168 14.1264C46.4853 14.0148 46.3207 13.9498 46.1484 13.9415L41.6172 13.7931L40.0078 9.55088C39.9374 9.39706 39.819 9.27024 39.6704 9.18949C39.5217 9.10874 39.3509 9.07841 39.1835 9.10308C39.0162 9.12774 38.8613 9.20606 38.7423 9.32626C38.6233 9.44645 38.5465 9.60204 38.5234 9.76963L37.9766 17.5821C34.1416 19.7626 30.4421 22.1733 26.8984 24.8009L26.7969 23.5196C26.7775 23.3666 26.7132 23.2227 26.6122 23.1062C26.5112 22.9896 26.3779 22.9056 26.2292 22.8646C26.0805 22.8237 25.923 22.8277 25.7765 22.8761C25.6301 22.9246 25.5012 23.0153 25.4062 23.1368C24.4141 24.5307 23.6884 26.0961 23.2656 27.754C21.7867 29.0247 20.4172 30.4177 19.1719 31.9181C26.0312 32.4337 29.7422 37.9181 31.3203 41.0821C31.9375 40.1759 32.5156 39.2384 33.0547 38.2696L39.6641 34.5899C39.8004 34.5057 39.9075 34.3816 39.9709 34.2345C40.0342 34.0873 40.0509 33.9243 40.0185 33.7673C39.9861 33.6104 39.9062 33.4673 39.7897 33.3573C39.6732 33.2473 39.5257 33.1758 39.3672 33.1524L35.6094 32.7618C37.3659 28.1854 38.641 23.4384 39.4141 18.5978L46.4453 15.4259C46.604 15.3506 46.7326 15.2242 46.8106 15.0668C46.8886 14.9095 46.9112 14.7305 46.875 14.5587Z" fill="#3E3E3E"/>
<path d="M13.1484 24.5898L11.5234 23.3633C11.3882 23.2619 11.2237 23.207 11.0547 23.207H10.2734C10.6425 22.8159 11.0451 22.4577 11.4766 22.1367C11.0368 21.835 10.6331 21.4837 10.2734 21.0898C8.82871 19.4392 7.76216 17.4927 7.14844 15.3867C6.85156 15.6602 6.55469 15.9414 6.26563 16.2461C5.41095 17.154 4.67583 18.1674 4.07812 19.2617C4.73438 21.2227 6.90625 23.582 8.96094 24.9102L9.09375 24.707C9.16155 24.7324 9.23254 24.7481 9.30469 24.7539H10.7891L12.2031 25.8242C12.3663 25.9039 12.5521 25.9243 12.7287 25.8819C12.9053 25.8395 13.0615 25.7368 13.1706 25.5917C13.2797 25.4465 13.3349 25.2679 13.3265 25.0865C13.3182 24.9051 13.2469 24.7322 13.125 24.5977L13.1484 24.5898Z" fill="#3E3E3E"/>
<path d="M15.7109 22.1836L14.7969 20.8555C14.7513 20.7901 14.6959 20.7322 14.6328 20.6836L14.4844 20.5664C14.8984 20.418 15.3359 20.2773 15.7969 20.1523C13.6867 18.066 12.466 15.2438 12.3906 12.2773C12.3906 12.1914 12.3906 12.1133 12.3906 12.0273C10.99 12.6309 9.66354 13.3937 8.4375 14.3008C8.9254 16.4257 9.92888 18.3977 11.3594 20.043C11.7046 20.4256 12.1048 20.7547 12.5469 21.0195L13.5703 21.8008L14.4141 23.0273C14.5432 23.1549 14.7127 23.2336 14.8935 23.2498C15.0743 23.266 15.2551 23.2188 15.4048 23.1162C15.5546 23.0136 15.6639 22.862 15.7141 22.6876C15.7642 22.5131 15.7521 22.3266 15.6797 22.1602L15.7109 22.1836Z" fill="#3E3E3E"/>
<path d="M14.5703 42.4023L7.53906 37.8008C7.19565 35.5393 7.09613 33.2475 7.24219 30.9648C5.57031 30.3242 3.67188 28.5742 2.34375 26.9727C2.5 30.4883 3.75 34.3477 6.05469 38.4648C6.12306 41.5541 7.12538 44.5501 8.92969 47.0586C9.03901 47.1801 9.18368 47.2642 9.34332 47.2991C9.50296 47.3341 9.66955 47.3181 9.81962 47.2534C9.9697 47.1887 10.0957 47.0786 10.1799 46.9385C10.2641 46.7985 10.3023 46.6355 10.2891 46.4727L9.77344 42.8008C11.1659 43.2184 12.5793 43.5627 14.0078 43.832C14.178 43.8518 14.35 43.8152 14.4973 43.7276C14.6446 43.6401 14.759 43.5065 14.823 43.3476C14.8869 43.1886 14.8968 43.013 14.8512 42.8479C14.8055 42.6827 14.7068 42.5372 14.5703 42.4336V42.4023Z" fill="#3E3E3E"/>
<path d="M10.9375 28.6289L10.0234 27.3008C9.93759 27.1782 9.81832 27.0828 9.67981 27.026C9.54131 26.9692 9.38941 26.9534 9.24219 26.9805L8.00781 27.2227C8.10938 26.9102 8.19531 26.5898 8.32031 26.3008C6.23978 24.9952 4.5014 23.2112 3.25 21.0977C2.85802 22.1693 2.59573 23.284 2.46875 24.418C3.69633 26.4636 5.41146 28.1734 7.46094 29.3945C7.46094 29.2148 7.53906 29.0508 7.57031 28.8789L9.02344 28.5977L9.64844 29.5117C9.70581 29.5977 9.7797 29.6715 9.8658 29.7288C9.9519 29.786 10.0485 29.8256 10.15 29.8452C10.2516 29.8649 10.356 29.8642 10.4572 29.8431C10.5584 29.8221 10.6545 29.7812 10.7398 29.7228C10.8251 29.6644 10.898 29.5896 10.9542 29.5028C11.0104 29.416 11.0488 29.3189 11.0672 29.2171C11.0856 29.1154 11.0836 29.011 11.0613 28.91C11.039 28.8091 10.997 28.7135 10.9375 28.6289Z" fill="#3E3E3E"/>
<path d="M26.3046 2.83981C26.1239 2.82063 25.9421 2.86508 25.7906 2.96551C25.639 3.06594 25.5273 3.21606 25.4746 3.39002C25.4218 3.56398 25.4314 3.75088 25.5016 3.91854C25.5718 4.08621 25.6983 4.22413 25.8593 4.30856C26.2499 4.42575 35.4374 7.29294 33.4453 14.5976C32.9531 16.4023 30.7656 17.2148 28.3281 17.5507C29.1917 17.1349 29.9506 16.5299 30.5484 15.7806C31.1462 15.0313 31.5675 14.157 31.7812 13.2226C31.9458 12.5541 31.9612 11.8575 31.8262 11.1824C31.6911 10.5072 31.4091 9.87015 30.9999 9.31637C28.5312 5.82419 21.6249 4.94137 21.3437 4.90231C21.1411 4.88009 20.9379 4.93791 20.7773 5.06343C20.6168 5.18895 20.5116 5.37224 20.4843 5.57419C20.4621 5.77676 20.5199 5.98 20.6454 6.14055C20.771 6.3011 20.9542 6.40625 21.1562 6.43356C21.2187 6.43356 27.664 7.26169 29.7499 10.207C30.0246 10.5852 30.2125 11.0193 30.3003 11.4784C30.3881 11.9376 30.3736 12.4104 30.2578 12.8632C29.4765 16.2539 25.6328 17.1757 22.8906 17.4023C23.2655 16.9444 23.5661 16.4303 23.7812 15.8789L25.8671 10.4882C25.9082 10.3674 25.9189 10.2383 25.8985 10.1123C25.8781 9.98624 25.8272 9.86714 25.7501 9.76538C25.673 9.66363 25.5721 9.58231 25.4563 9.52855C25.3406 9.47479 25.2134 9.45023 25.0859 9.457L17.6249 10.4961C16.4126 10.6792 15.22 10.9748 14.0624 11.3789C13.9142 11.848 13.8637 12.3426 13.914 12.832C14.0402 14.1693 14.4304 15.4683 15.062 16.6538C15.6936 17.8392 16.5541 18.8876 17.5937 19.7382C17.9921 19.6601 18.3749 19.5898 18.8515 19.5195L19.4218 19.4257C19.8537 19.3554 20.2758 19.2347 20.6796 19.0664C22.0981 19.2334 23.5249 19.3195 24.9531 19.3242C28.9687 19.3242 33.9374 18.5429 34.9062 15.0117C36.8437 7.99606 30.1249 3.98825 26.3046 2.83981ZM19.4374 13.2304C19.4179 13.0884 19.4412 12.9437 19.5045 12.815C19.5678 12.6864 19.6681 12.5795 19.7926 12.5083C19.917 12.4371 20.0599 12.4048 20.2029 12.4155C20.3459 12.4261 20.4825 12.4793 20.595 12.5682C20.7075 12.6571 20.7909 12.7776 20.8344 12.9143C20.8778 13.0509 20.8795 13.1975 20.839 13.335C20.7985 13.4726 20.7178 13.5949 20.6073 13.6863C20.4968 13.7776 20.3614 13.8338 20.2187 13.8476C20.0328 13.8653 19.8473 13.81 19.7015 13.6934C19.5557 13.5767 19.461 13.4079 19.4374 13.2226V13.2304Z" fill="#3E3E3E"/>
</svg>
