<svg width="87" height="87" viewBox="0 0 87 87" fill="none" xmlns="http://www.w3.org/2000/svg">
<path d="M43.1708 58.5301C36.317 58.5301 30.2105 55.2785 26.3065 50.2386C24.1529 54.9609 21.6776 58.3658 19.5156 60.7315C22.5547 62.2439 24.9787 63.0953 25.9959 63.4243V84.1188C25.9959 85.5095 27.1234 86.637 28.5141 86.637H57.8273C59.218 86.637 60.3454 85.5095 60.3454 84.1188V63.4243C61.3626 63.0953 63.7866 62.2439 66.8257 60.7315C64.6638 58.3658 62.1886 54.9609 60.0349 50.2386C56.1312 55.2783 50.0248 58.5301 43.1708 58.5301Z" fill="url(#paint0_linear_3873_3770)"/>
<path d="M85.4819 37.151C84.5211 34.9835 82.6519 33.4039 80.3542 32.8174L80.1265 32.7591C76.683 31.8796 73.093 33.4768 71.3955 36.6453C70.4099 38.4869 68.9779 40.254 67.1392 41.8974C65.9284 42.9795 64.62 43.9346 63.2363 44.7605C65.6722 51.4842 68.8787 55.7064 71.3628 58.192C77.6436 54.2584 82.3115 49.4579 85.2431 43.9143C86.3622 41.7983 86.4492 39.333 85.4819 37.151Z" fill="url(#paint1_linear_3873_3770)"/>
<path d="M23.1046 44.7607C21.7209 43.9346 20.4126 42.9797 19.2017 41.8975C17.363 40.2542 15.931 38.4871 14.945 36.6443C13.2481 33.4771 9.6577 31.8792 6.21469 32.7591L5.98738 32.8172C3.68913 33.4039 1.81997 34.9835 0.859206 37.1509C-0.108108 39.333 -0.0211471 41.7983 1.09793 43.9146C4.02958 49.4581 8.69744 54.2586 14.9783 58.1921C17.4622 55.7065 20.6687 51.4842 23.1046 44.7607Z" fill="url(#paint2_linear_3873_3770)"/>
<path d="M43.1703 20.913C34.1878 20.913 26.8799 28.2207 26.8799 37.2034C26.8799 46.186 34.1878 53.4937 43.1703 53.4937C52.1528 53.4937 59.4607 46.186 59.4607 37.2034C59.4607 28.2207 52.1529 20.913 43.1703 20.913ZM47.6956 38.4156C46.4869 39.6243 44.8798 40.2901 43.1703 40.2901C41.4608 40.2901 39.8537 39.6243 38.645 38.4156C37.6617 37.4322 37.6617 35.8378 38.645 34.8544C39.6284 33.871 41.2229 33.871 42.2062 34.8544C42.4637 35.1119 42.806 35.2538 43.1701 35.2538C43.5342 35.2538 43.8765 35.1119 44.1341 34.8544C45.1173 33.8711 46.7118 33.8708 47.6953 34.8544C48.6789 35.8378 48.6789 37.4322 47.6956 38.4156Z" fill="url(#paint3_linear_3873_3770)"/>
<path d="M43.1705 11.7837C44.5612 11.7837 45.6887 10.6562 45.6887 9.26552V3.20177C45.6887 1.81106 44.5612 0.683594 43.1705 0.683594C41.7798 0.683594 40.6523 1.81106 40.6523 3.20177V9.26552C40.6523 10.6564 41.7798 11.7837 43.1705 11.7837Z" fill="url(#paint4_linear_3873_3770)"/>
<path d="M29.2627 15.0972C29.7545 15.5891 30.3989 15.8348 31.0433 15.8348C31.6877 15.8348 32.3323 15.5889 32.8239 15.0972C33.8073 14.1139 33.8073 12.5194 32.8239 11.536L28.5361 7.24819C27.5526 6.26476 25.9583 6.26476 24.9749 7.24819C23.9914 8.23145 23.9914 9.82596 24.9749 10.8094L29.2627 15.0972Z" fill="url(#paint5_linear_3873_3770)"/>
<path d="M55.2984 15.8346C55.9429 15.8346 56.5874 15.5886 57.0791 15.0969L61.3667 10.8091C62.3501 9.82588 62.3501 8.23137 61.3667 7.24794C60.3834 6.26468 58.7889 6.26468 57.8055 7.24794L53.5177 11.5357C52.5345 12.519 52.5345 14.1135 53.5177 15.0969C54.0094 15.5886 54.6539 15.8346 55.2984 15.8346Z" fill="url(#paint6_linear_3873_3770)"/>
<defs>
<linearGradient id="paint0_linear_3873_3770" x1="43.1707" y1="51.6689" x2="43.1707" y2="86.637" gradientUnits="userSpaceOnUse">
<stop stop-color="#41A53D"/>
<stop offset="1" stop-color="#0A7542"/>
</linearGradient>
<linearGradient id="paint1_linear_3873_3770" x1="74.693" y1="33.5284" x2="74.693" y2="58.192" gradientUnits="userSpaceOnUse">
<stop stop-color="#41A53D"/>
<stop offset="1" stop-color="#0A7542"/>
</linearGradient>
<linearGradient id="paint2_linear_3873_3770" x1="11.648" y1="33.5282" x2="11.648" y2="58.1921" gradientUnits="userSpaceOnUse">
<stop stop-color="#41A53D"/>
<stop offset="1" stop-color="#0A7542"/>
</linearGradient>
<linearGradient id="paint3_linear_3873_3770" x1="43.1703" y1="22.1933" x2="43.1703" y2="53.4937" gradientUnits="userSpaceOnUse">
<stop stop-color="#41A53D"/>
<stop offset="1" stop-color="#0A7542"/>
</linearGradient>
<linearGradient id="paint4_linear_3873_3770" x1="43.1705" y1="1.11978" x2="43.1705" y2="11.7837" gradientUnits="userSpaceOnUse">
<stop stop-color="#41A53D"/>
<stop offset="1" stop-color="#0A7542"/>
</linearGradient>
<linearGradient id="paint5_linear_3873_3770" x1="28.8994" y1="6.87702" x2="28.8994" y2="15.8348" gradientUnits="userSpaceOnUse">
<stop stop-color="#41A53D"/>
<stop offset="1" stop-color="#0A7542"/>
</linearGradient>
<linearGradient id="paint6_linear_3873_3770" x1="57.4423" y1="6.8769" x2="57.4423" y2="15.8346" gradientUnits="userSpaceOnUse">
<stop stop-color="#41A53D"/>
<stop offset="1" stop-color="#0A7542"/>
</linearGradient>
</defs>
</svg>
