<svg width="87" height="78" viewBox="0 0 87 78" fill="none" xmlns="http://www.w3.org/2000/svg">
<path d="M86.1633 32.8406L74.6387 5.2957C73.7255 3.11334 71.5877 1.69217 69.2178 1.69217H66.6459C63.6594 1.69217 61.2384 4.10823 61.2384 7.08856C61.2384 10.0689 63.6595 12.485 66.6459 12.485H66.9201L72.8567 28.6741C67.5878 25.0528 62.2646 25.1242 56.8902 28.6741H44.1858C50.0043 28.268 54.694 23.4256 54.694 17.3814V12.1769C54.694 5.93283 49.6188 0.852905 43.3803 0.852905H30.8004C29.4108 0.852905 28.2844 1.98043 28.2844 3.37121C28.2844 4.76199 29.4109 5.88952 30.8004 5.88952H32.0667V17.2365C32.0667 23.2432 36.7189 28.2448 42.56 28.6741H29.8706C24.4962 25.1242 19.173 25.0528 13.904 28.6741L19.8407 12.485H20.1149C23.1014 12.485 25.5223 10.0689 25.5223 7.08856C25.5223 4.10823 23.1012 1.69217 20.1149 1.69217H17.5432C15.1733 1.69217 13.0356 3.11334 12.1224 5.2957L0.597659 32.8406C0.259366 33.649 0.362113 34.578 0.876687 35.2872C5.60724 41.8056 12.8391 44.8955 22.3494 44.8631L28.9605 66.4576V75.5625C28.9605 76.4897 29.7114 77.2413 30.6378 77.2413H56.1233C57.0497 77.2413 57.8006 76.4897 57.8006 75.5625V66.4576L64.4117 44.8631C73.922 44.8955 81.1539 41.8054 85.8844 35.2872C86.3988 34.578 86.5014 33.649 86.1633 32.8406ZM46.7268 68.6791H40.0175C38.6279 68.6791 37.5016 67.5516 37.5016 66.1608C37.5016 64.77 38.6281 63.6425 40.0175 63.6425H46.7268C48.1164 63.6425 49.2427 64.77 49.2427 66.1608C49.2427 67.5516 48.1164 68.6791 46.7268 68.6791ZM49.2511 58.6059H37.5182C36.1286 58.6059 35.0022 57.4783 35.0022 56.0876C35.0022 54.6968 36.1288 53.5693 37.5182 53.5693H49.2511C50.6407 53.5693 51.7671 54.6968 51.7671 56.0876C51.7671 57.4783 50.6407 58.6059 49.2511 58.6059Z" fill="url(#paint0_linear_3961_3450)"/>
<defs>
<linearGradient id="paint0_linear_3961_3450" x1="43.3804" y1="3.85465" x2="43.3804" y2="77.2413" gradientUnits="userSpaceOnUse">
<stop stop-color="#41A53D"/>
<stop offset="1" stop-color="#0A7542"/>
</linearGradient>
</defs>
</svg>
