<svg width="50" height="51" viewBox="0 0 50 51" fill="none" xmlns="http://www.w3.org/2000/svg">
<g clip-path="url(#clip0_6752_3201)">
<path d="M31.7969 25.082L48.5938 8.28517C50.4785 6.41017 50.4785 3.37306 48.6133 1.48829C46.7383 -0.396475 43.7012 -0.396475 41.8164 1.46876L41.8066 1.47853L25.0098 18.2754L8.20312 1.48829C6.32812 -0.386709 3.28125 -0.386709 1.40625 1.48829C-0.46875 3.36329 -0.46875 6.41017 1.40625 8.28517L18.2031 25.082L1.40625 41.8789C-0.46875 43.7539 -0.46875 46.8008 1.40625 48.6758C3.28125 50.5508 6.32812 50.5508 8.20312 48.6758L25 31.8789L41.7969 48.6758C43.6719 50.5508 46.7188 50.5508 48.5938 48.6758C50.4688 46.8008 50.4688 43.7539 48.5938 41.8789L31.7969 25.082Z" fill="#3E3E3E"/>
</g>
<defs>
<clipPath id="clip0_6752_3201">
<rect width="50" height="50" fill="white" transform="translate(0 0.0820312)"/>
</clipPath>
</defs>
</svg>
