<svg width="50" height="51" viewBox="0 0 50 51" fill="none" xmlns="http://www.w3.org/2000/svg">
<g clip-path="url(#clip0_6752_3209)">
<path d="M36.2656 13.793C37.9877 13.5053 39.7559 13.7042 41.3711 14.3672C42.5189 13.5377 43.4534 12.4476 44.0978 11.1865C44.7423 9.9255 45.0782 8.52951 45.0781 7.11334V4.98053H42.9687C41.5496 4.97535 40.1496 5.30774 38.8843 5.95026C37.6189 6.59278 36.5245 7.52701 35.6914 8.67584C36.3567 10.2945 36.5556 12.0671 36.2656 13.793Z" fill="#3E3E3E"/>
<path d="M36.4336 1.09373C36.5066 1.02017 36.5475 0.920612 36.5471 0.816954C36.5467 0.713296 36.5052 0.614029 36.4316 0.540991C36.3581 0.467953 36.2585 0.427126 36.1549 0.427493C36.0512 0.427859 35.9519 0.469388 35.8789 0.542944L32.2266 4.19529L32.7812 4.74607L36.4336 1.09373Z" fill="#3E3E3E"/>
<path d="M40.457 22.1289C42.7617 21.3867 43.7773 20.1484 45.4258 18.4961L43.9023 16.9726C42.8962 15.9654 41.6555 15.2239 40.2919 14.8148C38.9282 14.4057 37.4843 14.3418 36.0898 14.6289C35.7141 16.1036 34.9802 17.4628 33.9531 18.5859C37.25 18.914 38.957 20.6289 40.457 22.1289Z" fill="#3E3E3E"/>
<path d="M26.625 23.4883C27.1043 23.4118 27.5888 23.3726 28.0742 23.3711C31.8359 19.6133 31.4336 14.207 28.2344 11.0195C27.1094 9.90234 29.2539 12.0391 26.7109 9.49609C25.0781 11.125 23.8359 12.1484 23.0938 14.418L23.9922 15.3164C25.0502 16.3704 25.8411 17.6618 26.299 19.0832C26.757 20.5047 26.8687 22.0149 26.625 23.4883Z" fill="#3E3E3E"/>
<path d="M31.25 19.4766C30.8662 20.9483 30.1287 22.3041 29.1016 23.4258C31.1389 23.6342 33.0497 24.512 34.5352 25.9219C35.7831 25.5758 37.077 25.4243 38.3711 25.4727C39.1433 24.8005 39.8787 24.0872 40.5742 23.336C39.3828 22.1641 39.7188 22.4844 39.0508 21.8125C38.045 20.8085 36.806 20.0696 35.4446 19.662C34.0833 19.2543 32.642 19.1906 31.25 19.4766Z" fill="#3E3E3E"/>
<path d="M26.4492 24.3007C26.0714 25.7818 25.3334 27.1465 24.3008 28.2734C25.7752 28.4422 27.1894 28.9546 28.4297 29.7695C29.8433 28.151 31.6481 26.9218 33.6719 26.1992C32.6884 25.3598 31.5281 24.7531 30.2775 24.4244C29.027 24.0957 27.7184 24.0534 26.4492 24.3007Z" fill="#3E3E3E"/>
<path d="M27.9297 30.3906C26.0467 29.1676 23.76 28.7302 21.5586 29.1718C21.1863 30.6482 20.4534 32.0092 19.4258 33.1327C22.1016 33.4179 23.7852 34.5859 25.4883 36.2577C25.7791 34.1233 26.6205 32.1012 27.9297 30.3906Z" fill="#3E3E3E"/>
<path d="M10.6758 37.8203C10.8008 37.9414 10.6055 37.7461 12.1524 39.293C13.8203 37.625 15.082 36.582 15.8047 34.2539C16.2784 32.7493 16.33 31.1436 15.9539 29.6117C15.5778 28.0798 14.7885 26.6806 13.6719 25.5664L12.1484 24.043L10.6211 25.5664C9.81671 26.3727 9.17975 27.3302 8.74687 28.3836C8.31399 29.4371 8.09376 30.5658 8.09884 31.7047C8.10392 32.8437 8.33422 33.9703 8.77649 35.0199C9.21875 36.0695 9.86424 37.0212 10.6758 37.8203Z" fill="#3E3E3E"/>
<path d="M19.1094 20.1641C20.1731 21.2204 20.967 22.5173 21.4239 23.945C21.8808 25.3728 21.9873 26.8896 21.7344 28.3673C23.5117 28.0626 23.0781 28.4415 23.4414 28.0782C25.0587 26.4595 25.9671 24.2648 25.9671 21.9766C25.9671 19.6884 25.0587 17.4938 23.4414 15.8751C21.7617 14.1954 21.9336 14.336 21.8789 14.3829C21.8359 14.336 22.0156 14.1837 20.3164 15.879C19.3555 16.8376 18.6353 18.0103 18.2148 19.3008L19.1094 20.1641Z" fill="#3E3E3E"/>
<path d="M16.8555 33.207C17.3717 33.1197 17.8944 33.0752 18.418 33.0742C22.2227 29.168 21.707 23.8516 18.5703 20.7148L17.0469 19.1914C15.3711 20.8633 14.1367 21.8828 13.4062 24.1797L14.2422 25.0156C15.2997 26.0735 16.0887 27.3691 16.5433 28.7941C16.9979 30.2191 17.1049 31.7322 16.8555 33.207Z" fill="#3E3E3E"/>
<path d="M24.4922 36.3828C23.486 35.3755 22.2454 34.6341 20.8817 34.225C19.5181 33.8159 18.0741 33.752 16.6797 34.039C15.9648 36.8281 14.4531 38.082 12.7188 39.832C14.3654 41.2708 16.497 42.0308 18.6825 41.9582C20.868 41.8857 22.9445 40.9862 24.4922 39.4414L25.3906 38.5429C25.3906 38.0742 25.3906 37.6875 25.3906 37.2773L24.4922 36.3828Z" fill="#3E3E3E"/>
<path d="M48.9648 13.6249L45.3125 17.2695L45.8633 17.8241L49.5156 14.1718C49.575 14.0965 49.6046 14.002 49.5988 13.9063C49.593 13.8105 49.5522 13.7203 49.4841 13.6527C49.4161 13.5852 49.3255 13.545 49.2298 13.5399C49.134 13.5347 49.0397 13.565 48.9648 13.6249Z" fill="#3E3E3E"/>
<path d="M45.8594 4.76942L49.4727 1.16005C49.5462 1.08649 49.5875 0.986726 49.5875 0.882702C49.5875 0.778678 49.5462 0.678914 49.4727 0.605358C49.3991 0.531802 49.2993 0.490479 49.1953 0.490479C49.0913 0.490479 48.9915 0.531802 48.918 0.605358L45.3125 4.19911H45.8633L45.8594 4.76942Z" fill="#3E3E3E"/>
<path d="M1.47269 49.6914C2.12504 49.6914 1.47269 50.1289 11.6875 39.9258C10.0313 38.2656 10.25 38.4805 10.125 38.3633C-0.117151 48.6094 0.359411 47.9336 0.359411 48.5781C0.358372 48.7246 0.386459 48.8698 0.442038 49.0054C0.497618 49.1409 0.579582 49.2641 0.683168 49.3676C0.786753 49.4712 0.909893 49.5532 1.04543 49.6088C1.18097 49.6644 1.3262 49.6924 1.47269 49.6914Z" fill="#3E3E3E"/>
<path d="M31.4141 18.6523C31.9131 18.5636 32.4189 18.5191 32.9258 18.5195C36.6836 14.7617 36.2852 9.35547 33.0859 6.15625L31.5625 4.63281C29.9102 6.28125 28.6719 7.29297 27.9297 9.59766L28.4805 10.1484C28.4805 10.2656 32.3125 13.3164 31.4141 18.6523Z" fill="#3E3E3E"/>
<path d="M37.8673 26.2539C36.2004 26.2543 34.5529 26.6102 33.0346 27.298C31.5162 27.9857 30.1621 28.9895 29.0626 30.2422C22.4493 37.7578 27.7774 49.6914 37.8673 49.6914C40.9753 49.6914 43.956 48.4568 46.1537 46.2591C48.3514 44.0614 49.586 41.0807 49.586 37.9727C49.586 34.8647 48.3514 31.8839 46.1537 29.6862C43.956 27.4886 40.9753 26.2539 37.8673 26.2539ZM37.8673 29.3789C39.6082 29.3753 41.3088 29.9026 42.7423 30.8906L30.7852 42.8477C26.9298 37.2578 30.8594 29.3789 37.8673 29.3789ZM32.9923 45.0547L44.9493 33.0977C45.9373 34.5311 46.4647 36.2317 46.461 37.9727C46.461 44.9609 38.6016 48.9102 32.9923 45.0547Z" fill="#3E3E3E"/>
</g>
<defs>
<clipPath id="clip0_6752_3209">
<rect width="50" height="50" fill="white" transform="translate(0 0.0820312)"/>
</clipPath>
</defs>
</svg>
