<svg width="50" height="51" viewBox="0 0 50 51" fill="none" xmlns="http://www.w3.org/2000/svg">
<g clip-path="url(#clip0_6752_3227)">
<path d="M0.390625 26.6348C11.0195 26.6348 11.9336 17.4629 23.4375 17.2598V15.3066H0.390625V26.6348Z" fill="#3E3E3E"/>
<path d="M16.0156 32.4941H16.4062V32.1035C16.4062 31.7927 16.2828 31.4946 16.063 31.2749C15.8432 31.0551 15.5452 30.9316 15.2344 30.9316H14.8438V31.3223C14.8438 31.6331 14.9672 31.9311 15.187 32.1509C15.4068 32.3707 15.7048 32.4941 16.0156 32.4941Z" fill="#3E3E3E"/>
<path d="M10.9649 35.2285C10.9649 36.2676 13.2539 36.2676 13.2539 35.2285C13.2539 34.2949 14.0625 33.9199 14.0625 32.8848V30.9316H10.1563C10.1563 33.2754 10.0547 33.248 10.5664 34.1035C10.8044 34.4325 10.9427 34.8231 10.9649 35.2285Z" fill="#3E3E3E"/>
<path d="M12.1094 38.7441C13.3455 38.7441 14.5539 38.3776 15.5817 37.6908C16.6095 37.0041 17.4106 36.028 17.8836 34.8859C18.3567 33.7439 18.4804 32.4872 18.2393 31.2748C17.9981 30.0624 17.4029 28.9488 16.5288 28.0747C15.6547 27.2006 14.5411 26.6054 13.3287 26.3642C12.1163 26.1231 10.8596 26.2468 9.7176 26.7199C8.57557 27.1929 7.59945 27.994 6.91269 29.0218C6.22593 30.0496 5.85938 31.258 5.85938 32.4941C5.85938 34.1517 6.51785 35.7415 7.68996 36.9136C8.86206 38.0857 10.4518 38.7441 12.1094 38.7441ZM7.03125 32.8848V32.1035C7.03089 31.6792 7.1687 31.2664 7.42382 30.9274C7.67895 30.5884 8.03752 30.3417 8.44531 30.2246C8.29009 29.966 8.2065 29.6707 8.20312 29.3691C8.20312 29.2655 8.24428 29.1662 8.31754 29.0929C8.39079 29.0197 8.49015 28.9785 8.59375 28.9785C8.69735 28.9785 8.79671 29.0197 8.86996 29.0929C8.94322 29.1662 8.98438 29.2655 8.98438 29.3691C8.97874 29.4732 8.99508 29.5773 9.03235 29.6747C9.06962 29.772 9.12697 29.8604 9.20067 29.9341C9.27437 30.0078 9.36277 30.0652 9.46011 30.1024C9.55745 30.1397 9.66155 30.156 9.76562 30.1504H14.4531C14.5574 30.1567 14.6617 30.1407 14.7594 30.1037C14.857 30.0667 14.9456 30.0093 15.0195 29.9355C15.0933 29.8617 15.1506 29.773 15.1877 29.6754C15.2247 29.5777 15.2406 29.4734 15.2344 29.3691C15.2344 29.2655 15.2755 29.1662 15.3488 29.0929C15.422 29.0197 15.5214 28.9785 15.625 28.9785C15.7286 28.9785 15.828 29.0197 15.9012 29.0929C15.9745 29.1662 16.0156 29.2655 16.0156 29.3691C16.0123 29.6707 15.9287 29.966 15.7734 30.2246C16.1812 30.3417 16.5398 30.5884 16.7949 30.9274C17.0501 31.2664 17.1879 31.6792 17.1875 32.1035V32.8848C17.1875 32.9884 17.1463 33.0877 17.0731 33.161C16.9998 33.2342 16.9005 33.2754 16.7969 33.2754C16.0156 33.2754 15.457 33.3496 14.8438 32.8848C14.8438 34.1387 14.0352 34.6465 14.0352 35.2285C14.0352 37.3066 10.1836 37.3106 10.1836 35.2285C10.1836 34.6465 9.375 34.1426 9.375 32.8848C8.76172 33.3496 8.20312 33.2754 7.42188 33.2754C7.31827 33.2754 7.21892 33.2342 7.14566 33.161C7.0724 33.0877 7.03125 32.9884 7.03125 32.8848Z" fill="#3E3E3E"/>
<path d="M9.375 31.3223V30.9316H8.98438C8.67357 30.9316 8.3755 31.0551 8.15573 31.2749C7.93596 31.4946 7.8125 31.7927 7.8125 32.1035V32.4941H8.20312C8.51393 32.4941 8.812 32.3707 9.03177 32.1509C9.25154 31.9311 9.375 31.6331 9.375 31.3223Z" fill="#3E3E3E"/>
<path d="M0.390625 49.6816H23.4375V38.3535C12.3242 38.5527 12.1094 47.7285 0.390625 47.7285V49.6816Z" fill="#3E3E3E"/>
<path d="M0.390625 46.9473C11.8203 46.9473 11.918 37.7793 23.4375 37.5723V18.041C12.3203 18.252 11.3281 27.416 0.390625 27.416V46.9473ZM12.1094 25.4629C13.5 25.4629 14.8594 25.8753 16.0157 26.6479C17.172 27.4205 18.0732 28.5186 18.6054 29.8034C19.1376 31.0882 19.2768 32.5019 19.0055 33.8659C18.7342 35.2298 18.0646 36.4826 17.0812 37.466C16.0979 38.4493 14.845 39.119 13.4811 39.3903C12.1172 39.6616 10.7034 39.5223 9.41863 38.9902C8.13384 38.458 7.03571 37.5568 6.2631 36.4005C5.4905 35.2442 5.07812 33.8848 5.07812 32.4941C5.07812 30.6293 5.81892 28.8409 7.13753 27.5223C8.45615 26.2037 10.2446 25.4629 12.1094 25.4629Z" fill="#3E3E3E"/>
<path d="M30.9609 41.5762L33.2031 39.334V31.7129C31.7205 32.8241 30.681 34.426 30.2703 36.2327C29.8596 38.0394 30.1044 39.9333 30.9609 41.5762Z" fill="#3E3E3E"/>
<path d="M33.2031 26.373V15.3066H24.2188V49.6816C34.2031 49.6816 33.2031 49.7402 33.2031 49.5488C22.8086 45.3301 22.8047 30.5879 33.2031 26.373Z" fill="#3E3E3E"/>
<path d="M33.2031 14.5215L28.75 4.49805L24.293 14.5215H33.2031Z" fill="#3E3E3E"/>
<path d="M5.07812 3.97461L0.390625 14.5215H23.4375L28.125 3.97461H5.07812Z" fill="#3E3E3E"/>
<path d="M28.5156 1.24414C28.5156 1.03694 28.4333 0.838226 28.2868 0.691713C28.1403 0.545201 27.9416 0.462891 27.7344 0.462891H5.85938C5.65217 0.462891 5.45346 0.545201 5.30695 0.691713C5.16044 0.838226 5.07812 1.03694 5.07812 1.24414V3.19727H28.5156V1.24414Z" fill="#3E3E3E"/>
<path d="M37.8906 26.2441C35.5729 26.2441 33.3072 26.9314 31.38 28.2191C29.4529 29.5068 27.9509 31.337 27.0639 33.4783C26.177 35.6196 25.9449 37.9759 26.3971 40.2491C26.8492 42.5223 27.9653 44.6104 29.6042 46.2493C31.2431 47.8882 33.3312 49.0043 35.6044 49.4565C37.8776 49.9086 40.2339 49.6766 42.3752 48.7896C44.5165 47.9026 46.3467 46.4006 47.6344 44.4735C48.9221 42.5463 49.6094 40.2806 49.6094 37.9629C49.6094 34.8549 48.3747 31.8742 46.177 29.6765C43.9793 27.4788 40.9986 26.2441 37.8906 26.2441ZM29.2969 37.9629C29.2969 30.9746 37.1563 27.0254 42.7656 30.8809L30.8086 42.834C29.8214 41.4017 29.294 39.7025 29.2969 37.9629ZM37.8906 46.5566C36.1497 46.5603 34.4491 46.0329 33.0156 45.0449L44.9727 33.0879C48.8281 38.6738 44.8945 46.5566 37.8906 46.5566Z" fill="#3E3E3E"/>
</g>
<defs>
<clipPath id="clip0_6752_3227">
<rect width="50" height="50" fill="white" transform="translate(0 0.0722656)"/>
</clipPath>
</defs>
</svg>
