<svg width="50" height="51" viewBox="0 0 50 51" fill="none" xmlns="http://www.w3.org/2000/svg">
<path d="M32.1049 10.6137C33.0707 10.7592 33.5639 10.4305 33.8076 10.1291C33.8823 10.0362 33.9809 9.96534 34.0928 9.92416C34.2047 9.88297 34.3256 9.87301 34.4428 9.89532C34.5599 9.91764 34.6687 9.97139 34.7577 10.0508C34.8466 10.1303 34.9122 10.2324 34.9475 10.3463C35.1667 11.0579 35.9484 12.7486 38.4653 13.0801C38.582 13.0952 38.6926 13.1414 38.7853 13.2139C38.8781 13.2864 38.9496 13.3825 38.9924 13.4922C39.0352 13.6018 39.0477 13.721 39.0286 13.8372C39.0094 13.9533 38.9594 14.0622 38.8837 14.1523C38.7797 14.2769 38.6247 14.8963 39.1596 15.5108C39.3488 15.4583 39.5558 15.3855 39.7585 15.3137C40.3136 15.1174 40.793 14.9478 41.1894 15.0623C41.4451 15.1363 41.652 15.3503 41.8219 15.7166C42.0604 16.2309 42.2595 17.151 42.3291 18.277C43.1809 18.1068 43.9521 17.6585 44.5214 17.0024C44.5475 16.9721 44.5731 16.9412 44.5982 16.9097C45.6669 15.5718 45.3227 13.3446 43.8614 12.1435C43.6281 11.9553 43.435 11.7223 43.2934 11.4582L43.2797 11.4323C43.1285 11.14 43.0408 10.819 43.0224 10.4903C43.004 10.1617 43.0553 9.83289 43.173 9.52549C43.8727 7.66202 43.3976 5.59063 42.0166 4.48819C40.5713 3.3338 38.5062 3.31856 36.879 4.4502C36.4131 4.77764 35.8368 4.90795 35.2754 4.8128C34.9889 4.76252 34.7151 4.65633 34.4696 4.5003C32.9549 3.55303 30.936 3.84141 29.8733 5.15674C29.8482 5.18786 29.8237 5.21934 29.7997 5.25118C29.454 5.70706 29.2339 6.24562 29.1614 6.81311C29.0889 7.38061 29.1665 7.9572 29.3864 8.48536C29.6139 9.04681 29.9847 9.53879 30.4617 9.91224C30.9387 10.2857 31.5053 10.5275 32.1049 10.6137Z" fill="#3E3E3E"/>
<path d="M5.21995 26.4237C5.32336 26.4838 5.40111 26.5797 5.43846 26.6934C5.47581 26.807 5.47017 26.9304 5.42259 27.0401C5.41565 27.0564 4.68597 28.8019 5.42962 30.4132C5.93186 31.5016 6.99759 32.3061 8.5971 32.8044C8.67162 32.8277 8.73948 32.8684 8.79501 32.9232C8.85054 32.9781 8.89211 33.0455 8.91624 33.1197C9.29172 34.1545 9.81207 35.1308 10.4617 36.0195C11.5079 35.4281 12.7071 35.1635 13.905 35.2596C13.9157 35.2605 13.9262 35.2618 13.9367 35.2633L19.9888 36.1779C19.4053 35.6204 18.8118 35.0182 18.2164 34.3867C17.5769 34.5603 16.9202 34.663 16.2582 34.6927C16.1431 34.6976 16.0292 34.7 15.9164 34.7C14.3552 34.7 13.0217 34.2302 12.0436 33.3318C11.9964 33.2884 11.9581 33.2362 11.9311 33.178C11.9041 33.1199 11.8888 33.0569 11.886 32.9929C11.8833 32.9288 11.8932 32.8648 11.9153 32.8046C11.9373 32.7444 11.9709 32.6891 12.0143 32.6418C12.0577 32.5946 12.1099 32.5564 12.1681 32.5294C12.2262 32.5023 12.2891 32.487 12.3532 32.4843C12.4173 32.4816 12.4812 32.4915 12.5415 32.5135C12.6017 32.5355 12.657 32.5692 12.7042 32.6125C14.1879 33.9755 16.3335 33.7866 17.4531 33.5624C15.7623 31.7051 14.0827 29.6583 12.5939 27.7537C12.2352 27.8066 11.8731 27.8328 11.5105 27.8323C10.1905 27.8323 8.19837 27.4892 6.79163 25.6986C6.751 25.6483 6.72077 25.5904 6.7027 25.5283C6.68463 25.4662 6.67907 25.4011 6.68635 25.3369C6.69363 25.2726 6.71361 25.2104 6.74511 25.1539C6.77662 25.0975 6.81903 25.0478 6.86989 25.0079C6.92075 24.9679 6.97903 24.9385 7.04136 24.9212C7.10369 24.904 7.16883 24.8993 7.23299 24.9074C7.29715 24.9156 7.35905 24.9364 7.4151 24.9686C7.47115 25.0009 7.52023 25.044 7.5595 25.0954C8.86516 26.7571 10.8143 26.9097 11.8905 26.8463C9.29495 23.4708 7.43128 20.7471 7.39475 20.694C7.32181 20.587 7.29435 20.4554 7.31844 20.3281C7.34252 20.2009 7.41617 20.0884 7.52317 20.0155C7.63018 19.9425 7.76178 19.9151 7.88903 19.9392C8.01627 19.9632 8.12874 20.0369 8.20169 20.1439C8.23753 20.1965 10.0585 22.8579 12.5982 26.1664C12.8574 25.1579 13.1104 23.4906 12.3915 22.3152C12.3581 22.2605 12.3357 22.1997 12.3257 22.1364C12.3158 22.073 12.3184 22.0084 12.3334 21.946C12.3484 21.8837 12.3756 21.8249 12.4133 21.7731C12.451 21.7212 12.4986 21.6773 12.5533 21.6438C12.608 21.6104 12.6688 21.588 12.7321 21.5781C12.7954 21.5681 12.8601 21.5707 12.9225 21.5857C13.0484 21.616 13.1571 21.6951 13.2246 21.8056C14.3574 23.6571 13.6298 26.2548 13.3359 27.119C14.7929 28.9842 16.4345 30.9878 18.0871 32.8094C18.279 31.7401 18.4432 29.9355 17.703 28.725C17.6684 28.6703 17.645 28.6093 17.6342 28.5455C17.6234 28.4816 17.6255 28.4163 17.6402 28.3533C17.6549 28.2902 17.6819 28.2307 17.7198 28.1782C17.7577 28.1258 17.8057 28.0814 17.8609 28.0476C17.9161 28.0138 17.9775 27.9914 18.0415 27.9815C18.1055 27.9717 18.1708 27.9747 18.2336 27.9903C18.2964 28.0059 18.3555 28.0339 18.4074 28.0726C18.4593 28.1112 18.503 28.1599 18.536 28.2156C19.6639 30.0596 19.1207 32.8008 18.9005 33.6896C19.6795 34.5167 20.4547 35.2921 21.2076 35.9812C21.263 36.0321 21.3058 36.0951 21.3326 36.1653C21.3595 36.2355 21.3697 36.311 21.3624 36.3858L23.5402 36.7148C23.4508 35.923 23.3898 34.738 23.5067 33.7513C23.9338 30.1464 23.2396 27.2727 21.4991 25.4408C20.2085 24.0822 18.8094 23.7658 18.7954 23.7628C18.7112 23.7445 18.6333 23.7043 18.5697 23.6461C18.506 23.5879 18.4589 23.514 18.4331 23.4317C16.8767 18.4663 13.1943 19.3638 13.0382 19.4042C12.9349 19.4314 12.8256 19.424 12.7269 19.3833C12.6282 19.3426 12.5455 19.2708 12.4913 19.1788C11.3179 17.1711 9.25999 16.2266 6.37581 16.3699C5.33956 16.4169 4.3581 16.8487 3.62329 17.5808C2.88847 18.313 2.45313 19.2929 2.40237 20.329C2.25872 23.2034 3.20647 25.254 5.21995 26.4237Z" fill="#3E3E3E"/>
<path d="M19.2821 22.8863C19.5677 22.9793 19.8462 23.0928 20.1155 23.2259C20.2991 22.4591 20.4885 21.7045 20.6786 20.9728C19.9771 20.2963 18.0322 18.0994 18.7887 15.1486C18.8041 15.0859 18.8317 15.0269 18.8701 14.975C18.9084 14.923 18.9567 14.8792 19.012 14.846C19.0674 14.8129 19.1288 14.791 19.1927 14.7817C19.2566 14.7724 19.3217 14.7759 19.3842 14.792C19.4468 14.808 19.5055 14.8363 19.557 14.8752C19.6086 14.914 19.6519 14.9627 19.6844 15.0185C19.717 15.0742 19.7382 15.1358 19.7468 15.1998C19.7555 15.2638 19.7513 15.3289 19.7346 15.3912C19.2134 17.4234 20.2654 19.0482 20.9717 19.8639C22.0766 15.754 23.1218 12.6113 23.1355 12.5705C23.1772 12.4485 23.2654 12.348 23.3809 12.2908C23.4964 12.2336 23.6299 12.2244 23.7522 12.2652C23.8744 12.3061 23.9756 12.3936 24.0336 12.5087C24.0916 12.6238 24.1017 12.7572 24.0617 12.8798C24.0483 12.92 23.0259 15.995 21.9383 20.0302C22.8967 19.6229 24.3947 18.8029 24.8942 17.5083C24.9408 17.3875 25.0335 17.2901 25.1519 17.2377C25.2703 17.1852 25.4047 17.1819 25.5255 17.2285C25.6463 17.2751 25.7437 17.3678 25.7962 17.4862C25.8486 17.6046 25.8519 17.739 25.8053 17.8599C25.0218 19.8905 22.4735 20.9072 21.63 21.1941C21.4152 22.0185 21.2023 22.8723 20.9969 23.74C21.4358 24.0385 21.8414 24.383 22.2069 24.7679C24.1611 26.8248 24.6454 29.6378 24.6005 32.0721C26.5524 30.4336 27.6727 28.553 27.9337 26.4702C28.1545 24.7075 27.6453 23.4429 27.6402 23.4303C27.6088 23.3542 27.5971 23.2714 27.6062 23.1896C27.6152 23.1078 27.6447 23.0295 27.6919 22.9621C30.6882 18.7053 27.731 16.345 27.6033 16.2467C27.5185 16.1813 27.4575 16.0899 27.4295 15.9865C27.4015 15.8831 27.4081 15.7734 27.4483 15.6741C28.3278 13.5234 27.8241 11.3225 25.9512 9.13243C25.2777 8.3418 24.3341 7.82994 23.3041 7.69638C22.2741 7.56281 21.2313 7.81709 20.3783 8.40977C18.0053 10.0494 16.9535 12.0488 17.2518 14.3523C17.2671 14.4709 17.2385 14.5909 17.1713 14.6897C17.1041 14.7885 17.003 14.8592 16.8871 14.8885C16.7656 14.9198 14.0414 15.6557 13.8136 18.3446C14.3531 18.3404 14.8901 18.4197 15.4054 18.5797C17.6089 19.2692 18.7248 21.2497 19.2821 22.8863Z" fill="#3E3E3E"/>
<path d="M38.6478 20.4942C38.6941 19.7144 38.6629 18.9319 38.5547 18.1582C37.4168 18.3893 36.3611 18.9192 35.496 19.6936C36.9807 19.6252 38.0102 20.0673 38.6478 20.4942Z" fill="#3E3E3E"/>
<path d="M25.0967 32.9272C24.9155 33.0764 24.7259 33.2248 24.528 33.3726C24.5124 33.5403 24.4952 33.7052 24.4761 33.866C24.358 34.8621 24.4412 36.1527 24.5415 36.8659L25.9586 37.0801C25.4831 35.8426 25.2025 34.2918 25.0967 32.9272Z" fill="#3E3E3E"/>
<path d="M41.8066 23.0675C41.6709 23.5284 41.5048 23.9799 41.3097 24.4189C41.2835 24.4775 41.246 24.5303 41.1994 24.5743C41.1528 24.6184 41.098 24.6528 41.0381 24.6757C40.9782 24.6985 40.9143 24.7094 40.8503 24.7076C40.7862 24.7058 40.723 24.6914 40.6645 24.6652C40.606 24.639 40.5532 24.6015 40.5091 24.5549C40.4651 24.5083 40.4306 24.4535 40.4078 24.3936C40.3849 24.3337 40.3741 24.2699 40.3759 24.2058C40.3777 24.1417 40.3921 24.0786 40.4183 24.02C41.8991 20.7114 41.3325 16.6201 40.8722 16C40.7101 16.013 40.3391 16.1442 40.0849 16.2344C39.7608 16.3594 39.4271 16.458 39.0872 16.5294C40.1576 18.6724 39.3581 23.1268 39.3235 23.3153C39.299 23.4415 39.2256 23.5529 39.1194 23.6253C39.0133 23.6977 38.8828 23.7254 38.7564 23.7022C38.6299 23.6791 38.5177 23.6071 38.4441 23.5017C38.3704 23.3964 38.3413 23.2662 38.363 23.1396C38.3645 23.1314 38.474 22.5261 38.5609 21.6755C38.2296 21.3354 37.1512 20.4524 35.0707 20.7087C34.5912 20.7703 34.1041 20.7301 33.6412 20.5908C33.1783 20.4514 32.75 20.216 32.3843 19.8999C32.9291 22.4964 35.2839 23.2779 36.3533 23.5007C36.4999 23.5308 36.6327 23.6076 36.7319 23.7196C36.831 23.8316 36.8912 23.9728 36.9033 24.1219C36.9154 24.271 36.8788 24.42 36.799 24.5466C36.7192 24.6731 36.6005 24.7704 36.4607 24.8237C35.6207 25.1472 34.8168 25.5574 34.0619 26.0478C33.5713 26.3655 33.3404 26.7699 33.375 27.2504C34.232 26.8969 35.1663 26.773 36.0857 26.8908C37.6287 27.0932 38.4164 26.1625 38.5586 25.9739C38.6216 25.8903 38.7089 25.8281 38.8086 25.7958C38.9083 25.7636 39.0154 25.7628 39.1155 25.7936C39.2157 25.8245 39.3038 25.8854 39.3681 25.9681C39.4323 26.0509 39.4695 26.1514 39.4745 26.2561C39.4862 26.4943 39.6146 27.7209 40.9961 28.4474C41.815 28.8803 42.5064 29.52 43.0016 30.3028C43.3093 29.9302 43.3556 29.4669 43.139 28.9247C42.8069 28.09 42.3883 27.2923 41.89 26.5448C41.8068 26.4206 41.7662 26.2727 41.7741 26.1234C41.782 25.9741 41.8381 25.8313 41.9339 25.7166C42.0298 25.6018 42.1602 25.5212 42.3058 25.4868C42.4513 25.4524 42.604 25.4661 42.7411 25.5259C43.7433 25.9598 46.118 26.6773 48.0672 24.8729C47.5866 24.92 47.1015 24.8654 46.6434 24.7126C46.1853 24.5598 45.7646 24.3122 45.4086 23.9859C43.8805 22.5994 42.3311 22.9051 41.8066 23.0675Z" fill="#3E3E3E"/>
<path d="M29.9707 19.9601C29.823 21.2414 29.2418 22.4082 28.6346 23.3147C28.6685 23.4207 28.7085 23.5588 28.7486 23.7222C29.7219 22.8691 30.8227 22.1735 32.011 21.6605C31.5696 20.8385 31.3254 19.9252 31.2975 18.9926C31.2919 18.8282 31.3488 18.6678 31.4569 18.5438C31.565 18.4198 31.7161 18.3414 31.8798 18.3246C31.9933 18.3141 32.1076 18.333 32.2117 18.3796C32.3158 18.4262 32.4061 18.4988 32.4739 18.5905C32.769 18.9734 33.3214 19.5302 34.1267 19.7042C35.2006 18.4244 36.6752 17.5446 38.3116 17.2076C38.2797 17.1254 38.2462 17.0467 38.2098 16.9747C38.1518 16.8602 38.117 16.7354 38.1075 16.6074C38.098 16.4794 38.1141 16.3508 38.1547 16.2291L35.8011 16.4167C35.7739 16.4188 35.7468 16.42 35.7199 16.42C35.5099 16.4201 35.3052 16.3544 35.1345 16.2321C34.9637 16.1099 34.8356 15.9372 34.768 15.7384C34.711 15.5618 34.7024 15.3732 34.7432 15.1921C34.784 15.0111 34.8726 14.8443 34.9999 14.7092L36.2239 13.3731C35.8975 13.1902 35.594 12.9693 35.3197 12.715L33.6283 14.825C33.4983 14.9878 33.3138 15.0982 33.1089 15.136C32.904 15.1738 32.6923 15.1363 32.5128 15.0305C32.3762 14.9468 32.2646 14.8281 32.1895 14.6867C32.1144 14.5453 32.0785 14.3863 32.0856 14.2263L32.1631 11.6055C32.0967 11.599 32.0289 11.5904 31.9595 11.5798C31.5876 11.5239 31.2241 11.4223 30.8771 11.2771C30.926 12.449 30.759 14.5455 29.4299 17.01C29.5327 17.2053 29.6226 17.407 29.6991 17.614C29.8069 17.9069 29.8868 18.2094 29.9379 18.5173C30.4216 17.8401 30.7916 17.0885 31.0336 16.2921C31.0523 16.2307 31.083 16.1736 31.1239 16.124C31.1647 16.0745 31.2149 16.0334 31.2716 16.0033C31.3283 15.9731 31.3904 15.9544 31.4543 15.9482C31.5183 15.9421 31.5828 15.9486 31.6442 15.9673C31.7056 15.9861 31.7628 16.0168 31.8123 16.0576C31.8619 16.0985 31.9029 16.1487 31.9331 16.2054C31.9632 16.2621 31.9819 16.3242 31.9881 16.3881C31.9943 16.452 31.9878 16.5166 31.969 16.578C31.7353 17.347 31.1644 18.8141 29.9707 19.9601Z" fill="#3E3E3E"/>
<path d="M41.3239 42.5744C41.5861 42.5353 41.8256 42.4037 41.9991 42.2033C42.1727 42.0029 42.2687 41.747 42.2699 41.4819C42.2713 41.2174 42.177 40.9612 42.0045 40.7607C41.832 40.5601 41.5928 40.4286 41.331 40.3904L32.2735 39.0219V40.6454C32.2735 40.7749 32.2221 40.8991 32.1305 40.9907C32.0389 41.0822 31.9147 41.1337 31.7852 41.1337C31.6557 41.1337 31.5315 41.0822 31.44 40.9907C31.3484 40.8991 31.2969 40.7749 31.2969 40.6454V38.8742L19.2253 37.0502V39.9213C19.2253 40.0508 19.1738 40.175 19.0823 40.2665C18.9907 40.3581 18.8665 40.4096 18.737 40.4096C18.6075 40.4096 18.4833 40.3581 18.3917 40.2665C18.3001 40.175 18.2487 40.0508 18.2487 39.9213V36.9026L13.8069 36.2314C11.9353 36.0792 10.1466 37.0189 9.10671 38.5378C10.0824 40.193 10.0052 41.6842 9.75496 42.6638C9.61419 43.214 9.38895 43.739 9.08728 44.2202C9.50495 44.8439 10.0502 45.3719 10.687 45.7693C11.3238 46.1667 12.0376 46.4245 12.7814 46.5257V43.3163C12.7814 43.1868 12.8329 43.0626 12.9244 42.971C13.016 42.8795 13.1402 42.828 13.2697 42.828C13.3992 42.828 13.5234 42.8795 13.615 42.971C13.7065 43.0626 13.758 43.1868 13.758 43.3163V46.5528C13.7749 46.5516 13.7916 46.5513 13.8085 46.5499L26.2862 44.7472V42.6964C26.2862 42.5669 26.3376 42.4427 26.4292 42.3511C26.5208 42.2595 26.645 42.2081 26.7745 42.2081C26.904 42.2081 27.0282 42.2595 27.1198 42.3511C27.2113 42.4427 27.2628 42.5669 27.2628 42.6964V44.6058L36.6739 43.2461V42.6008C36.6739 42.4713 36.7253 42.3471 36.8169 42.2555C36.9085 42.1639 37.0327 42.1125 37.1622 42.1125C37.2917 42.1125 37.4159 42.1639 37.5074 42.2555C37.599 42.3471 37.6505 42.4713 37.6505 42.6008V43.105L41.3239 42.5744ZM22.975 42.9742C22.975 43.1037 22.9235 43.2279 22.832 43.3195C22.7404 43.411 22.6162 43.4625 22.4867 43.4625C22.3572 43.4625 22.233 43.411 22.1414 43.3195C22.0499 43.2279 21.9984 43.1037 21.9984 42.9742V40.5728C21.9984 40.4433 22.0499 40.3191 22.1414 40.2276C22.233 40.136 22.3572 40.0846 22.4867 40.0846C22.6162 40.0846 22.7404 40.136 22.832 40.2276C22.9235 40.3191 22.975 40.4433 22.975 40.5728V42.9742Z" fill="#3E3E3E"/>
<path d="M2.38003 41.9941L8.91411 41.8769C8.95283 41.552 8.95319 41.2238 8.91519 40.8988L2.37583 40.7646C2.29304 40.7616 2.21049 40.7753 2.13314 40.805C2.05579 40.8347 1.98522 40.8797 1.92569 40.9373C1.86615 40.9949 1.81886 41.0639 1.78666 41.1403C1.75445 41.2166 1.738 41.2986 1.73828 41.3815C1.73857 41.4643 1.75558 41.5463 1.7883 41.6224C1.82103 41.6985 1.86879 41.7672 1.92872 41.8244C1.98865 41.8816 2.05951 41.9261 2.13707 41.9553C2.21462 41.9844 2.29726 41.9976 2.38003 41.9941Z" fill="#3E3E3E"/>
<path d="M43.2065 41.076C45.3408 39.8418 46.9405 37.8588 47.6953 35.5118C48.718 32.3051 48.2947 29.3978 46.4385 26.8644C45.9989 26.9815 45.5458 27.0404 45.0908 27.0396C44.4315 27.0344 43.777 26.9271 43.1506 26.7215C43.4929 27.3126 43.792 27.9277 44.0454 28.562C44.5387 29.7967 44.0299 30.6236 43.6827 31.0065C43.596 31.1031 43.4899 31.1804 43.3713 31.2333C43.2528 31.2861 43.1244 31.3134 42.9945 31.3132C42.9652 31.3132 42.9359 31.312 42.9066 31.3092C42.7643 31.2967 42.6269 31.2509 42.5054 31.1756C42.384 31.1003 42.282 30.9975 42.2075 30.8755C41.7993 30.2167 41.2245 29.6773 40.541 29.3118C39.4137 28.7193 38.9079 27.8559 38.6811 27.1964C38.123 27.6081 37.2216 28.0246 35.9582 27.859C35.1877 27.7641 34.4058 27.8735 33.691 28.1763C33.5587 28.2325 33.4152 28.2571 33.2718 28.2481C33.1283 28.2392 32.9889 28.1969 32.8647 28.1247C32.7405 28.0524 32.6348 27.9523 32.556 27.832C32.4772 27.7118 32.4276 27.5749 32.4109 27.4322C32.3493 26.9197 32.4129 25.9517 33.5303 25.2281C34.1043 24.8563 34.7044 24.5265 35.3259 24.2413C34.0496 23.8371 33.1752 23.1951 32.5757 22.4822C31.2193 23.0399 29.9835 23.8545 28.9363 24.8813C28.9836 25.432 28.9747 25.986 28.9098 26.5349C28.7347 28.0164 28.0675 30.064 26.0298 32.087C26.0736 33.7206 26.4133 35.8536 27.095 37.252L41.4771 39.4252C41.901 39.4871 42.2951 39.6792 42.605 39.975C42.9148 40.2707 43.125 40.6555 43.2065 41.076Z" fill="#3E3E3E"/>
<path d="M6.2419 42.9017L3.86143 43.8633C3.78621 43.8931 3.71761 43.9374 3.65958 43.9937C3.60155 44.05 3.55523 44.1173 3.52328 44.1916C3.49133 44.2659 3.47439 44.3458 3.47343 44.4267C3.47247 44.5075 3.48751 44.5878 3.51768 44.6628C3.57939 44.8147 3.69872 44.9359 3.84956 44.9999C4.0004 45.064 4.17047 45.0657 4.32256 45.0046L7.68194 43.6575C7.57767 43.4047 7.49017 43.1454 7.42002 42.8811L6.2419 42.9017Z" fill="#3E3E3E"/>
<path d="M3.51767 38.0926C3.48754 38.1676 3.4725 38.2477 3.47343 38.3285C3.47435 38.4093 3.49122 38.4891 3.52305 38.5634C3.55489 38.6376 3.60107 38.7048 3.65895 38.7612C3.71683 38.8176 3.78527 38.862 3.86034 38.8918L6.18378 39.8664L7.42187 39.8919C7.4944 39.6233 7.58497 39.3598 7.69296 39.1033L4.32255 37.7514C4.17053 37.6904 4.00054 37.692 3.84972 37.756C3.69891 37.8199 3.57953 37.9409 3.51767 38.0926Z" fill="#3E3E3E"/>
</svg>
