<svg width="50" height="51" viewBox="0 0 50 51" fill="none" xmlns="http://www.w3.org/2000/svg">
<path d="M19.0268 10.0918L19.4473 9.56855C21.85 6.56498 23.8669 3.94355 24.9223 2.55605C25.0719 2.36055 25.3515 2.32301 25.5473 2.47212C29.9044 5.86498 33.8723 12.0757 33.041 18.7221C32.7981 20.7151 32.2804 22.6649 31.5027 24.5159C29.94 25.1384 28.4684 25.9688 27.1277 26.9846C25.1313 28.4646 23.4788 30.3592 22.2839 32.5382C22.2709 32.5628 22.2592 32.5881 22.2491 32.6141C21.9853 33.1377 21.7603 33.6799 21.5759 34.2364C21.3973 33.9685 21.2098 33.7096 21.0134 33.456C20.4071 29.2596 19.7518 19.0453 25.7303 10.4123C25.9969 10.0072 25.8913 9.46342 25.4926 9.18742C25.0939 8.91143 24.5478 9.00413 24.2625 9.39623C18.8562 17.2016 18.5625 26.1694 18.9866 31.3784C17.8006 30.4225 16.4893 29.6337 15.0893 29.0337C10.5509 20.6123 15.641 14.29 19.0268 10.0918ZM4.41783 39.0168C3.33145 35.8604 2.07455 32.7654 0.652653 29.7453C0.595279 29.6193 0.599665 29.4737 0.664525 29.3513C0.729385 29.229 0.847372 29.1436 0.983903 29.1203C7.61962 28.0873 17.4705 29.8105 20.6268 36.1293C21.3447 37.6645 21.8785 39.2793 22.2169 40.94C19.5535 37.2034 14.958 33.3685 5.54462 31.3516C5.06235 31.248 4.58746 31.555 4.4839 32.0373C4.38035 32.5196 4.68735 32.9945 5.16962 33.098C17.7152 35.7864 20.9955 41.9427 22.3937 44.6453L22.4 44.6578V44.6641C22.4084 44.6851 22.418 44.7057 22.4285 44.7257C22.6542 45.1557 22.8554 45.598 23.0312 46.0507C23.0946 46.6552 23.1375 47.1668 23.166 47.5453C9.90176 50.7659 5.64194 42.69 4.41783 39.0168ZM45.5919 36.3043C43.2491 42.5543 34.3419 49.6641 24.958 47.5114C24.8946 46.5989 24.7402 44.8587 24.4071 42.84C25.1357 40.065 27.4875 32.3043 45.7518 27.7337C46.0678 27.6626 46.3205 27.4259 46.4121 27.1152C46.5038 26.8046 46.42 26.4686 46.1931 26.2374C45.9663 26.0062 45.632 25.9159 45.3196 26.0016C33.8393 28.8712 26.741 33.3319 23.7321 39.5793C23.4916 38.6132 23.1934 37.6624 22.8393 36.7319C22.9747 35.5561 23.3265 34.4155 23.8768 33.3677C23.8892 33.3445 23.9002 33.3207 23.9098 33.2962C24.9871 31.3741 26.4604 29.7027 28.2321 28.3927C29.5407 27.4029 30.9838 26.605 32.5178 26.023H32.525C38.5205 23.6694 45.9491 23.7909 49.1732 23.9837C49.3088 23.9911 49.4334 24.0606 49.5109 24.1721C49.5884 24.2836 49.61 24.4246 49.5696 24.5543C48.8687 26.8471 47.4384 31.3828 45.5919 36.3043Z" fill="#3E3E3E"/>
</svg>
