<svg width="50" height="51" viewBox="0 0 50 51" fill="none" xmlns="http://www.w3.org/2000/svg">
<path fill-rule="evenodd" clip-rule="evenodd" d="M17.3125 25.5219C21.2168 27.9428 21.0283 30.2318 20.1836 31.726C19.957 32.1263 19.4482 32.2679 19.0479 32.0404C18.6475 31.8138 18.5059 31.306 18.7324 30.9047C19.0244 30.39 19.7969 29.0228 16.4346 26.9388C15.457 26.3353 14.8857 25.5258 14.7402 24.5345C14.5625 23.3187 15.0508 21.8978 16.2266 20.224C11.7725 21.2162 9.0791 22.7426 8.20605 24.7738C7.47266 26.4779 8.01367 28.6908 9.81152 31.349C10.0693 31.7299 9.96973 32.2484 9.58887 32.5062C9.44629 32.6029 9.28418 32.6498 9.12305 32.6498C8.85547 32.6498 8.59277 32.5219 8.43164 32.2836C6.29492 29.1244 5.70312 26.3773 6.6748 24.1166C7.94043 21.1742 11.6963 19.225 18.1553 18.1586C18.5039 18.101 18.8496 18.2689 19.0215 18.5785C19.1914 18.8881 19.1484 19.2709 18.9141 19.5345C16.6279 22.1019 16.2793 23.5394 16.3896 24.2943C16.4355 24.6049 16.5811 25.0707 17.3125 25.5219ZM41.8467 38.3519H2.1709C0.975586 38.3519 0.00390625 39.3246 0.00390625 40.5199C0.00390625 41.7152 0.975586 42.6869 2.1709 42.6869H41.8467C43.042 42.6869 44.0137 41.7152 44.0137 40.5199C44.0137 39.3246 43.042 38.3519 41.8467 38.3519ZM45.2783 11.2836L42.583 13.9799C42.8408 14.1508 43.0996 14.3617 43.3574 14.6195C43.6152 14.8773 43.8262 15.1361 43.9971 15.3949L46.6934 12.6986C46.9727 12.4193 47.4082 12.3744 47.7383 12.5912C48.3125 12.9672 49.0811 12.8871 49.5674 12.4008C49.8438 12.1254 49.9961 11.7582 49.9961 11.3685C49.9961 10.9789 49.8438 10.6127 49.5674 10.3373C49.3447 10.1146 49.0635 9.97205 48.752 9.92615C48.3896 9.87244 48.1035 9.58728 48.0498 9.224C48.0039 8.91345 47.8623 8.63123 47.6387 8.40857C47.0693 7.84021 46.1445 7.83923 45.5762 8.40857C45.0889 8.8949 45.0107 9.66443 45.3857 10.2386C45.6025 10.5687 45.5566 11.0052 45.2783 11.2836ZM3.22559 20.9242C0.554687 26.4193 1.66113 32.4291 6.09766 36.6859H39.1123C41.9727 32.9164 42.873 29.2435 41.7998 25.7357C40.5508 30.1185 37.7051 33.3832 34.1279 34.4222C34.0498 34.4447 33.9717 34.4554 33.8945 34.4554C33.5332 34.4554 33.2012 34.2191 33.0938 33.8549C32.9658 33.4135 33.2207 32.9506 33.6611 32.8226C37.0391 31.8412 39.668 28.4193 40.5244 23.8929C40.7871 22.5033 41.3994 21.2875 41.9404 20.2152C42.9922 18.1244 43.4424 17.0629 42.1787 15.7992C40.9141 14.5355 39.8535 14.9857 37.7627 16.0385C36.6904 16.5785 35.4746 17.1908 34.085 17.4535C29.5586 18.3099 26.1357 20.9398 25.1543 24.3168C25.0264 24.7592 24.5635 25.0121 24.1221 24.8842C23.6807 24.7552 23.4268 24.2933 23.5547 23.851C24.626 20.1595 28.0703 17.2465 32.666 16.0638C29.248 14.1791 25.2002 12.7758 21.2949 12.1459C12.4531 10.7191 5.84766 15.5267 3.22559 20.9242Z" fill="#3E3E3E"/>
</svg>
