<svg width="76" height="76" viewBox="0 0 76 76" fill="none" xmlns="http://www.w3.org/2000/svg">
<g clip-path="url(#clip0_4550_3899)">
<path d="M68.6829 64.496C68.6362 63.9626 68.5743 63.4306 68.4967 62.9007C68.4966 62.9 68.1869 61.1809 68.1272 60.9187C67.4384 57.8969 65.561 55.6811 63.0246 53.9623C62.5502 53.6409 62.0579 53.362 61.5594 53.1001C60.9023 52.7546 50.9718 49.4912 50.7132 49.4102C50.7743 49.7497 50.816 50.1253 50.8298 50.5332C52.2125 51.5042 56.2883 55.0088 54.4375 61.5665C54.4375 61.5665 51.5115 58.0787 48.5265 57.6304C45.6834 62.5864 40.8436 68.8597 38.2368 70.5063C35.6302 68.8597 30.7904 62.5863 27.9473 57.6302C24.9621 58.0787 22.0363 61.5663 22.0363 61.5663C20.1855 55.0089 24.2612 51.5042 25.644 50.5332C25.6578 50.1253 25.6995 49.7497 25.7605 49.4102C25.502 49.4912 15.5713 52.7547 14.9143 53.0999C14.416 53.362 13.9236 53.6407 13.4491 53.9623C10.9128 55.6809 9.03526 57.8967 8.34659 60.9186C8.28675 61.1813 7.97712 62.9003 7.97712 62.9006C7.89955 63.4307 7.83753 63.9627 7.79087 64.4961C7.78888 64.5183 7.67764 67.2944 7.67773 67.3103C7.67773 67.3103 7.70637 68.6112 7.7225 68.9217C7.81164 70.6472 8.17361 72.252 9.43299 73.5891C11.0378 75.2924 12.9872 75.9897 15.2733 75.9884C22.9277 75.9849 30.5824 75.984 38.2368 75.9838C45.8916 75.984 53.5461 75.9849 61.2004 75.9884C63.4864 75.9898 65.4359 75.2924 67.0407 73.5891C68.3 72.252 68.6621 70.6474 68.7511 68.9217C68.7673 68.6112 68.796 67.3103 68.796 67.3103C68.7961 67.2944 68.685 64.5182 68.6829 64.496Z" fill="url(#paint0_linear_4550_3899)"/>
<path d="M20.2259 33.2861C20.4636 34.145 20.6158 34.9532 20.61 35.7205C20.608 35.9761 20.5884 36.2273 20.5487 36.4742C20.3338 37.2003 18.8038 39.6477 18.5595 40.0588C21.2555 42.9655 24.826 43.6397 28.3474 44.3817C29.3886 44.6009 30.4501 44.7327 31.5781 44.8786C31.9419 44.9447 32.3082 45.0127 32.6769 45.0829L30.8878 50.3127C30.8878 50.3127 30.8369 57.944 38.2142 62.5877H38.2604C45.6377 57.9437 45.5868 50.3127 45.5868 50.3127L43.7977 45.0831C44.1664 45.0129 44.5328 44.9449 44.8965 44.8788C46.0247 44.7328 47.086 44.6009 48.1272 44.3821C51.6487 43.6399 55.2191 42.9656 57.9152 40.0592C57.671 39.6478 56.1408 37.2005 55.9259 36.4744C55.8861 36.2274 55.8667 35.9763 55.8647 35.7206C55.8588 34.9534 56.011 34.1452 56.2486 33.2863C56.4746 32.4699 56.7348 31.6574 56.9829 30.841C58.1749 28.1849 58.8386 25.2361 58.8386 22.1306C58.8386 10.5831 49.6604 1.19985 38.2602 0.989893V0.988281C38.2524 0.988376 38.2448 0.98885 38.237 0.988945C38.2293 0.98885 38.2218 0.988471 38.214 0.988281V0.989704C26.8139 1.19966 17.6357 10.5829 17.6357 22.1304C17.6357 25.2357 18.2995 28.1846 19.4915 30.8409C19.7397 31.6572 20 32.4695 20.2259 33.2861Z" fill="url(#paint1_linear_4550_3899)"/>
</g>
<defs>
<linearGradient id="paint0_linear_4550_3899" x1="38.2369" y1="50.4546" x2="38.2369" y2="75.9885" gradientUnits="userSpaceOnUse">
<stop stop-color="#41A53D"/>
<stop offset="1" stop-color="#0A7542"/>
</linearGradient>
<linearGradient id="paint1_linear_4550_3899" x1="38.2372" y1="3.40888" x2="38.2372" y2="62.5877" gradientUnits="userSpaceOnUse">
<stop stop-color="#41A53D"/>
<stop offset="1" stop-color="#0A7542"/>
</linearGradient>
<clipPath id="clip0_4550_3899">
<rect width="75" height="75" fill="white" transform="translate(0.737305 0.988281)"/>
</clipPath>
</defs>
</svg>
