<svg width="76" height="76" viewBox="0 0 76 76" fill="none" xmlns="http://www.w3.org/2000/svg">
<g clip-path="url(#clip0_4550_3861)">
<path d="M72.3486 69.4699C72.3008 69.1443 72.224 68.8378 72.1188 68.5408C71.3621 65.6292 69.6285 60.3229 68.8432 57.9476C68.757 57.5357 68.6228 57.1334 68.4503 56.7599C68.4503 56.7503 68.4503 56.7503 68.4503 56.7503C67.9714 55.7159 67.1861 54.8539 66.2187 54.2792C66.1612 54.2409 66.0367 54.1737 65.8739 54.0876C65.8068 54.0588 65.7398 54.0206 65.6726 53.9919C63.7668 53.0915 57.9144 50.7544 57.9144 50.7544C54.9835 49.4902 51.957 48.4078 48.8632 47.3063C48.3077 49.605 43.0685 64.8629 42.2353 66.9795L41.5744 52.8041C41.7948 52.4689 41.948 52.0857 42.1205 51.7218L44.3041 47.402C42.7621 48.6854 40.4539 49.4996 37.8773 49.4996C35.3583 49.4996 33.098 48.7238 31.5558 47.4882L33.7013 51.7217C33.8737 52.0856 34.0269 52.4688 34.2472 52.804L33.5864 66.9794C32.7435 64.8627 27.4947 49.5954 26.9488 47.2966C23.8551 48.3981 20.8285 49.4804 17.8976 50.7447C17.8976 50.7447 12.0454 53.0913 10.1394 53.9821C10.0724 54.0108 10.0053 54.0396 9.93826 54.0779C9.77544 54.1545 9.65092 54.2215 9.59345 54.2694C8.62607 54.8538 7.84068 55.7158 7.36178 56.7501V56.7597C7.18937 57.1332 7.05528 57.5356 6.96908 57.9474C6.18368 60.3227 4.45006 65.6194 3.6934 68.5406C3.58804 68.8377 3.51142 69.1536 3.46353 69.4697C3.41564 69.7475 3.39648 70.0444 3.39648 70.3317C3.39648 73.4542 5.92508 75.9828 9.04751 75.9828H14.4399C22.1598 75.9828 29.8797 75.9923 37.5995 75.9828C37.7049 75.9828 37.8007 75.9828 37.906 75.9828C38.0114 75.9828 38.1072 75.9828 38.2125 75.9828C45.9324 75.9828 53.6522 75.9828 61.3722 75.9828H66.7646C69.887 75.9828 72.4156 73.4542 72.4156 70.3317C72.4156 70.0446 72.387 69.7477 72.3486 69.4699Z" fill="url(#paint0_linear_4550_3861)"/>
<path d="M52.6558 21.053C52.6558 20.0569 52.8474 16.4364 52.8474 15.6031C52.857 7.52884 46.3055 0.987061 38.2312 0.987061C38.2216 0.987061 38.2121 0.987061 38.2025 0.987061C38.193 0.987061 38.1833 0.987061 38.1737 0.987061C38.0779 0.987061 37.9917 0.987061 37.8959 0.987061C37.8002 0.987061 37.7141 0.987061 37.6183 0.987061C37.6086 0.987061 37.5991 0.987061 37.5895 0.987061C37.5799 0.987061 37.5704 0.987061 37.5607 0.987061C29.4865 0.987061 22.9351 7.53842 22.9351 15.6127C22.9351 16.446 23.1267 20.0569 23.1267 21.0626C22.7723 21.0817 19.4966 20.2963 19.851 24.2137C20.5981 32.5274 23.7684 30.9183 23.8642 30.9183C25.4254 35.9276 27.8486 39.1267 30.224 41.1668C33.9307 44.3467 37.5224 44.6915 37.5894 44.6915C37.6948 44.6915 37.7906 44.7012 37.8959 44.7012C37.9916 44.7012 38.0971 44.7012 38.2024 44.6915C38.2599 44.6915 41.8325 44.3467 45.52 41.2052C47.9048 39.1747 50.3472 35.966 51.9181 30.9184C52.0138 30.9184 55.1842 32.5275 55.9312 24.2138C56.2857 20.2867 53.0101 21.0721 52.6558 21.053Z" fill="url(#paint1_linear_4550_3861)"/>
</g>
<defs>
<linearGradient id="paint0_linear_4550_3861" x1="37.906" y1="48.424" x2="37.906" y2="75.987" gradientUnits="userSpaceOnUse">
<stop stop-color="#41A53D"/>
<stop offset="1" stop-color="#0A7542"/>
</linearGradient>
<linearGradient id="paint1_linear_4550_3861" x1="37.8911" y1="2.70484" x2="37.8911" y2="44.7012" gradientUnits="userSpaceOnUse">
<stop stop-color="#41A53D"/>
<stop offset="1" stop-color="#0A7542"/>
</linearGradient>
<clipPath id="clip0_4550_3861">
<rect width="75" height="75" fill="white" transform="translate(0.40625 0.987061)"/>
</clipPath>
</defs>
</svg>
