<svg width="80" height="81" viewBox="0 0 80 81" fill="none" xmlns="http://www.w3.org/2000/svg">
<circle cx="40" cy="40.7581" r="40" fill="#3E3E3E"/>
<path d="M66.9252 35.0951L62.9872 50.1452L62.9805 50.1787H66.0426L70.0007 35.0951H66.9252Z" fill="white"/>
<path d="M18.1639 43.6531C17.756 43.8671 17.2078 43.9941 16.6863 43.9941C15.5831 43.9941 14.9546 43.8202 14.8878 42.9243V42.8642C14.8878 42.8307 14.8811 42.7906 14.8811 42.7572V40.1563L14.8878 39.8488V38.0168H14.8811V37.2346L14.8878 36.927V35.1619L12.1465 35.5229C14.0052 35.1619 15.0683 33.6977 15.0683 32.2334V31.3375H11.9727V35.5497L11.7988 35.5965V43.399C11.8991 45.592 13.3433 46.8958 15.7168 46.8958C16.5526 46.8958 17.4752 46.7019 18.1839 46.3877L18.1973 46.381V43.6464L18.1639 43.6531Z" fill="white"/>
<path d="M18.645 34.5334L10 35.8573V38.0503L18.645 36.7131V34.5334Z" fill="white"/>
<path d="M18.645 37.7294L10 39.0666V41.1593L18.645 39.8221V37.7294Z" fill="white"/>
<path d="M28.3538 38.7391C28.2335 36.3054 26.7091 34.8612 24.2286 34.8612C22.8044 34.8612 21.6277 35.4095 20.8321 36.4525C20.0365 37.4888 19.6152 39.0199 19.6152 40.8719C19.6152 42.7239 20.0365 44.255 20.8321 45.2913C21.6277 46.3343 22.8044 46.8826 24.2286 46.8826C26.7091 46.8826 28.2268 45.4317 28.3538 42.9847V46.6553H31.4294V35.122L28.3471 35.5967M28.5143 40.8719C28.5143 43.0315 27.3843 44.4222 25.6326 44.4222C23.8274 44.4222 22.7443 43.0916 22.7443 40.8719C22.7443 38.6321 23.8207 37.3016 25.6326 37.3016C26.5085 37.3016 27.2439 37.6426 27.7521 38.2911C28.2468 38.933 28.5143 39.8222 28.5143 40.8719Z" fill="white"/>
<path d="M40.4153 34.8679C37.9348 34.8679 36.4104 36.3121 36.2901 38.7525V31.7656L33.2012 32.2403V46.662H36.2834V42.9914C36.4038 45.4451 37.9282 46.896 40.4087 46.896C43.3104 46.896 45.042 44.6495 45.042 40.8853C45.042 37.1211 43.3104 34.8679 40.4153 34.8679ZM39.018 44.4222C37.2662 44.4222 36.1296 43.0315 36.1296 40.8719C36.1296 39.8155 36.3904 38.9196 36.8918 38.2911C37.4 37.6426 38.1354 37.3016 39.0113 37.3016C40.8165 37.3016 41.8996 38.6388 41.8996 40.8719C41.8996 43.0984 40.8232 44.4222 39.018 44.4222Z" fill="white"/>
<path d="M53.4399 34.8679C50.9594 34.8679 49.435 36.3121 49.3147 38.7525V31.7656L46.2324 32.2403V46.662H49.3147V42.9914C49.435 45.4451 50.9594 46.896 53.4399 46.896C56.3416 46.896 58.0733 44.6495 58.0733 40.8853C58.0733 37.1211 56.3349 34.8679 53.4399 34.8679ZM52.0425 44.4222C50.2908 44.4222 49.1542 43.0315 49.1542 40.8719C49.1542 39.8155 49.4149 38.9196 49.9164 38.2911C50.4245 37.6426 51.16 37.3016 52.0359 37.3016C53.8411 37.3016 54.9242 38.6388 54.9242 40.8719C54.9242 43.0984 53.8478 44.4222 52.0425 44.4222Z" fill="white"/>
<path d="M58.0723 35.0951H61.3618L64.0362 46.6418H61.0943L58.0723 35.0951Z" fill="white"/>
</svg>
