<svg width="180" height="223" viewBox="0 0 180 223" fill="none" xmlns="http://www.w3.org/2000/svg">
<g filter="url(#filter0_d_5830_2430)">
<path d="M87.1849 165.912L76.537 172.079C74.8648 173.054 73.8357 174.847 73.8357 176.784V198.168C73.8357 200.105 74.8648 201.897 76.537 202.873L87.1849 209.04C88.8572 210.015 90.9296 210.015 92.6018 209.04L103.25 202.873C104.922 201.897 105.951 200.105 105.951 198.168V176.784C105.951 174.847 104.922 173.054 103.25 172.079L92.6018 165.912C90.9296 164.937 88.8572 164.937 87.1849 165.912Z" fill="white"/>
</g>
<path d="M179.643 83.0261V131.059C176.971 135.721 173.083 139.665 168.295 142.447L107.28 177.802C97.6899 183.367 85.87 183.367 76.2511 177.802L15.2362 142.447C7.14666 137.757 1.67261 129.697 0.143311 120.632V83.0261C0.143311 69.0708 11.4058 57.7688 25.3125 57.7688H154.474C168.381 57.7688 179.643 69.0708 179.643 83.0261Z" fill="url(#paint0_linear_5830_2430)"/>
<g filter="url(#filter1_d_5830_2430)">
<path d="M78.8952 10.8686L35.6174 35.9394C28.8142 39.8836 24.6122 47.1696 24.6122 55.0724V105.228C24.6122 113.117 28.7999 120.403 35.6174 124.361L78.8952 149.432C85.6985 153.376 94.0882 153.376 100.906 149.432L144.184 124.361C150.987 120.417 155.189 113.131 155.189 105.228V55.0724C155.189 47.184 151.001 39.8979 144.184 35.9394L100.906 10.8686C94.1025 6.92435 85.7128 6.92435 78.8952 10.8686Z" fill="white"/>
</g>
<g filter="url(#filter2_d_5830_2430)">
<path d="M84.2549 44.6886L62.1015 57.5252C58.6141 59.5475 56.4702 63.2766 56.4702 67.3212V92.9944C56.4702 97.039 58.6141 100.768 62.1015 102.79L84.2549 115.627C87.7423 117.649 92.0301 117.649 95.5174 115.627L117.671 102.79C121.158 100.768 123.302 97.039 123.302 92.9944V67.3212C123.302 63.2766 121.158 59.5475 117.671 57.5252L95.5174 44.6886C92.0301 42.6663 87.7423 42.6663 84.2549 44.6886Z" fill="url(#paint1_linear_5830_2430)"/>
</g>
<path d="M95.9099 67.0972V62.9835H101.106L99.6412 60.542L101.106 57.7688H95.1452H94.3851V67.0741L87.3923 76.9645L79.9618 71.7084L64.8706 92.9586H114.871L95.9099 67.0972Z" fill="white"/>
<defs>
<filter id="filter0_d_5830_2430" x="66.8357" y="158.18" width="52.1154" height="64.5911" filterUnits="userSpaceOnUse" color-interpolation-filters="sRGB">
<feFlood flood-opacity="0" result="BackgroundImageFix"/>
<feColorMatrix in="SourceAlpha" type="matrix" values="0 0 0 0 0 0 0 0 0 0 0 0 0 0 0 0 0 0 127 0" result="hardAlpha"/>
<feOffset dx="3" dy="3"/>
<feGaussianBlur stdDeviation="5"/>
<feColorMatrix type="matrix" values="0 0 0 0 0 0 0 0 0 0 0 0 0 0 0 0 0 0 0.15 0"/>
<feBlend mode="normal" in2="BackgroundImageFix" result="effect1_dropShadow_5830_2430"/>
<feBlend mode="normal" in="SourceGraphic" in2="effect1_dropShadow_5830_2430" result="shape"/>
</filter>
<filter id="filter1_d_5830_2430" x="17.6122" y="0.9104" width="150.577" height="164.48" filterUnits="userSpaceOnUse" color-interpolation-filters="sRGB">
<feFlood flood-opacity="0" result="BackgroundImageFix"/>
<feColorMatrix in="SourceAlpha" type="matrix" values="0 0 0 0 0 0 0 0 0 0 0 0 0 0 0 0 0 0 127 0" result="hardAlpha"/>
<feOffset dx="3" dy="3"/>
<feGaussianBlur stdDeviation="5"/>
<feColorMatrix type="matrix" values="0 0 0 0 0 0 0 0 0 0 0 0 0 0 0 0 0 0 0.15 0"/>
<feBlend mode="normal" in2="BackgroundImageFix" result="effect1_dropShadow_5830_2430"/>
<feBlend mode="normal" in="SourceGraphic" in2="effect1_dropShadow_5830_2430" result="shape"/>
</filter>
<filter id="filter2_d_5830_2430" x="49.4702" y="36.1719" width="86.8319" height="93.9719" filterUnits="userSpaceOnUse" color-interpolation-filters="sRGB">
<feFlood flood-opacity="0" result="BackgroundImageFix"/>
<feColorMatrix in="SourceAlpha" type="matrix" values="0 0 0 0 0 0 0 0 0 0 0 0 0 0 0 0 0 0 127 0" result="hardAlpha"/>
<feOffset dx="3" dy="3"/>
<feGaussianBlur stdDeviation="5"/>
<feColorMatrix type="matrix" values="0 0 0 0 0 0 0 0 0 0 0 0 0 0 0 0 0 0 0.15 0"/>
<feBlend mode="normal" in2="BackgroundImageFix" result="effect1_dropShadow_5830_2430"/>
<feBlend mode="normal" in="SourceGraphic" in2="effect1_dropShadow_5830_2430" result="shape"/>
</filter>
<linearGradient id="paint0_linear_5830_2430" x1="163.444" y1="165.967" x2="86.1438" y2="42.7514" gradientUnits="userSpaceOnUse">
<stop stop-color="#E17523"/>
<stop offset="1" stop-color="#ECB74B"/>
</linearGradient>
<linearGradient id="paint1_linear_5830_2430" x1="117.271" y1="107.609" x2="66.1397" y2="56.6569" gradientUnits="userSpaceOnUse">
<stop stop-color="#E17523"/>
<stop offset="1" stop-color="#ECB74B"/>
</linearGradient>
</defs>
</svg>
