<svg width="180" height="223" viewBox="0 0 180 223" fill="none" xmlns="http://www.w3.org/2000/svg">
<g filter="url(#filter0_d_5830_2432)">
<path d="M87.5182 165.912L76.8702 172.079C75.198 173.054 74.1689 174.847 74.1689 176.784V198.168C74.1689 200.105 75.198 201.897 76.8702 202.873L87.5182 209.04C89.1904 210.015 91.2628 210.015 92.9351 209.04L103.583 202.873C105.255 201.897 106.284 200.105 106.284 198.168V176.784C106.284 174.847 105.255 173.054 103.583 172.079L92.9351 165.912C91.2628 164.937 89.1904 164.937 87.5182 165.912Z" fill="white"/>
</g>
<path d="M179.977 83.0261V131.059C177.304 135.721 173.416 139.665 168.628 142.447L107.613 177.802C98.0232 183.367 86.2032 183.367 76.5844 177.802L15.5695 142.447C7.47991 137.757 2.00586 129.697 0.476562 120.632V83.0261C0.476562 69.0708 11.7391 57.7688 25.6457 57.7688H154.807C168.714 57.7688 179.977 69.0708 179.977 83.0261Z" fill="url(#paint0_linear_5830_2432)"/>
<g filter="url(#filter1_d_5830_2432)">
<path d="M79.2285 10.8686L35.9507 35.9394C29.1474 39.8836 24.9454 47.1696 24.9454 55.0724V105.228C24.9454 113.117 29.1331 120.403 35.9507 124.361L79.2285 149.432C86.0318 153.376 94.4215 153.376 101.239 149.432L144.517 124.361C151.32 120.417 155.522 113.131 155.522 105.228V55.0724C155.522 47.184 151.334 39.8979 144.517 35.9394L101.239 10.8686C94.4358 6.92435 86.046 6.92435 79.2285 10.8686Z" fill="white"/>
</g>
<g filter="url(#filter2_d_5830_2432)">
<path d="M84.5882 44.6886L62.4347 57.5252C58.9473 59.5475 56.8035 63.2766 56.8035 67.3212V92.9944C56.8035 97.039 58.9473 100.768 62.4347 102.79L84.5882 115.627C88.0755 117.649 92.3633 117.649 95.8507 115.627L118.004 102.79C121.492 100.768 123.635 97.039 123.635 92.9944V67.3212C123.635 63.2766 121.492 59.5475 118.004 57.5252L95.8507 44.6886C92.3633 42.6663 88.0755 42.6663 84.5882 44.6886Z" fill="url(#paint1_linear_5830_2432)"/>
</g>
<path d="M113.808 88.8618C113.304 88.3254 112.545 88.1118 111.836 88.3118L99.6947 92.4028C97.7493 93.0573 95.6538 93.1118 93.6811 92.5527L80.5493 89.8345L89.3856 87.8209C90.6584 87.4936 91.5538 86.3481 91.5538 85.0299C91.5538 83.439 90.2629 82.1526 88.6766 82.1526H81.2993C79.9356 82.1526 78.5902 82.4344 77.3402 82.9753L72.7856 84.9572V98.171L92.6766 99.762C95.9538 100.026 99.2402 99.3483 102.149 97.8165L113.295 91.9391C114.44 91.3346 114.699 89.8027 113.813 88.8572H113.808V88.8618Z" fill="white"/>
<path d="M70.3311 83.448H64.7266V99.4619H70.3311V83.448Z" fill="white"/>
<path d="M86.5267 60.4978L80.3403 67.0934L97.5358 84.2845L102.286 79.5345L114.727 67.0934L108.545 60.4978H86.5267Z" fill="white"/>
<defs>
<filter id="filter0_d_5830_2432" x="67.1689" y="158.18" width="52.1152" height="64.5911" filterUnits="userSpaceOnUse" color-interpolation-filters="sRGB">
<feFlood flood-opacity="0" result="BackgroundImageFix"/>
<feColorMatrix in="SourceAlpha" type="matrix" values="0 0 0 0 0 0 0 0 0 0 0 0 0 0 0 0 0 0 127 0" result="hardAlpha"/>
<feOffset dx="3" dy="3"/>
<feGaussianBlur stdDeviation="5"/>
<feColorMatrix type="matrix" values="0 0 0 0 0 0 0 0 0 0 0 0 0 0 0 0 0 0 0.15 0"/>
<feBlend mode="normal" in2="BackgroundImageFix" result="effect1_dropShadow_5830_2432"/>
<feBlend mode="normal" in="SourceGraphic" in2="effect1_dropShadow_5830_2432" result="shape"/>
</filter>
<filter id="filter1_d_5830_2432" x="17.9454" y="0.9104" width="150.577" height="164.48" filterUnits="userSpaceOnUse" color-interpolation-filters="sRGB">
<feFlood flood-opacity="0" result="BackgroundImageFix"/>
<feColorMatrix in="SourceAlpha" type="matrix" values="0 0 0 0 0 0 0 0 0 0 0 0 0 0 0 0 0 0 127 0" result="hardAlpha"/>
<feOffset dx="3" dy="3"/>
<feGaussianBlur stdDeviation="5"/>
<feColorMatrix type="matrix" values="0 0 0 0 0 0 0 0 0 0 0 0 0 0 0 0 0 0 0.15 0"/>
<feBlend mode="normal" in2="BackgroundImageFix" result="effect1_dropShadow_5830_2432"/>
<feBlend mode="normal" in="SourceGraphic" in2="effect1_dropShadow_5830_2432" result="shape"/>
</filter>
<filter id="filter2_d_5830_2432" x="49.8035" y="36.1719" width="86.832" height="93.9719" filterUnits="userSpaceOnUse" color-interpolation-filters="sRGB">
<feFlood flood-opacity="0" result="BackgroundImageFix"/>
<feColorMatrix in="SourceAlpha" type="matrix" values="0 0 0 0 0 0 0 0 0 0 0 0 0 0 0 0 0 0 127 0" result="hardAlpha"/>
<feOffset dx="3" dy="3"/>
<feGaussianBlur stdDeviation="5"/>
<feColorMatrix type="matrix" values="0 0 0 0 0 0 0 0 0 0 0 0 0 0 0 0 0 0 0.15 0"/>
<feBlend mode="normal" in2="BackgroundImageFix" result="effect1_dropShadow_5830_2432"/>
<feBlend mode="normal" in="SourceGraphic" in2="effect1_dropShadow_5830_2432" result="shape"/>
</filter>
<linearGradient id="paint0_linear_5830_2432" x1="163.777" y1="165.967" x2="86.477" y2="42.7514" gradientUnits="userSpaceOnUse">
<stop stop-color="#4E7FD1"/>
<stop offset="1" stop-color="#41B0EE"/>
</linearGradient>
<linearGradient id="paint1_linear_5830_2432" x1="117.604" y1="107.609" x2="66.473" y2="56.6569" gradientUnits="userSpaceOnUse">
<stop stop-color="#4E7FD1"/>
<stop offset="1" stop-color="#41B0EE"/>
</linearGradient>
</defs>
</svg>
