<svg width="180" height="223" viewBox="0 0 180 223" fill="none" xmlns="http://www.w3.org/2000/svg">
<g filter="url(#filter0_d_5830_2433)">
<path d="M87.1849 165.912L76.537 172.079C74.8648 173.054 73.8357 174.847 73.8357 176.784V198.168C73.8357 200.105 74.8648 201.897 76.537 202.873L87.1849 209.04C88.8572 210.015 90.9296 210.015 92.6018 209.04L103.25 202.873C104.922 201.897 105.951 200.105 105.951 198.168V176.784C105.951 174.847 104.922 173.054 103.25 172.079L92.6018 165.912C90.9296 164.937 88.8572 164.937 87.1849 165.912Z" fill="white"/>
</g>
<path d="M179.643 83.0261V131.059C176.971 135.721 173.083 139.665 168.295 142.447L107.28 177.802C97.6899 183.367 85.87 183.367 76.2511 177.802L15.2362 142.447C7.14666 137.757 1.67261 129.697 0.143311 120.632V83.0261C0.143311 69.0708 11.4058 57.7688 25.3125 57.7688H154.474C168.381 57.7688 179.643 69.0708 179.643 83.0261Z" fill="url(#paint0_linear_5830_2433)"/>
<g filter="url(#filter1_d_5830_2433)">
<path d="M78.8954 10.8686L35.6176 35.9394C28.8143 39.8836 24.6123 47.1696 24.6123 55.0724V105.228C24.6123 113.117 28.8 120.403 35.6176 124.361L78.8954 149.432C85.6986 153.376 94.0883 153.376 100.906 149.432L144.184 124.361C150.987 120.417 155.189 113.131 155.189 105.228V55.0724C155.189 47.184 151.001 39.8979 144.184 35.9394L100.906 10.8686C94.1026 6.92435 85.7129 6.92435 78.8954 10.8686Z" fill="white"/>
</g>
<g filter="url(#filter2_d_5830_2433)">
<path d="M84.2549 44.6886L62.1015 57.5252C58.6141 59.5475 56.4702 63.2766 56.4702 67.3212V92.9944C56.4702 97.039 58.6141 100.768 62.1015 102.79L84.2549 115.627C87.7423 117.649 92.0301 117.649 95.5174 115.627L117.671 102.79C121.158 100.768 123.302 97.039 123.302 92.9944V67.3212C123.302 63.2766 121.158 59.5475 117.671 57.5252L95.5174 44.6886C92.0301 42.6663 87.7423 42.6663 84.2549 44.6886Z" fill="url(#paint1_linear_5830_2433)"/>
</g>
<path d="M100.576 77.9895L100.379 77.5681L98.1784 79.7691L98.2479 79.9614C98.6038 80.9515 98.7879 81.9947 98.7879 83.0625C98.7879 88.1641 94.6396 92.3165 89.534 92.3165C84.4284 92.3165 80.2883 88.1641 80.2883 83.0625C80.2883 77.9609 84.4366 73.8166 89.534 73.8166C90.565 73.8166 91.5714 73.9843 92.5205 74.3157L92.7128 74.3812L94.9301 72.1638L94.5005 71.9715C92.9419 71.2801 91.2277 70.916 89.5381 70.916C82.8411 70.916 77.3918 76.3654 77.3918 83.0625C77.3918 89.7596 82.8411 95.2171 89.5381 95.2171C96.2351 95.2171 101.693 89.7637 101.693 83.0625C101.693 81.3156 101.308 79.5605 100.58 77.9854H100.576V77.9895Z" fill="white"/>
<path d="M106.054 72.45L105.837 72.1145L104.016 73.9351L104.147 74.1519C105.783 76.8316 106.651 79.9122 106.651 83.0705C106.651 92.5168 98.9719 100.2 89.5298 100.2C80.0877 100.2 72.4089 92.5168 72.4089 83.0705C72.4089 73.6241 80.0877 65.9493 89.5298 65.9493C92.6513 65.9493 95.6991 66.7961 98.3501 68.3998L98.5669 68.5307L100.392 66.7102L100.052 66.4934C96.91 64.4969 93.2731 63.4414 89.5339 63.4414C78.7091 63.4414 69.897 72.2455 69.897 83.0705C69.897 93.8955 78.705 102.708 89.5339 102.708C100.363 102.708 109.171 93.8996 109.171 83.0705C109.171 79.2862 108.095 75.6124 106.058 72.45H106.054Z" fill="white"/>
<path d="M114.686 63.8874L111.094 67.463C110.93 67.6267 110.68 67.7126 110.447 67.6799L106.659 67.1521C106.561 67.1357 106.479 67.103 106.393 67.0539L93.4695 79.9777C93.1708 79.6627 92.8558 79.364 92.4917 79.1186L105.383 66.2275C105.284 66.1293 105.219 65.9943 105.203 65.8307L104.658 62.0423C104.626 61.8091 104.708 61.5637 104.875 61.3959L108.467 57.8203C108.913 57.3744 109.674 57.6198 109.756 58.2499L110.202 61.4123L112.566 59.0476C112.816 58.7981 113.229 58.7981 113.491 59.0476C113.741 59.2972 113.741 59.7104 113.491 59.9559L111.274 62.1732L114.236 62.5864C114.866 62.6846 115.111 63.4456 114.681 63.8956V63.8874H114.686Z" fill="white"/>
<path d="M89.7957 86.589C91.7659 86.589 93.363 84.9918 93.363 83.0215C93.363 81.0513 91.7659 79.4541 89.7957 79.4541C87.8254 79.4541 86.2283 81.0513 86.2283 83.0215C86.2283 84.9918 87.8254 86.589 89.7957 86.589Z" fill="white"/>
<defs>
<filter id="filter0_d_5830_2433" x="66.8357" y="158.18" width="52.1152" height="64.5911" filterUnits="userSpaceOnUse" color-interpolation-filters="sRGB">
<feFlood flood-opacity="0" result="BackgroundImageFix"/>
<feColorMatrix in="SourceAlpha" type="matrix" values="0 0 0 0 0 0 0 0 0 0 0 0 0 0 0 0 0 0 127 0" result="hardAlpha"/>
<feOffset dx="3" dy="3"/>
<feGaussianBlur stdDeviation="5"/>
<feColorMatrix type="matrix" values="0 0 0 0 0 0 0 0 0 0 0 0 0 0 0 0 0 0 0.15 0"/>
<feBlend mode="normal" in2="BackgroundImageFix" result="effect1_dropShadow_5830_2433"/>
<feBlend mode="normal" in="SourceGraphic" in2="effect1_dropShadow_5830_2433" result="shape"/>
</filter>
<filter id="filter1_d_5830_2433" x="17.6123" y="0.9104" width="150.577" height="164.48" filterUnits="userSpaceOnUse" color-interpolation-filters="sRGB">
<feFlood flood-opacity="0" result="BackgroundImageFix"/>
<feColorMatrix in="SourceAlpha" type="matrix" values="0 0 0 0 0 0 0 0 0 0 0 0 0 0 0 0 0 0 127 0" result="hardAlpha"/>
<feOffset dx="3" dy="3"/>
<feGaussianBlur stdDeviation="5"/>
<feColorMatrix type="matrix" values="0 0 0 0 0 0 0 0 0 0 0 0 0 0 0 0 0 0 0.15 0"/>
<feBlend mode="normal" in2="BackgroundImageFix" result="effect1_dropShadow_5830_2433"/>
<feBlend mode="normal" in="SourceGraphic" in2="effect1_dropShadow_5830_2433" result="shape"/>
</filter>
<filter id="filter2_d_5830_2433" x="49.4702" y="36.1719" width="86.832" height="93.9719" filterUnits="userSpaceOnUse" color-interpolation-filters="sRGB">
<feFlood flood-opacity="0" result="BackgroundImageFix"/>
<feColorMatrix in="SourceAlpha" type="matrix" values="0 0 0 0 0 0 0 0 0 0 0 0 0 0 0 0 0 0 127 0" result="hardAlpha"/>
<feOffset dx="3" dy="3"/>
<feGaussianBlur stdDeviation="5"/>
<feColorMatrix type="matrix" values="0 0 0 0 0 0 0 0 0 0 0 0 0 0 0 0 0 0 0.15 0"/>
<feBlend mode="normal" in2="BackgroundImageFix" result="effect1_dropShadow_5830_2433"/>
<feBlend mode="normal" in="SourceGraphic" in2="effect1_dropShadow_5830_2433" result="shape"/>
</filter>
<linearGradient id="paint0_linear_5830_2433" x1="154.331" y1="165.352" x2="71.6181" y2="82.9279" gradientUnits="userSpaceOnUse">
<stop stop-color="#36527D"/>
<stop offset="1" stop-color="#4D76A9"/>
</linearGradient>
<linearGradient id="paint1_linear_5830_2433" x1="117.271" y1="107.609" x2="66.1397" y2="56.6569" gradientUnits="userSpaceOnUse">
<stop stop-color="#36527D"/>
<stop offset="1" stop-color="#4D76A9"/>
</linearGradient>
</defs>
</svg>
