<svg width="244" height="201" viewBox="0 0 244 201" fill="none" xmlns="http://www.w3.org/2000/svg">
<g clip-path="url(#clip0_7850_226)">
<path d="M213.655 115.846C213.655 115.846 213.052 111.425 209.035 106.401C205.019 101.377 193.159 100.169 193.159 100.169C193.159 100.169 194.367 107.803 197.779 112.223C201.192 116.644 213.655 115.841 213.655 115.841V115.846Z" fill="#ecffeb"/>
<path d="M217.023 115.846C217.023 115.846 217.627 111.425 221.643 106.401C225.66 101.377 237.519 100.169 237.519 100.169C237.519 100.169 236.312 107.803 232.899 112.223C229.486 116.644 217.023 115.841 217.023 115.841V115.846Z" fill="#ecffeb"/>
<path d="M215.591 109.08C215.591 109.08 218.804 105.463 220.431 99.0468C222.062 92.6255 215.846 83.53 215.846 83.53C215.846 83.53 210.397 89.8864 208.891 95.4545C207.384 101.023 215.586 109.085 215.586 109.085L215.591 109.08Z" fill="#ecffeb"/>
<path d="M215.002 101.581V167.874" stroke="#3e3e3e" stroke-miterlimit="10"/>
<path d="M229.945 106.84L214.793 117.153L201.322 107.893" stroke="#3e3e3e" stroke-miterlimit="10"/>
<path d="M213.655 131.632C213.655 131.632 213.052 127.211 209.035 122.187C205.019 117.163 193.159 115.96 193.159 115.96C193.159 115.96 194.367 123.594 197.779 128.015C201.192 132.435 213.655 131.632 213.655 131.632Z" fill="#ecffeb"/>
<path d="M217.023 131.632C217.023 131.632 217.627 127.211 221.643 122.187C225.66 117.163 237.519 115.96 237.519 115.96C237.519 115.96 236.312 123.594 232.899 128.015C229.486 132.435 217.023 131.632 217.023 131.632Z" fill="#ecffeb"/>
<path d="M229.945 122.417L214.793 132.73L201.322 123.469" stroke="#3e3e3e" stroke-miterlimit="10"/>
<path d="M213.655 148.466C213.655 148.466 213.052 144.045 209.035 139.021C205.019 133.997 193.159 132.794 193.159 132.794C193.159 132.794 194.367 140.428 197.779 144.849C201.192 149.269 213.655 148.466 213.655 148.466Z" fill="#ecffeb"/>
<path d="M217.023 148.466C217.023 148.466 217.627 144.045 221.643 139.021C225.66 133.997 237.519 132.794 237.519 132.794C237.519 132.794 236.312 140.428 232.899 144.849C229.486 149.269 217.023 148.466 217.023 148.466Z" fill="#ecffeb"/>
<path d="M229.945 139.25L214.793 149.563L201.322 140.303" stroke="#3e3e3e" stroke-miterlimit="10"/>
<path d="M213.655 165.305C213.655 165.305 213.052 160.884 209.035 155.86C205.019 150.836 193.159 149.633 193.159 149.633C193.159 149.633 194.367 157.267 197.779 161.687C201.192 166.108 213.655 165.305 213.655 165.305Z" fill="#ecffeb"/>
<path d="M217.023 165.305C217.023 165.305 217.627 160.884 221.643 155.86C225.66 150.836 237.519 149.633 237.519 149.633C237.519 149.633 236.312 157.267 232.899 161.687C229.486 166.108 217.023 165.305 217.023 165.305Z" fill="#ecffeb"/>
<path d="M229.945 156.089L214.793 166.402L201.322 157.142" stroke="#3e3e3e" stroke-miterlimit="10"/>
<path d="M14.1183 167.49H232.709" stroke="#3e3e3e" stroke-miterlimit="10"/>
<path d="M232.889 173.732H10.7755L11.8382 171.192H231.826L232.889 173.732ZM235.778 180.632H7.88665L6.7441 183.356H236.92L235.778 180.632ZM240.792 192.601H2.87241L0.652168 197.9H243.012L240.792 192.601Z" fill="#ecffeb"/>
<path opacity="0.31" d="M232.889 173.732H10.7755L11.8382 171.192H231.826L232.889 173.732ZM235.778 180.632H7.88665L6.7441 183.356H236.92L235.778 180.632ZM240.792 192.601H2.87241L0.652168 197.9H243.012L240.792 192.601Z" fill="white"/>
<path d="M234.546 200.24H230.205L218.201 167.934H222.057L234.541 200.24H234.546ZM190.47 167.939H186.613L194.681 200.245H199.022L190.475 167.939H190.47ZM158.883 167.939H155.026L159.157 200.245H163.498L158.883 167.939ZM127.291 167.939H123.434L123.633 200.245H127.974L127.296 167.939H127.291ZM95.6983 167.939H91.8416L88.1046 200.245H92.4453L95.6983 167.939ZM64.1061 167.939H60.2494L52.5808 200.245H56.9215L64.1111 167.939H64.1061ZM32.5138 167.939H28.6571L17.052 200.245H21.3927L32.5138 167.939Z" fill="#ecffeb"/>
<path opacity="0.31" d="M234.546 200.24H230.205L218.201 167.934H222.057L234.541 200.24H234.546ZM190.47 167.939H186.613L194.681 200.245H199.022L190.475 167.939H190.47ZM158.883 167.939H155.026L159.157 200.245H163.498L158.883 167.939ZM127.291 167.939H123.434L123.633 200.245H127.974L127.296 167.939H127.291ZM95.6983 167.939H91.8416L88.1046 200.245H92.4453L95.6983 167.939ZM64.1061 167.939H60.2494L52.5808 200.245H56.9215L64.1111 167.939H64.1061ZM32.5138 167.939H28.6571L17.052 200.245H21.3927L32.5138 167.939Z" fill="white"/>
<g opacity="0.17">
<path d="M187.427 171.192L188.06 173.732H192.007L191.333 171.192H187.427Z" fill="black"/>
<path d="M26.5766 173.732H30.5231L31.3962 171.192H27.4896L26.5766 173.732Z" fill="black"/>
<path d="M155.765 173.732H159.706L159.347 171.192H155.44L155.765 173.732Z" fill="black"/>
<path d="M91.1681 173.732H95.1146L95.369 171.192H91.4624L91.1681 173.732Z" fill="black"/>
<path d="M123.469 173.732H127.41L127.355 171.192H123.449L123.469 173.732Z" fill="black"/>
<path d="M193.833 180.632H189.787L190.465 183.356H194.551L193.833 180.632Z" fill="black"/>
<path d="M56.5872 183.356H60.6734L61.2821 180.632H57.2358L56.5872 183.356Z" fill="black"/>
<path d="M94.4211 180.632H90.3698L90.0554 183.356H94.1467L94.4211 180.632Z" fill="black"/>
<path d="M160.694 180.632H156.648L156.997 183.356H161.083L160.694 180.632Z" fill="black"/>
<path d="M127.555 180.632H123.509L123.524 183.356H127.615L127.555 180.632Z" fill="black"/>
<path d="M58.8723 173.732H62.8188L63.3826 171.192H59.476L58.8723 173.732Z" fill="black"/>
<path d="M231.592 192.601H227.371L229.337 197.905H233.642L231.592 192.601Z" fill="black"/>
<path d="M197.001 192.601H192.775L194.097 197.905H198.403L197.001 192.601Z" fill="black"/>
<path d="M222.92 180.632L223.933 183.356H228.02L226.967 180.632H222.92Z" fill="black"/>
<path d="M219.413 171.192L220.356 173.732H224.303L223.32 171.192H219.413Z" fill="black"/>
<path d="M162.405 192.601H158.179L158.858 197.905H163.159L162.405 192.601Z" fill="black"/>
<path d="M127.809 192.601H123.584L123.613 197.905H127.919L127.809 192.601Z" fill="black"/>
<path d="M58.6179 192.601H54.3919L53.1346 197.905H57.4404L58.6179 192.601Z" fill="black"/>
<path d="M27.2052 183.356L28.1432 180.632H24.0969L23.119 183.356H27.2052Z" fill="black"/>
<path d="M22.196 197.905L24.022 192.601H19.7961L17.8952 197.905H22.196Z" fill="black"/>
<path d="M93.2137 192.601H88.9877L88.374 197.905H92.6798L93.2137 192.601Z" fill="black"/>
</g>
<path d="M119.053 4.76394C119.053 4.76394 117.437 -0.464843 105.852 2.64848C94.2714 5.7618 88.7881 24.8159 86.4232 27.6798C84.0583 30.5437 78.8245 38.8858 82.312 47.1081C85.7995 55.3255 91.5273 57.8202 96.2621 60.8088C100.997 63.7973 104.355 66.1623 104.604 66.5365C104.854 66.9107 92.2757 65.5386 91.4025 70.8971C90.5294 76.2506 94.2664 79.2392 94.2664 79.2392C94.2664 79.2392 90.2799 79.364 87.6655 82.8515C85.0511 86.339 85.9243 89.0781 93.0191 90.2007C100.119 91.3233 126.023 90.2007 126.023 90.2007V71.6455C126.023 71.6455 144.578 65.7931 152.052 59.4417C159.526 53.0903 162.39 47.8615 159.776 41.7596C157.161 35.6577 148.57 20.8395 146.2 16.3541C143.835 11.8687 139.724 4.52446 131.881 3.02767C124.033 1.53088 120.794 3.1524 119.053 4.76893V4.76394Z" fill="#3e3e3e" stroke="#3e3e3e" stroke-miterlimit="10"/>
<path d="M109.589 19.7418C106.934 23.7931 103.601 28.4881 100.109 32.4047C92.0911 41.4054 83.9036 45.3319 85.8694 48.9342C87.8352 52.5365 92.0911 51.5536 92.0911 51.5536" stroke="#858585" stroke-miterlimit="10"/>
<path d="M115.331 10.307C115.331 10.307 113.695 13.2806 111.115 17.3669" stroke="#858585" stroke-miterlimit="10"/>
<path d="M158.389 43.5259C158.878 45.1674 158.873 46.724 158.214 48.111" stroke="#858585" stroke-miterlimit="10"/>
<path d="M119.747 8.50598C119.747 8.50598 129.401 20.7797 139.06 25.5295C145.801 28.8424 154.058 35.1888 157.316 41.0562" stroke="#858585" stroke-miterlimit="10"/>
<path d="M88.7133 34.0612C83.6492 39.0405 81.9029 41.6499 83.744 45.8209" stroke="#858585" stroke-miterlimit="10"/>
<path d="M108.785 6.70483C108.785 6.70483 104.529 18.8139 94.8751 28.1439C93.2685 29.6955 91.8216 31.0676 90.5344 32.2999" stroke="#858585" stroke-miterlimit="10"/>
<path d="M135.194 15.8202C138.956 19.2828 143.96 23.6734 147.572 26.0183C154.118 30.2742 155.59 34.5301 155.59 34.5301" stroke="#858585" stroke-miterlimit="10"/>
<path d="M129.895 10.796C129.895 10.796 131.262 12.1431 133.323 14.079" stroke="#858585" stroke-miterlimit="10"/>
<path d="M105.363 82.8715C105.363 82.8715 85.0561 87.2371 79.7425 90.6498C74.4289 94.0675 45.3164 132.745 44.3684 133.508C43.4204 134.266 36.4005 149.449 46.6435 154.004C56.8915 158.559 73.2864 147.772 73.2864 147.772L84.672 123.864C84.672 123.864 87.9 149.104 88.848 154.228C89.796 159.352 85.4303 167.51 85.4303 167.51H167.41C167.41 167.51 164.561 152.138 165.324 149.294C166.082 146.445 169.879 125.764 169.879 125.764L182.402 143.601L207.454 138.288C207.454 138.288 175.762 97.2955 171.586 92.5507C167.41 87.8059 166.462 87.6163 159.062 85.5308C151.663 83.4452 137.05 81.5443 137.05 81.5443L105.358 82.8715H105.363Z" fill="#ecffeb" stroke="#3e3e3e" stroke-miterlimit="10"/>
<g opacity="0.39">
<path d="M165.668 156.399C164.541 157.082 163.563 157.876 162.595 158.659C160.2 160.595 157.94 162.426 153.37 162.426C148.799 162.426 146.534 160.595 144.144 158.659C141.585 156.588 138.941 154.443 133.662 154.443C128.383 154.443 125.739 156.583 123.179 158.659C120.785 160.595 118.524 162.426 113.954 162.426C109.384 162.426 107.119 160.595 104.729 158.659C102.169 156.588 99.5251 154.443 94.2464 154.443C92.116 154.443 90.4197 154.797 88.9827 155.346C89.0177 156.06 88.9728 156.808 88.868 157.571C90.2949 156.883 91.9863 156.439 94.2464 156.439C98.8216 156.439 101.082 158.27 103.472 160.206C106.031 162.276 108.676 164.422 113.954 164.422C119.233 164.422 121.882 162.281 124.437 160.206C126.832 158.27 129.092 156.439 133.662 156.439C138.232 156.439 140.497 158.27 142.887 160.206C145.447 162.276 148.091 164.422 153.37 164.422C158.648 164.422 161.298 162.281 163.852 160.206C164.546 159.642 165.229 159.093 165.963 158.589C165.858 157.856 165.758 157.117 165.668 156.399Z" fill="white"/>
<path d="M187.192 142.583L191.872 141.591C187.906 141.361 185.79 139.655 183.565 137.849C181.439 136.127 179.249 134.361 175.542 133.812L177.273 136.277C179.319 136.98 180.786 138.168 182.308 139.4C183.754 140.573 185.231 141.765 187.192 142.583Z" fill="white"/>
<path d="M65.3035 148.251C62.744 146.181 60.0997 144.035 54.821 144.035C49.5423 144.035 46.893 146.176 44.3385 148.251C43.645 148.815 42.9564 149.369 42.223 149.873C42.5174 150.462 42.8816 151.02 43.3157 151.544C44.1189 150.99 44.8623 150.397 45.5908 149.803C47.9856 147.867 50.2458 146.036 54.816 146.036C59.3862 146.036 61.6513 147.867 64.0412 149.803C64.7697 150.392 65.5031 150.985 66.3014 151.534C67.0548 151.19 67.7732 150.846 68.4318 150.516C67.2893 149.868 66.3014 149.074 65.2935 148.256L65.3035 148.251Z" fill="white"/>
<path d="M74.5287 102.005C79.8074 102.005 82.4567 99.865 85.0112 97.7895C87.4061 95.8536 89.6663 94.0226 94.2365 94.0226C98.8067 94.0226 101.072 95.8536 103.462 97.7895C106.021 99.86 108.666 102.005 113.944 102.005C119.223 102.005 121.872 99.865 124.427 97.7895C126.822 95.8536 129.082 94.0226 133.652 94.0226C138.222 94.0226 140.487 95.8536 142.877 97.7895C145.437 99.86 148.081 102.005 153.36 102.005C158.638 102.005 161.288 99.865 163.842 97.7895C166.192 95.8886 168.417 94.0924 172.828 94.0276C172.299 93.3789 171.875 92.875 171.586 92.5457C171.456 92.401 171.331 92.2563 171.211 92.1216C167.13 92.5607 164.83 94.4267 162.59 96.2378C160.195 98.1737 157.935 100.005 153.365 100.005C148.794 100.005 146.529 98.1737 144.139 96.2378C141.58 94.1672 138.936 92.0219 133.657 92.0219C128.378 92.0219 125.734 94.1623 123.174 96.2378C120.78 98.1737 118.519 100.005 113.949 100.005C109.379 100.005 107.114 98.1737 104.724 96.2378C102.164 94.1672 99.5201 92.0219 94.2414 92.0219C88.9628 92.0219 86.3184 94.1623 83.7589 96.2378C81.3641 98.1737 79.1039 100.005 74.5337 100.005C73.3014 100.005 72.2436 99.87 71.3007 99.6355C70.8416 100.179 70.3726 100.743 69.8987 101.317C71.2009 101.736 72.7076 102 74.5337 102L74.5287 102.005Z" fill="white"/>
<path d="M103.467 87.3917C106.026 89.4623 108.671 91.6077 113.949 91.6077C119.228 91.6077 121.877 89.4673 124.432 87.3917C126.827 85.4559 129.087 83.6248 133.657 83.6248C138.227 83.6248 140.492 85.4559 142.882 87.3917C145.442 89.4623 148.086 91.6077 153.365 91.6077C158.643 91.6077 161.293 89.4673 163.847 87.3917C163.982 87.282 164.112 87.1772 164.246 87.0724C163.578 86.8379 162.824 86.6084 161.956 86.354C159.781 88.0902 157.531 89.612 153.365 89.612C148.789 89.612 146.529 87.7809 144.139 85.8451C141.73 83.8893 139.235 81.8786 134.53 81.6541L131.362 81.7888C127.555 82.3077 125.33 84.0988 123.174 85.8451C120.78 87.7859 118.519 89.612 113.949 89.612C109.379 89.612 107.114 87.7809 104.724 85.8451C103.801 85.0967 102.868 84.3433 101.805 83.6847C100.917 83.8942 99.8943 84.1337 98.7917 84.4081C100.653 85.1216 102.04 86.2392 103.472 87.3967L103.467 87.3917Z" fill="white"/>
<path d="M167.414 167.51C167.414 167.51 167.31 166.946 167.15 166.023C166.202 166.447 165.364 166.961 164.591 167.51H167.419H167.414Z" fill="white"/>
<path d="M133.657 164.841C129.71 164.841 127.236 166.038 125.17 167.51H129.391C130.579 167.091 131.956 166.836 133.657 166.836C135.358 166.836 136.735 167.091 137.923 167.51H142.144C140.078 166.038 137.603 164.841 133.657 164.841Z" fill="white"/>
<path d="M94.2365 164.841C90.2899 164.841 87.8152 166.038 85.7497 167.51H89.9706C91.1581 167.091 92.5351 166.836 94.2365 166.836C95.9378 166.836 97.3149 167.091 98.5023 167.51H102.723C100.658 166.038 98.183 164.841 94.2365 164.841Z" fill="white"/>
<path d="M162.595 148.251C160.2 150.187 157.94 152.018 153.37 152.018C148.799 152.018 146.534 150.187 144.144 148.251C141.585 146.181 138.941 144.035 133.662 144.035C128.383 144.035 125.739 146.176 123.179 148.251C120.785 150.187 118.524 152.018 113.954 152.018C109.384 152.018 107.119 150.187 104.729 148.251C102.169 146.181 99.5251 144.035 94.2464 144.035C91.3776 144.035 89.2871 144.669 87.5658 145.582C87.6656 146.315 87.7653 147.029 87.8651 147.712C89.4966 146.73 91.4325 146.031 94.2514 146.031C98.8266 146.031 101.087 147.862 103.477 149.798C106.036 151.868 108.68 154.014 113.959 154.014C119.238 154.014 121.887 151.873 124.442 149.798C126.837 147.862 129.097 146.031 133.667 146.031C138.237 146.031 140.502 147.862 142.892 149.798C145.452 151.868 148.096 154.014 153.375 154.014C158.653 154.014 161.303 151.873 163.857 149.798C164.411 149.349 164.955 148.91 165.524 148.496C165.673 147.822 165.873 146.874 166.102 145.742C164.79 146.475 163.688 147.368 162.6 148.246L162.595 148.251Z" fill="white"/>
<path d="M57.2009 154.608C56.4675 154.503 55.6792 154.438 54.816 154.438C53.1446 154.438 51.7376 154.653 50.5152 155.012C52.6706 155.256 54.9507 155.062 57.2009 154.603V154.608Z" fill="white"/>
<path d="M153.365 110.412C148.789 110.412 146.529 108.581 144.139 106.646C141.58 104.575 138.936 102.43 133.657 102.43C128.378 102.43 125.734 104.57 123.174 106.646C120.78 108.581 118.519 110.412 113.949 110.412C109.379 110.412 107.114 108.581 104.724 106.646C102.164 104.575 99.5201 102.43 94.2415 102.43C88.9628 102.43 86.3185 104.57 83.7589 106.646C81.3641 108.581 79.1039 110.412 74.5337 110.412C69.9635 110.412 67.7932 108.656 65.4582 106.765C65.0441 107.279 64.625 107.798 64.2059 108.322C66.7155 110.353 69.3598 112.408 74.5337 112.408C79.7076 112.408 82.4617 110.268 85.0162 108.192C87.4111 106.256 89.6713 104.425 94.2415 104.425C98.8117 104.425 101.077 106.256 103.467 108.192C106.026 110.263 108.671 112.408 113.949 112.408C119.228 112.408 121.877 110.268 124.432 108.192C126.827 106.256 129.087 104.425 133.657 104.425C138.227 104.425 140.492 106.256 142.882 108.192C145.442 110.263 148.086 112.408 153.365 112.408C158.643 112.408 161.293 110.268 163.847 108.192C166.242 106.251 168.502 104.425 173.077 104.425C177.653 104.425 179.913 106.256 182.303 108.192C183.49 109.155 184.697 110.128 186.174 110.896C184.643 108.941 183.146 107.025 181.719 105.209C179.618 103.687 177.124 102.425 173.072 102.425C167.789 102.425 165.144 104.565 162.59 106.641C160.195 108.576 157.935 110.407 153.365 110.407V110.412Z" fill="white"/>
<path d="M103.467 139.4C106.026 141.471 108.671 143.616 113.949 143.616C119.228 143.616 121.877 141.476 124.432 139.4C126.827 137.464 129.087 135.633 133.657 135.633C138.227 135.633 140.492 137.464 142.882 139.4C145.442 141.471 148.086 143.616 153.365 143.616C158.643 143.616 161.293 141.476 163.847 139.4C165.099 138.387 166.317 137.404 167.844 136.696C167.993 135.908 168.138 135.129 168.283 134.366C165.908 135.169 164.231 136.521 162.59 137.849C160.195 139.784 157.935 141.615 153.365 141.615C148.794 141.615 146.529 139.784 144.139 137.849C141.58 135.778 138.936 133.633 133.657 133.633C128.378 133.633 125.734 135.773 123.174 137.849C120.78 139.784 118.519 141.615 113.949 141.615C109.379 141.615 107.114 139.784 104.724 137.849C102.164 135.778 99.5201 133.633 94.2415 133.633C90.6092 133.633 88.2244 134.645 86.2586 135.953C86.3584 136.691 86.4581 137.434 86.5579 138.188C88.4838 136.761 90.6492 135.628 94.2464 135.628C98.8216 135.628 101.082 137.459 103.472 139.395L103.467 139.4Z" fill="white"/>
<path d="M79.518 90.8094C80.6606 90.4003 81.6435 89.8664 82.5365 89.2677C81.399 89.7367 80.441 90.2057 79.7375 90.6547C79.6677 90.6996 79.5929 90.7545 79.513 90.8094H79.518Z" fill="white"/>
<path d="M202.015 137.849C201.012 138.662 200.03 139.45 198.897 140.099L203.657 139.091C204.565 138.357 205.478 137.654 206.521 137.075C206.186 136.646 205.772 136.107 205.283 135.479C204.071 136.187 203.033 137.025 202.015 137.849Z" fill="white"/>
<path d="M192.79 131.218C188.215 131.218 185.955 129.387 183.565 127.451C181.005 125.38 178.361 123.235 173.082 123.235C167.804 123.235 165.154 125.375 162.6 127.451C160.205 129.387 157.945 131.218 153.375 131.218C148.804 131.218 146.539 129.387 144.149 127.451C141.59 125.38 138.946 123.235 133.667 123.235C128.388 123.235 125.744 125.375 123.184 127.451C120.79 129.387 118.529 131.218 113.959 131.218C109.389 131.218 107.124 129.387 104.734 127.451C102.174 125.38 99.5301 123.235 94.2514 123.235C89.8209 123.235 87.2465 124.742 85.0212 126.453C85.106 127.122 85.2058 127.9 85.3206 128.758C87.6057 126.912 89.8658 125.231 94.2514 125.231C98.637 125.231 101.087 127.062 103.477 128.997C106.036 131.068 108.68 133.213 113.959 133.213C119.238 133.213 121.887 131.073 124.442 128.997C126.837 127.062 129.097 125.231 133.667 125.231C138.237 125.231 140.502 127.062 142.892 128.997C145.452 131.068 148.096 133.213 153.375 133.213C158.653 133.213 161.303 131.073 163.857 128.997C166.252 127.057 168.512 125.231 173.087 125.231C177.663 125.231 179.923 127.062 182.313 128.997C184.872 131.068 187.516 133.213 192.795 133.213C196.821 133.213 199.311 131.966 201.402 130.459C201.007 129.95 200.598 129.422 200.179 128.883C198.328 130.205 196.203 131.218 192.795 131.218H192.79Z" fill="white"/>
<path d="M74.5287 141.62C69.9535 141.62 67.6934 139.789 65.3035 137.854C62.744 135.783 60.0997 133.638 54.821 133.638C49.5423 133.638 46.893 135.778 44.3385 137.854C43.5152 138.522 42.707 139.171 41.8139 139.744C41.6093 140.568 41.4347 141.431 41.315 142.314C42.9814 141.516 44.2986 140.453 45.5958 139.405C47.9906 137.469 50.2508 135.638 54.821 135.638C59.3912 135.638 61.6563 137.469 64.0462 139.405C66.6057 141.476 69.2501 143.621 74.5287 143.621C74.7882 143.621 75.0326 143.611 75.2821 143.601L76.27 141.526C75.7262 141.591 75.1524 141.625 74.5287 141.625V141.62Z" fill="white"/>
<path d="M173.077 112.832C167.794 112.832 165.149 114.973 162.595 117.048C160.2 118.984 157.94 120.815 153.37 120.815C148.799 120.815 146.534 118.984 144.144 117.048C141.585 114.978 138.941 112.832 133.662 112.832C128.383 112.832 125.739 114.973 123.179 117.048C120.785 118.984 118.524 120.815 113.954 120.815C109.384 120.815 107.119 118.984 104.729 117.048C102.169 114.978 99.5251 112.832 94.2464 112.832C88.9678 112.832 86.3234 114.973 83.7639 117.048C81.3691 118.984 79.1089 120.815 74.5387 120.815C69.9685 120.815 67.7034 118.984 65.3135 117.048C63.7518 115.786 62.1553 114.499 59.955 113.68C59.5159 114.239 59.0769 114.798 58.6378 115.352C60.883 116.03 62.4446 117.288 64.0562 118.6C66.6157 120.67 69.26 122.816 74.5387 122.816C79.8174 122.816 82.4667 120.675 85.0212 118.6C87.4161 116.664 89.6762 114.833 94.2464 114.833C98.8166 114.833 101.082 116.664 103.472 118.6C106.031 120.67 108.675 122.816 113.954 122.816C119.233 122.816 121.882 120.675 124.437 118.6C126.832 116.664 129.092 114.833 133.662 114.833C138.232 114.833 140.497 116.664 142.887 118.6C145.447 120.67 148.091 122.816 153.37 122.816C158.648 122.816 161.298 120.675 163.852 118.6C166.247 116.659 168.507 114.833 173.082 114.833C177.658 114.833 179.918 116.664 182.308 118.6C184.867 120.67 187.511 122.816 192.79 122.816C193.708 122.816 194.541 122.746 195.315 122.631C194.841 122.022 194.362 121.404 193.878 120.78C193.529 120.805 193.169 120.82 192.79 120.82C188.215 120.82 185.955 118.989 183.565 117.053C181.005 114.983 178.361 112.837 173.082 112.837L173.077 112.832Z" fill="white"/>
<path d="M54.816 125.231C59.3912 125.231 61.6513 127.062 64.0412 128.997C66.6007 131.068 69.2451 133.213 74.5237 133.213C77.213 133.213 79.2137 132.655 80.8751 131.836L82.4867 128.449C80.4909 129.97 78.2956 131.213 74.5237 131.213C69.9485 131.213 67.6884 129.382 65.2985 127.446C62.739 125.375 60.0947 123.23 54.816 123.23C53.9079 123.23 53.0797 123.3 52.3114 123.414C51.6129 124.313 50.9393 125.176 50.3057 125.989C51.548 125.52 52.9949 125.226 54.811 125.226L54.816 125.231Z" fill="white"/>
</g>
<path d="M105.363 82.8715C105.363 82.8715 85.0561 87.2371 79.7425 90.6498C74.4289 94.0675 45.3164 132.745 44.3684 133.508C43.4204 134.266 36.4005 149.449 46.6435 154.004C56.8915 158.559 73.2864 147.772 73.2864 147.772L84.672 123.864C84.672 123.864 87.9 149.104 88.848 154.228C89.796 159.352 85.4303 167.51 85.4303 167.51H167.41C167.41 167.51 164.561 152.138 165.324 149.294C166.082 146.445 169.879 125.764 169.879 125.764L182.402 143.601L207.454 138.288C207.454 138.288 175.762 97.2955 171.586 92.5507C167.41 87.8059 166.462 87.6163 159.062 85.5308C151.663 83.4452 137.05 81.5443 137.05 81.5443L105.358 82.8715H105.363Z" stroke="#3e3e3e" stroke-miterlimit="10"/>
<path d="M51.4582 127.97C51.4582 127.97 57.605 126.947 62.4696 133.348" stroke="#3e3e3e" stroke-miterlimit="10"/>
<path d="M58.8873 127.456C58.8873 127.456 65.2885 130.015 67.0847 135.653" stroke="#3e3e3e" stroke-miterlimit="10"/>
<path d="M187.457 132.58C187.457 132.58 194.117 130.275 199.75 130.789" stroke="#3e3e3e" stroke-miterlimit="10"/>
<path d="M194.117 127.71C194.117 127.71 186.888 130.409 182.078 133.343" stroke="#3e3e3e" stroke-miterlimit="10"/>
<path d="M158.109 157.377C157.546 158.045 156.987 158.674 156.463 159.213" stroke="#3e3e3e" stroke-miterlimit="10"/>
<path d="M163.852 149.803C163.852 149.803 162.021 152.452 159.886 155.186" stroke="#3e3e3e" stroke-miterlimit="10"/>
<path d="M109.813 156.319C108.012 157.247 106.286 158.05 104.719 158.654" stroke="#3e3e3e" stroke-miterlimit="10"/>
<path d="M133.672 141.032C133.672 141.032 122.152 149.563 112.028 155.136" stroke="#3e3e3e" stroke-miterlimit="10"/>
<path d="M102.429 90.061C102.429 90.061 106.016 99.7952 113.7 105.174" stroke="#3e3e3e" stroke-miterlimit="10"/>
<path d="M145.966 86.7332C145.966 86.7332 142.638 95.9534 139.305 99.7951" stroke="#3e3e3e" stroke-miterlimit="10"/>
<path d="M111.46 69.1509C111.46 69.1509 106.849 70.2735 106.725 72.3889C106.6 74.5044 106.974 76.1259 106.974 76.1259C106.974 76.1259 102.613 82.9762 103.611 85.4659C104.609 87.9556 113.076 95.5543 123.663 96.1779C134.251 96.8016 142.343 88.9534 143.341 85.4659C144.339 81.9784 141.101 78.865 141.101 77.9919C141.101 77.1188 141.6 73.2571 140.851 71.89C140.103 70.5179 137.364 68.153 134.874 67.4046C132.385 66.6562 112.582 68.4025 111.46 69.1459V69.1509Z" fill="#ecffeb" stroke="#3e3e3e" stroke-miterlimit="10"/>
<path d="M139.754 79.5486C139.754 79.5486 135.323 86.6084 129.74 88.5792" stroke="#3e3e3e" stroke-miterlimit="10"/>
<path d="M130.07 87.1024C130.07 87.1024 126.951 89.2378 124.487 89.5671" stroke="#3e3e3e" stroke-miterlimit="10"/>
<path d="M110.337 61.5521C110.337 61.5521 110.711 72.5136 110.961 73.257C111.21 74.0054 117.102 80.0375 122.047 80.9805C125.569 81.649 129.77 79.9826 132.385 77.2435C134.999 74.5044 135.498 71.6405 135.498 71.6405L134.375 61.8016L110.342 61.5521H110.337Z" fill="white" stroke="#3e3e3e" stroke-miterlimit="10"/>
<path d="M119.068 66.9056L110.961 73.257L110.861 62.6398L119.068 66.9056Z" fill="#3e3e3e" stroke="#3e3e3e" stroke-miterlimit="10"/>
<path d="M99.9991 41.7496C99.9991 41.7496 97.3847 39.5094 95.2643 40.8765C93.1488 42.2486 93.7675 47.6021 96.1374 50.0917C98.5073 52.5814 101.366 51.4638 101.366 51.4638L99.9941 41.7496H99.9991Z" fill="white" stroke="#3e3e3e" stroke-miterlimit="10"/>
<path d="M142.174 41.7496C142.174 41.7496 144.788 39.5094 146.908 40.8765C149.024 42.2486 148.405 47.6021 146.035 50.0917C143.67 52.5814 140.807 51.4638 140.807 51.4638L142.179 41.7496H142.174Z" fill="white" stroke="#3e3e3e" stroke-miterlimit="10"/>
<path d="M119.647 11.6542C119.647 11.6542 119.647 16.6784 110.676 25.4695C101.705 34.2607 99.0112 35.8772 99.0112 35.8772L99.7297 43.0568C99.7297 43.0568 101.167 54.9014 103.856 57.4111C106.545 59.9207 113.725 68.178 121.263 69.4353C128.802 70.6926 135.618 64.0518 138.851 59.3868C142.084 54.7218 143.516 48.7995 143.516 46.1103C143.516 43.4211 140.647 28.7026 140.647 28.7026C140.647 28.7026 133.108 24.5765 127.37 21.7026C121.628 18.8338 119.652 11.6542 119.652 11.6542H119.647Z" fill="white" stroke="#3e3e3e" stroke-miterlimit="10"/>
<path d="M124.132 31.7511V35.6976C124.132 35.6976 128.438 34.7996 128.259 37.1346C128.079 39.4696 125.924 41.9792 123.773 42.1588" stroke="#3e3e3e" stroke-miterlimit="10"/>
<path d="M111.385 45.1873C111.385 45.1873 112.817 51.9128 120.256 52.1972" stroke="#3e3e3e" stroke-miterlimit="10"/>
<path d="M112.542 47.4524C112.542 47.4524 113.216 43.8951 115.631 45.3021C118.045 46.714 115.496 50.7404 115.496 50.7404C115.496 50.7404 112.946 49.2636 112.542 47.4524Z" fill="#ecffeb" stroke="#3e3e3e" stroke-miterlimit="10"/>
<path d="M114.089 49.5329C114.089 49.5329 114.089 48.1908 114.693 47.3176" stroke="#3e3e3e" stroke-miterlimit="10"/>
<path d="M115.361 34.4253C115.361 35.7625 114.383 36.8401 113.181 36.8401C111.978 36.8401 111.001 35.7575 111.001 34.4253C111.001 33.0932 111.978 32.0105 113.181 32.0105C114.383 32.0105 115.361 33.0932 115.361 34.4253Z" fill="#3e3e3e"/>
<path d="M112.432 34.7397C112.846 34.7397 113.181 34.4046 113.181 33.9913C113.181 33.578 112.846 33.2429 112.432 33.2429C112.019 33.2429 111.684 33.578 111.684 33.9913C111.684 34.4046 112.019 34.7397 112.432 34.7397Z" fill="white"/>
<path d="M110.257 33.2928C110.527 31.9457 111.704 30.9329 113.111 30.9329C114.224 30.9329 115.187 31.5615 115.68 32.4895" stroke="#3e3e3e" stroke-miterlimit="10"/>
<path d="M132.08 32.8137C132.08 34.1509 131.102 35.2286 129.9 35.2286C128.698 35.2286 127.72 34.1459 127.72 32.8137C127.72 31.4816 128.698 30.3989 129.9 30.3989C131.102 30.3989 132.08 31.4816 132.08 32.8137Z" fill="#3e3e3e"/>
<path d="M128.807 33.0234C129.221 33.0234 129.556 32.6883 129.556 32.275C129.556 31.8617 129.221 31.5266 128.807 31.5266C128.394 31.5266 128.059 31.8617 128.059 32.275C128.059 32.6883 128.394 33.0234 128.807 33.0234Z" fill="white"/>
<path d="M126.976 31.6812C127.246 30.3341 128.423 29.3213 129.83 29.3213C130.943 29.3213 131.906 29.9499 132.4 30.8779" stroke="#3e3e3e" stroke-miterlimit="10"/>
<path d="M116.169 26.7717C116.169 26.7717 114.693 25.9684 112.881 26.2329C111.07 26.5023 105.901 30.7981 106.166 31.2022C106.435 31.6063 112.407 28.3833 113.685 28.1787C114.962 27.9741 116.234 28.1787 116.169 26.7667V26.7717Z" fill="#3e3e3e"/>
<path d="M125.629 23.7533C125.629 23.7533 127.106 22.95 128.917 23.2144C130.728 23.4839 135.897 27.7796 135.633 28.1838C135.363 28.5879 129.391 25.3648 128.114 25.1603C126.837 24.9607 125.564 25.1603 125.629 23.7483V23.7533Z" fill="#3e3e3e"/>
<path d="M182.123 147.727C182.123 147.727 184.059 157.661 184.962 157.916C185.865 158.175 190.251 153.789 190.894 151.464C191.538 149.144 191.927 147.722 189.218 147.079C186.509 146.435 182.123 147.722 182.123 147.722V147.727Z" fill="#3e3e3e" stroke="#3e3e3e" stroke-miterlimit="10"/>
<path d="M174.31 121.154C174.31 121.154 168.238 120.795 165.858 118.894C163.478 116.988 161.098 115.087 159.666 116.988C158.239 118.894 160.739 122.107 162.405 123.18C164.072 124.253 167.644 125.32 167.644 125.32L175.382 123.894C175.382 123.894 175.622 121.514 174.31 121.154Z" fill="white" stroke="#3e3e3e" stroke-miterlimit="10"/>
<path d="M147.747 98.4281L158.319 118.016L155.595 119.488C155.595 119.488 151.035 115.052 148.375 110.128C145.716 105.204 144.159 94.5464 147.742 98.4281H147.747Z" fill="white" stroke="#3e3e3e" stroke-miterlimit="10"/>
<path d="M155.595 119.488C155.595 119.488 165.743 140.792 166.077 141.156C166.407 141.521 168.627 142.623 169.725 141.895C170.822 141.166 170.877 139.515 170.907 138.822C170.937 138.128 158.324 118.016 158.324 118.016L155.6 119.488H155.595Z" fill="white" stroke="#3e3e3e" stroke-miterlimit="10"/>
<path d="M188.948 136.751C188.948 136.751 183.236 130.799 180.856 126.513C178.476 122.227 175.856 120.68 174.31 121.154C172.763 121.628 172.763 123.06 168.597 124.013C161.881 125.55 158.838 131.512 158.838 131.512C158.838 132.705 158.718 134.371 160.03 135.204C161.338 136.037 162.291 137.704 163.603 139.729C164.91 141.755 165.149 143.302 167.295 145.322C169.435 147.348 168.248 149.015 171.7 149.249C175.153 149.489 176.106 146.989 176.106 146.989C176.106 146.989 180.631 149.369 183.485 149.848C186.344 150.322 189.677 149.608 189.677 149.608C189.677 149.608 191.223 144.369 190.63 140.682C190.036 136.99 188.963 136.756 188.963 136.756L188.948 136.751Z" fill="white" stroke="#3e3e3e" stroke-miterlimit="10"/>
<path d="M162.166 137.704C162.166 137.704 161.692 135.918 163.238 134.845C164.785 133.772 174.664 129.487 175.856 128.299" stroke="#3e3e3e" stroke-miterlimit="10"/>
<path d="M165.025 142.224C165.025 142.224 164.665 140.677 166.217 140.084C167.764 139.49 175.143 136.511 177.049 135.084" stroke="#3e3e3e" stroke-miterlimit="10"/>
<path d="M168.238 146.39C168.238 146.39 167.644 144.724 169.665 143.651C171.69 142.578 176.45 141.271 178.71 139.959" stroke="#3e3e3e" stroke-miterlimit="10"/>
<path d="M176.096 146.989C176.096 146.989 173.836 148.062 172.404 147.463" stroke="#3e3e3e" stroke-miterlimit="10"/>
<path d="M69.8787 147.727C69.8787 147.727 67.9428 157.661 67.0398 157.916C66.1367 158.17 61.7511 153.789 61.1075 151.464C60.4639 149.144 60.0747 147.722 62.7839 147.079C65.4931 146.435 69.8787 147.722 69.8787 147.722V147.727Z" fill="#3e3e3e" stroke="#3e3e3e" stroke-miterlimit="10"/>
<path d="M77.7817 121.154C77.7817 121.154 83.8537 120.795 86.2336 118.894C88.6135 116.988 90.9934 115.087 92.4253 116.988C93.8523 118.894 91.3526 122.107 89.6862 123.18C88.0198 124.253 84.4475 125.32 84.4475 125.32L76.7091 123.894C76.7091 123.894 76.4696 121.514 77.7817 121.154Z" fill="white" stroke="#3e3e3e" stroke-miterlimit="10"/>
<path d="M107.418 101.502L107.338 101.457C107.029 101.282 106.615 101.427 106.415 101.786L101.172 111.106C101.062 111.301 100.832 111.385 100.658 111.286C100.488 111.191 100.438 110.951 100.548 110.757L105.747 101.517C105.971 101.117 105.872 100.633 105.522 100.434C105.173 100.234 104.704 100.404 104.479 100.803L99.2806 110.043C99.1709 110.238 98.9414 110.323 98.7667 110.223C98.5971 110.128 98.5472 109.889 98.657 109.694L103.901 100.374C104.1 100.02 104.01 99.5906 103.701 99.416C103.452 99.2763 103.127 99.3362 102.903 99.5757C101.521 101.028 96.7561 106.152 95.384 109.105C93.7774 112.573 95.1545 114.444 95.1545 114.444L96.4168 116.714L99.0162 116.614C99.0162 116.614 101.326 116.819 103.457 113.65C105.273 110.946 107.179 104.216 107.703 102.28C107.787 101.966 107.673 101.656 107.423 101.512L107.418 101.502Z" fill="white" stroke="#3e3e3e" stroke-miterlimit="10"/>
<path d="M95.5736 114.863C95.5736 114.863 80.6406 138.966 80.5109 139.44C80.3812 139.914 80.6356 142.379 81.8331 142.918C83.0305 143.456 84.4574 142.618 85.0611 142.274C85.6648 141.93 98.2678 116.38 98.2678 116.38L95.5686 114.863H95.5736Z" fill="white" stroke="#3e3e3e" stroke-miterlimit="10"/>
<path d="M63.1431 136.751C63.1431 136.751 68.8559 130.799 71.2358 126.513C73.6157 122.227 76.2351 120.68 77.7817 121.154C79.3284 121.628 79.3284 123.06 83.4945 124.013C90.2101 125.55 93.2536 131.512 93.2536 131.512C93.2536 132.705 93.3733 134.371 92.0611 135.204C90.7539 136.037 89.801 137.704 88.4888 139.729C87.1816 141.755 86.9421 143.302 84.7967 145.322C82.6563 147.348 83.8438 149.015 80.3912 149.249C76.9386 149.489 75.9856 146.989 75.9856 146.989C75.9856 146.989 71.4603 149.369 68.6064 149.848C65.7476 150.322 61.1225 149.633 61.1225 149.633C61.1225 149.633 60.868 144.374 61.4667 140.682C62.0605 136.99 63.1332 136.756 63.1332 136.756L63.1431 136.751Z" fill="white" stroke="#3e3e3e" stroke-miterlimit="10"/>
<path d="M89.9257 137.704C89.9257 137.704 90.3997 135.918 88.853 134.845C87.3063 133.772 77.4275 129.487 76.2351 128.299" stroke="#3e3e3e" stroke-miterlimit="10"/>
<path d="M87.0668 142.224C87.0668 142.224 87.4261 140.677 85.8744 140.084C84.3277 139.49 76.9485 136.511 75.0426 135.084" stroke="#3e3e3e" stroke-miterlimit="10"/>
<path d="M83.8537 146.39C83.8537 146.39 84.4474 144.724 82.4268 143.651C80.4061 142.578 75.6413 141.271 73.3812 139.959" stroke="#3e3e3e" stroke-miterlimit="10"/>
<path d="M75.9956 146.989C75.9956 146.989 78.2557 148.062 79.6877 147.463" stroke="#3e3e3e" stroke-miterlimit="10"/>
<path d="M186.898 134.96C186.898 134.96 197.345 132.51 203.407 133.024C209.469 133.538 213.466 139.859 214.499 145.278C215.531 150.696 215.402 153.146 212.433 155.082C209.464 157.017 197.34 157.661 192.311 158.175C187.282 158.689 184.957 157.915 184.957 157.915C184.957 157.915 189.986 151.853 190.246 147.598C190.505 143.342 188.439 137.409 186.893 134.96H186.898Z" fill="#ecffeb" stroke="#3e3e3e" stroke-miterlimit="10"/>
<g opacity="0.39">
<path d="M202.015 148.251C199.62 150.187 197.36 152.018 192.785 152.018C191.343 152.018 190.131 151.834 189.073 151.524C188.784 152.138 188.459 152.742 188.125 153.32C189.432 153.744 190.944 154.009 192.785 154.009C198.069 154.009 200.713 151.868 203.268 149.793C205.662 147.857 207.923 146.026 212.498 146.026C213.286 146.026 214 146.086 214.663 146.181C214.613 145.886 214.558 145.582 214.499 145.268C214.424 144.888 214.339 144.499 214.234 144.115C213.69 144.06 213.112 144.03 212.498 144.03C207.214 144.03 204.57 146.171 202.015 148.246V148.251Z" fill="white"/>
<path d="M213.256 154.458C213.007 154.448 212.762 154.438 212.498 154.438C208.606 154.438 206.146 155.6 204.101 157.042C207.763 156.583 211.066 155.97 212.433 155.077C212.737 154.877 213.007 154.668 213.256 154.458Z" fill="white"/>
<path d="M203.273 139.4C205.089 137.933 206.825 136.526 209.554 135.933C208.94 135.354 208.282 134.84 207.573 134.411C205.263 135.219 203.622 136.546 202.015 137.849C199.62 139.784 197.36 141.615 192.785 141.615C191.493 141.615 190.395 141.466 189.417 141.211C189.607 141.92 189.777 142.643 189.911 143.367C190.779 143.521 191.727 143.611 192.785 143.611C198.069 143.611 200.713 141.471 203.268 139.395L203.273 139.4Z" fill="white"/>
</g>
<path d="M186.898 134.96C186.898 134.96 197.345 132.51 203.407 133.024C209.469 133.538 213.466 139.859 214.499 145.278C215.531 150.696 215.402 153.146 212.433 155.082C209.464 157.017 197.34 157.661 192.311 158.175C187.282 158.689 184.957 157.915 184.957 157.915C184.957 157.915 189.986 151.853 190.246 147.598C190.505 143.342 188.439 137.409 186.893 134.96H186.898Z" stroke="#3e3e3e" stroke-miterlimit="10"/>
<path d="M65.1089 134.96C65.1089 134.96 54.6613 132.51 48.5993 133.024C42.5373 133.538 38.5409 139.859 37.5081 145.278C36.4753 150.696 36.6051 153.146 39.5737 155.082C42.5423 157.017 54.6663 157.661 59.6955 158.175C64.7247 158.689 67.0498 157.915 67.0498 157.915C67.0498 157.915 62.0205 151.853 61.7611 147.598C61.5017 143.342 63.5672 137.409 65.1139 134.96H65.1089Z" fill="#ecffeb" stroke="#3e3e3e" stroke-miterlimit="10"/>
<g opacity="0.39">
<path d="M54.816 135.633C58.9322 135.633 61.1774 137.12 63.3277 138.826C63.5772 138.133 63.8367 137.484 64.1011 136.896C61.8659 135.169 59.2864 133.638 54.816 133.638C49.5373 133.638 46.888 135.778 44.3335 137.854C42.697 139.176 41.1254 140.453 38.8353 141.127C38.501 141.865 38.2166 142.623 37.9821 143.377C41.4397 142.763 43.5452 141.062 45.5908 139.405C47.9856 137.469 50.2458 135.638 54.816 135.638V135.633Z" fill="white"/>
<path d="M64.8345 158.28C62.4147 156.334 59.7804 154.443 54.816 154.443C51.074 154.443 48.6592 155.521 46.6585 156.883C47.7561 157.037 48.9087 157.172 50.0662 157.297C51.3584 156.768 52.8802 156.439 54.821 156.439C57.8245 156.439 59.8253 157.227 61.5266 158.32C62.8937 158.39 63.9913 158.355 64.8395 158.285L64.8345 158.28Z" fill="white"/>
<path d="M61.806 148.097C61.7811 147.927 61.7611 147.762 61.7511 147.598C61.7162 147.004 61.7262 146.375 61.7761 145.732C59.9999 144.739 57.8445 144.035 54.816 144.035C49.5373 144.035 46.888 146.176 44.3335 148.251C42.3228 149.878 40.4019 151.429 37.1289 151.883C37.3085 152.592 37.6129 153.206 38.0569 153.759C41.4696 153.131 43.5601 151.449 45.5908 149.803C47.9856 147.867 50.2458 146.036 54.816 146.036C57.9842 146.036 60.0448 146.914 61.806 148.102V148.097Z" fill="white"/>
</g>
<path d="M65.1089 134.96C65.1089 134.96 54.6613 132.51 48.5993 133.024C42.5373 133.538 38.5409 139.859 37.5081 145.278C36.4753 150.696 36.6051 153.146 39.5737 155.082C42.5423 157.017 54.6663 157.661 59.6955 158.175C64.7247 158.689 67.0498 157.915 67.0498 157.915C67.0498 157.915 62.0205 151.853 61.7611 147.598C61.5017 143.342 63.5672 137.409 65.1139 134.96H65.1089Z" stroke="#3e3e3e" stroke-miterlimit="10"/>
<path d="M32.5587 179.34C40.2962 179.34 46.5687 178.33 46.5687 177.084C46.5687 175.839 40.2962 174.829 32.5587 174.829C24.8213 174.829 18.5488 175.839 18.5488 177.084C18.5488 178.33 24.8213 179.34 32.5587 179.34Z" fill="#3e3e3e" stroke="#3e3e3e" stroke-miterlimit="10"/>
<path d="M18.1896 137.04L20.0057 175.897C20.0057 177.294 25.4839 178.427 32.2444 178.427C39.0049 178.427 44.4832 177.294 44.4832 175.897L46.2993 137.04H18.1945H18.1896Z" fill="#3e3e3e" stroke="#3e3e3e" stroke-miterlimit="10"/>
<path d="M46.2943 137.04C46.2943 138.642 40.0028 139.944 32.2444 139.944C24.4861 139.944 18.1945 138.647 18.1945 137.04C18.1945 135.434 24.4861 134.136 32.2444 134.136C40.0028 134.136 46.2943 135.434 46.2943 137.04Z" fill="#fff" stroke="#3e3e3e" stroke-miterlimit="10"/>
<path d="M127.111 184.494C150.39 184.494 169.261 180.692 169.261 176.002C169.261 171.312 150.39 167.51 127.111 167.51C103.832 167.51 84.9614 171.312 84.9614 176.002C84.9614 180.692 103.832 184.494 127.111 184.494Z" fill="#3e3e3e" stroke="#3e3e3e" stroke-miterlimit="10"/>
<path d="M127.111 182.583C150.83 182.583 170.059 178.079 170.059 172.524C170.059 166.969 150.83 162.466 127.111 162.466C103.391 162.466 84.1631 166.969 84.1631 172.524C84.1631 178.079 103.391 182.583 127.111 182.583Z" fill="white" stroke="#3e3e3e" stroke-miterlimit="10"/>
<path d="M127.111 180.387C154.393 180.387 176.51 175.884 176.51 170.329C176.51 164.774 154.393 160.271 127.111 160.271C99.8286 160.271 77.7119 164.774 77.7119 170.329C77.7119 175.884 99.8286 180.387 127.111 180.387Z" fill="white" stroke="#3e3e3e" stroke-miterlimit="10"/>
<path d="M127.111 179.385C145.124 179.385 159.726 176.411 159.726 172.744C159.726 169.076 145.124 166.103 127.111 166.103C109.098 166.103 94.4959 169.076 94.4959 172.744C94.4959 176.411 109.098 179.385 127.111 179.385Z" fill="white" stroke="#3e3e3e" stroke-miterlimit="10"/>
</g>
<defs>
<clipPath id="clip0_7850_226">
<rect width="243.602" height="200" fill="white" transform="translate(0.199059 0.5)"/>
</clipPath>
</defs>
</svg>
