<svg width="78" height="92" viewBox="0 0 78 92" fill="none" xmlns="http://www.w3.org/2000/svg">
<g filter="url(#filter0_d_7855_385)">
<rect x="4" y="15.5" width="70" height="70" rx="10" fill="white"/>
</g>
<g clip-path="url(#clip0_7855_385)">
<path d="M29.6299 33.3125H23.3799C22.5169 33.3125 21.8174 34.0121 21.8174 34.875V41.125C21.8174 41.9879 22.5169 42.6875 23.3799 42.6875H29.6299C30.4928 42.6875 31.1924 41.9879 31.1924 41.125V34.875C31.1924 34.0121 30.4928 33.3125 29.6299 33.3125Z" fill="#009733"/>
<path d="M29.6299 44.5625H23.3799C22.5169 44.5625 21.8174 45.2621 21.8174 46.125V52.375C21.8174 53.2379 22.5169 53.9375 23.3799 53.9375H29.6299C30.4928 53.9375 31.1924 53.2379 31.1924 52.375V46.125C31.1924 45.2621 30.4928 44.5625 29.6299 44.5625Z" fill="#009733"/>
<path d="M29.6299 55.8125H23.3799C22.5169 55.8125 21.8174 56.5121 21.8174 57.375V63.625C21.8174 64.4879 22.5169 65.1875 23.3799 65.1875H29.6299C30.4928 65.1875 31.1924 64.4879 31.1924 63.625V57.375C31.1924 56.5121 30.4928 55.8125 29.6299 55.8125Z" fill="#009733"/>
<path d="M54.6299 33.3125H34.6299C34.2156 33.3129 33.8184 33.4776 33.5255 33.7706C33.2325 34.0635 33.0678 34.4607 33.0674 34.875V41.125C33.0678 41.5393 33.2325 41.9365 33.5255 42.2294C33.8184 42.5224 34.2156 42.6871 34.6299 42.6875H54.6299C55.0442 42.6871 55.4414 42.5224 55.7343 42.2294C56.0273 41.9365 56.192 41.5393 56.1924 41.125V34.875C56.192 34.4607 56.0273 34.0635 55.7343 33.7706C55.4414 33.4776 55.0442 33.3129 54.6299 33.3125ZM37.7549 39.875C37.384 39.875 37.0215 39.765 36.7132 39.559C36.4048 39.353 36.1645 39.0601 36.0226 38.7175C35.8807 38.3749 35.8436 37.9979 35.9159 37.6342C35.9883 37.2705 36.1668 36.9364 36.4291 36.6742C36.6913 36.412 37.0254 36.2334 37.3891 36.161C37.7528 36.0887 38.1298 36.1258 38.4724 36.2677C38.815 36.4096 39.1079 36.65 39.3139 36.9583C39.5199 37.2666 39.6299 37.6292 39.6299 38C39.6299 38.4973 39.4323 38.9742 39.0807 39.3258C38.7291 39.6775 38.2522 39.875 37.7549 39.875ZM51.5049 38.9375H42.7549C42.5062 38.9375 42.2678 38.8387 42.092 38.6629C41.9162 38.4871 41.8174 38.2486 41.8174 38C41.8174 37.7514 41.9162 37.5129 42.092 37.3371C42.2678 37.1613 42.5062 37.0625 42.7549 37.0625H51.5049C51.7535 37.0625 51.992 37.1613 52.1678 37.3371C52.3436 37.5129 52.4424 37.7514 52.4424 38C52.4424 38.2486 52.3436 38.4871 52.1678 38.6629C51.992 38.8387 51.7535 38.9375 51.5049 38.9375Z" fill="#009733"/>
<path d="M54.6299 44.5625H34.6299C34.2155 44.5627 33.8182 44.7273 33.5252 45.0203C33.2322 45.3133 33.0675 45.7106 33.0674 46.125V52.375C33.0675 52.7894 33.2322 53.1867 33.5252 53.4797C33.8182 53.7727 34.2155 53.9373 34.6299 53.9375H40.5924V51.75C40.5924 50.7554 40.9875 49.8016 41.6907 49.0983C42.394 48.3951 43.3478 48 44.3424 48C45.3369 48 46.2908 48.3951 46.994 49.0983C47.6973 49.8016 48.0924 50.7554 48.0924 51.75V53.9375H54.6299C55.0442 53.9373 55.4416 53.7727 55.7346 53.4797C56.0275 53.1867 56.1922 52.7894 56.1924 52.375V46.125C56.1922 45.7106 56.0275 45.3133 55.7346 45.0203C55.4416 44.7273 55.0442 44.5627 54.6299 44.5625ZM37.7549 51.125C37.384 51.125 37.0215 51.015 36.7132 50.809C36.4048 50.603 36.1645 50.3101 36.0226 49.9675C35.8807 49.6249 35.8436 49.2479 35.9159 48.8842C35.9883 48.5205 36.1668 48.1864 36.4291 47.9242C36.6913 47.662 37.0254 47.4834 37.3891 47.411C37.7528 47.3387 38.1298 47.3758 38.4724 47.5177C38.815 47.6596 39.1079 47.9 39.3139 48.2083C39.5199 48.5166 39.6299 48.8792 39.6299 49.25C39.6302 49.4963 39.582 49.7403 39.4878 49.9679C39.3937 50.1956 39.2556 50.4024 39.0815 50.5766C38.9073 50.7508 38.7005 50.8889 38.4728 50.983C38.2452 51.0771 38.0012 51.1253 37.7549 51.125Z" fill="#009733"/>
<path d="M46.8371 63.625V58C46.8371 57.5027 47.0346 57.0258 47.3863 56.6742C47.7379 56.3225 48.2148 56.125 48.7121 56.125C49.0387 56.125 49.362 56.1893 49.6638 56.3143C49.9655 56.4393 50.2396 56.6225 50.4706 56.8534C50.7015 57.0843 50.8847 57.3585 51.0096 57.6602C51.1346 57.9619 51.1989 58.2853 51.1989 58.6119V63.625H46.8371Z" fill="#009733"/>
<path d="M51.199 61.75V59.25C51.199 58.9185 51.3306 58.6005 51.5651 58.3661C51.7995 58.1317 52.1174 58 52.449 58C53.112 58 53.7479 58.2634 54.2167 58.7322C54.6856 59.2011 54.949 59.837 54.949 60.5V65.5C54.949 66.163 54.6856 66.7989 54.2167 67.2678C53.7479 67.7366 53.112 68 52.449 68H40.9845C40.3214 68 39.6856 67.7366 39.2167 67.2678L38.699 66.75L35.9335 63.6172C35.5947 63.0565 35.4815 62.388 35.6168 61.747C35.7521 61.106 36.1258 60.5403 36.6624 60.1643C36.9404 59.9695 37.254 59.8314 37.5854 59.7579C37.9168 59.6844 38.2594 59.6768 38.5937 59.7357C38.928 59.7946 39.2474 59.9188 39.5337 60.1012C39.82 60.2835 40.0675 60.5205 40.2622 60.7986L41.4288 62.375H41.824L41.8371 51.75C41.8371 51.087 42.1005 50.4511 42.5693 49.9822C43.0382 49.5134 43.674 49.25 44.3371 49.25C45.0001 49.25 45.636 49.5134 46.1049 49.9822C46.5737 50.4511 46.8371 51.087 46.8371 51.75V61.75H51.199Z" fill="#009733"/>
</g>
<circle cx="39" cy="15.5" r="15" fill="#3E3E3E"/>
<path d="M31.2617 18.0527C30.7878 17.1139 30.5508 16.043 30.5508 14.8398C30.5508 13.6367 30.7878 12.5658 31.2617 11.627C31.7357 10.6882 32.3874 9.96354 33.2168 9.45312C34.0462 8.94271 34.9805 8.6875 36.0195 8.6875C37.0586 8.6875 37.9929 8.94271 38.8223 9.45312C39.6517 9.96354 40.3034 10.6882 40.7774 11.627C41.2513 12.5658 41.4883 13.6367 41.4883 14.8398C41.4883 16.043 41.2513 17.1139 40.7774 18.0527C40.3034 18.9915 39.6517 19.7161 38.8223 20.2266C37.9929 20.737 37.0586 20.9922 36.0195 20.9922C34.9805 20.9922 34.0462 20.737 33.2168 20.2266C32.3874 19.7161 31.7357 18.9915 31.2617 18.0527ZM37.8516 12.4883C38.3073 13.0488 38.5352 13.8327 38.5352 14.8398C38.5352 15.847 38.3073 16.6331 37.8516 17.1982C37.4004 17.7588 36.7897 18.0391 36.0195 18.0391C35.2494 18.0391 34.6364 17.7588 34.1807 17.1982C33.7295 16.6331 33.5039 15.847 33.5039 14.8398C33.5039 13.8327 33.7295 13.0488 34.1807 12.4883C34.6364 11.9232 35.2494 11.6406 36.0195 11.6406C36.7897 11.6406 37.4004 11.9232 37.8516 12.4883ZM38.5488 11.791C39.196 12.5475 39.5195 13.5638 39.5195 14.8398C39.5195 16.1159 39.196 17.1322 38.5488 17.8887C37.9063 18.6452 37.0632 19.0234 36.0195 19.0234C34.9759 19.0234 34.1305 18.6452 33.4834 17.8887C32.8408 17.1322 32.5195 16.1159 32.5195 14.8398C32.5195 13.5638 32.8408 12.5475 33.4834 11.791C34.1305 11.0345 34.9759 10.6562 36.0195 10.6562C37.0632 10.6562 37.9063 11.0345 38.5488 11.791ZM39.9229 12.126C40.3102 12.9098 40.5039 13.8145 40.5039 14.8398C40.5039 15.8652 40.3102 16.7721 39.9229 17.5605C39.5401 18.3444 39.0091 18.9482 38.3301 19.3721C37.6511 19.7959 36.8809 20.0078 36.0195 20.0078C35.1582 20.0078 34.388 19.7959 33.709 19.3721C33.03 18.9482 32.4968 18.3444 32.1094 17.5605C31.7266 16.7721 31.5352 15.8652 31.5352 14.8398C31.5352 13.8145 31.7266 12.9098 32.1094 12.126C32.4968 11.3376 33.03 10.7314 33.709 10.3076C34.388 9.88379 35.1582 9.67188 36.0195 9.67188C36.8809 9.67188 37.6511 9.88379 38.3301 10.3076C39.0091 10.7314 39.5401 11.3376 39.9229 12.126ZM34.5293 12.8301C34.1738 13.2949 33.9961 13.9648 33.9961 14.8398C33.9961 15.7148 34.1738 16.3848 34.5293 16.8496C34.8893 17.3145 35.3861 17.5469 36.0195 17.5469C36.653 17.5469 37.1475 17.3145 37.5029 16.8496C37.863 16.3848 38.043 15.7148 38.043 14.8398C38.043 13.9648 37.863 13.2949 37.5029 12.8301C37.1475 12.3652 36.653 12.1328 36.0195 12.1328C35.3861 12.1328 34.8893 12.3652 34.5293 12.8301ZM33.832 12.1396C33.2852 12.7959 33.0117 13.696 33.0117 14.8398C33.0117 15.9837 33.2852 16.8861 33.832 17.5469C34.3835 18.2031 35.1126 18.5312 36.0195 18.5312C36.9264 18.5312 37.6533 18.2031 38.2002 17.5469C38.7516 16.8861 39.0274 15.9837 39.0274 14.8398C39.0274 13.696 38.7516 12.7959 38.2002 12.1396C37.6533 11.4788 36.9264 11.1484 36.0195 11.1484C35.1126 11.1484 34.3835 11.4788 33.832 12.1396ZM33.1348 11.4424C32.3965 12.2946 32.0274 13.4271 32.0274 14.8398C32.0274 16.2526 32.3965 17.3851 33.1348 18.2373C33.8776 19.0895 34.8392 19.5156 36.0195 19.5156C37.1999 19.5156 38.1592 19.0895 38.8975 18.2373C39.6403 17.3851 40.0117 16.2526 40.0117 14.8398C40.0117 13.4271 39.6403 12.2946 38.8975 11.4424C38.1592 10.5902 37.1999 10.1641 36.0195 10.1641C34.8392 10.1641 33.8776 10.5902 33.1348 11.4424ZM31.419 12.5293C31.1683 13.2357 31.043 14.0059 31.043 14.8398C31.043 15.6738 31.1683 16.4463 31.419 17.1572C31.6696 17.8636 32.0137 18.4606 32.4512 18.9482C32.8932 19.4359 33.4196 19.8164 34.0303 20.0898C34.6455 20.3633 35.3086 20.5 36.0195 20.5C36.7305 20.5 37.3913 20.3633 38.002 20.0898C38.6172 19.8164 39.1436 19.4359 39.5811 18.9482C40.0231 18.4606 40.3695 17.8636 40.6201 17.1572C40.8708 16.4463 40.9961 15.6738 40.9961 14.8398C40.9961 14.0059 40.8708 13.2357 40.6201 12.5293C40.3695 11.8184 40.0231 11.2191 39.5811 10.7314C39.1436 10.2438 38.6172 9.86328 38.002 9.58984C37.3913 9.31641 36.7305 9.17969 36.0195 9.17969C35.3086 9.17969 34.6455 9.31641 34.0303 9.58984C33.4196 9.86328 32.8932 10.2438 32.4512 10.7314C32.0137 11.2191 31.6696 11.8184 31.419 12.5293ZM42.3086 11.6406V11.1484H47.2715V20.5H46.7793V11.6406H46.2871V20.5H45.7949V11.6406H45.3027V20.5H44.8106V11.6406H44.3184V20.5H43.8262V11.6406H42.3086ZM42.3086 10.6562V10.1641H47.2715V10.6562H42.3086ZM42.3086 9.67188V9.17969H47.2715V9.67188H42.3086Z" fill="white"/>
<defs>
<filter id="filter0_d_7855_385" x="0" y="13.5" width="78" height="78" filterUnits="userSpaceOnUse" color-interpolation-filters="sRGB">
<feFlood flood-opacity="0" result="BackgroundImageFix"/>
<feColorMatrix in="SourceAlpha" type="matrix" values="0 0 0 0 0 0 0 0 0 0 0 0 0 0 0 0 0 0 127 0" result="hardAlpha"/>
<feOffset dy="2"/>
<feGaussianBlur stdDeviation="2"/>
<feComposite in2="hardAlpha" operator="out"/>
<feColorMatrix type="matrix" values="0 0 0 0 0 0 0 0 0 0 0 0 0 0 0 0 0 0 0.25 0"/>
<feBlend mode="normal" in2="BackgroundImageFix" result="effect1_dropShadow_7855_385"/>
<feBlend mode="normal" in="SourceGraphic" in2="effect1_dropShadow_7855_385" result="shape"/>
</filter>
<clipPath id="clip0_7855_385">
<rect width="35" height="35" fill="white" transform="translate(21.5049 33)"/>
</clipPath>
</defs>
</svg>
