<svg width="78" height="92" viewBox="0 0 78 92" fill="none" xmlns="http://www.w3.org/2000/svg">
<g filter="url(#filter0_d_7855_421)">
<rect x="4" y="15.5" width="70" height="70" rx="10" fill="white"/>
</g>
<g clip-path="url(#clip0_7855_421)">
<path d="M43.9994 42.1324V41.0226C43.251 40.7568 42.7506 40.049 42.7496 39.2548C42.7631 38.2251 43.5946 37.3935 44.6243 37.3801H47.7757L47.8544 37.2295C48.3014 36.4897 48.4594 35.611 48.298 34.7618C48.1261 34.1236 47.686 33.5913 47.0914 33.3027C45.7054 32.5753 44.3356 33.1777 43.427 34.908L41.4998 38.5818V41.7975C41.707 41.7701 41.9157 41.7557 42.1247 41.7543C42.7683 41.7576 43.405 41.886 43.9994 42.1324ZM44.9556 34.6931C45.0325 34.5462 45.1648 34.4359 45.3231 34.3865C45.4815 34.3372 45.653 34.3528 45.7998 34.43L46.7896 34.9493C47.0954 35.1098 47.2132 35.4877 47.0527 35.7935C46.8922 36.0993 46.5142 36.2171 46.2084 36.0566L45.2186 35.5373C45.0717 35.4603 44.9614 35.3281 44.9121 35.1697C44.8627 35.0113 44.8784 34.8399 44.9556 34.6931Z" fill="#009733"/>
<path d="M44.2688 43.6804C43.6419 43.2373 42.8924 43.0009 42.1248 43.0042C40.0549 43.0062 38.3775 44.6837 38.3754 46.7535C38.3746 47.1795 38.4478 47.6024 38.5916 48.0034H45.6579C45.8018 47.6024 45.8749 47.1796 45.8741 46.7535C45.8753 45.5279 45.2754 44.3795 44.2688 43.6804Z" fill="#009733"/>
<path d="M51.4982 48.0032V46.7534H47.1239C47.1227 47.1753 47.0677 47.5953 46.9602 48.0032H51.4982Z" fill="#009733"/>
<path d="M43.9994 39.2548C43.9994 39.5999 44.2792 39.8797 44.6243 39.8797H46.499C46.8441 39.8797 47.1239 40.1594 47.1239 40.5046C47.1239 40.8497 46.8442 41.1295 46.499 41.1295H45.2492V42.8642C45.3079 42.9111 45.3705 42.9549 45.4273 43.0042H51.4982V41.1295H50.2484C49.9033 41.1295 49.6235 40.8498 49.6235 40.5046C49.6235 40.1595 49.9032 39.8797 50.2484 39.8797H52.1231C52.4628 39.8668 52.7352 39.5945 52.748 39.2548C52.748 38.9097 52.4683 38.6299 52.1231 38.6299H44.6243C44.2846 38.6427 44.0123 38.9151 43.9994 39.2548Z" fill="#009733"/>
<path d="M39.0003 33.6308C39.0003 33.2857 38.7205 33.0059 38.3754 33.0059H34.626C34.2809 33.0059 34.0011 33.2856 34.0011 33.6308V34.2557H39.0003V33.6308Z" fill="#009733"/>
<path d="M51.4981 44.2539H46.4459C46.6739 44.6452 46.8478 45.0656 46.9626 45.5037H51.4981V44.2539Z" fill="#009733"/>
<path d="M34.2511 48.0034C34.5008 47.4101 34.6283 46.7725 34.626 46.1287C34.626 44.0609 33.4125 42.3794 31.9202 42.3794C31.515 42.3833 31.12 42.5074 30.7854 42.7362C30.6401 41.8113 30.0735 41.0063 29.2519 40.5572C28.9412 40.4222 28.5797 40.5612 28.4395 40.8696C28.2985 41.1811 28.432 41.5482 28.7401 41.6964C29.0742 41.9 29.326 42.2146 29.4519 42.5849C29.1816 42.4519 28.8846 42.3815 28.5833 42.3794C27.091 42.3794 25.8775 44.0609 25.8775 46.1287C25.8762 46.7727 26.0048 47.4103 26.2555 48.0034H34.2511Z" fill="#009733"/>
<path d="M53.3729 66.7503V56.752H24.6277V66.7503C24.6277 67.4405 25.1873 68.0001 25.8775 68.0001H52.1231C52.8133 68.0001 53.3729 67.4405 53.3729 66.7503Z" fill="#009733"/>
<path d="M39.239 35.5054H33.7624L33.1375 36.7552H39.8639L39.239 35.5054Z" fill="#009733"/>
<path d="M22.1281 55.5021H55.8724C56.0889 55.5019 56.2899 55.3898 56.4037 55.2057C56.5175 55.0215 56.5278 54.7915 56.4311 54.5979L53.9315 49.5987C53.8257 49.3871 53.6095 49.2533 53.3729 49.2532H24.6277C24.3909 49.253 24.1743 49.3869 24.0684 49.5987L21.5688 54.5979C21.472 54.7917 21.4824 55.0217 21.5964 55.2059C21.7103 55.3901 21.9115 55.5022 22.1281 55.5021Z" fill="#009733"/>
<path d="M35.8758 46.1285C35.8741 46.7651 35.7733 47.3976 35.5771 48.0032H37.2893C37.1817 47.5953 37.1267 47.1753 37.1256 46.7534C37.1285 44.718 38.3637 42.887 40.2501 42.1223V38.0049H32.7513V41.2425C34.5341 41.7268 35.8758 43.7327 35.8758 46.1285Z" fill="#009733"/>
</g>
<circle cx="39" cy="15.5" r="15" fill="#3E3E3E"/>
<path d="M30.168 18.0527C29.694 17.1139 29.457 16.043 29.457 14.8398C29.457 13.6367 29.694 12.5658 30.168 11.627C30.6419 10.6882 31.2936 9.96354 32.123 9.45312C32.9525 8.94271 33.8867 8.6875 34.9258 8.6875C35.9648 8.6875 36.8991 8.94271 37.7285 9.45312C38.5579 9.96354 39.2096 10.6882 39.6836 11.627C40.1576 12.5658 40.3945 13.6367 40.3945 14.8398C40.3945 16.043 40.1576 17.1139 39.6836 18.0527C39.2096 18.9915 38.5579 19.7161 37.7285 20.2266C36.8991 20.737 35.9648 20.9922 34.9258 20.9922C33.8867 20.9922 32.9525 20.737 32.123 20.2266C31.2936 19.7161 30.6419 18.9915 30.168 18.0527ZM36.7578 12.4883C37.2135 13.0488 37.4414 13.8327 37.4414 14.8398C37.4414 15.847 37.2135 16.6331 36.7578 17.1982C36.3066 17.7588 35.696 18.0391 34.9258 18.0391C34.1556 18.0391 33.5426 17.7588 33.0869 17.1982C32.6357 16.6331 32.4102 15.847 32.4102 14.8398C32.4102 13.8327 32.6357 13.0488 33.0869 12.4883C33.5426 11.9232 34.1556 11.6406 34.9258 11.6406C35.696 11.6406 36.3066 11.9232 36.7578 12.4883ZM37.4551 11.791C38.1022 12.5475 38.4258 13.5638 38.4258 14.8398C38.4258 16.1159 38.1022 17.1322 37.4551 17.8887C36.8125 18.6452 35.9694 19.0234 34.9258 19.0234C33.8822 19.0234 33.0368 18.6452 32.3896 17.8887C31.7471 17.1322 31.4258 16.1159 31.4258 14.8398C31.4258 13.5638 31.7471 12.5475 32.3896 11.791C33.0368 11.0345 33.8822 10.6562 34.9258 10.6562C35.9694 10.6562 36.8125 11.0345 37.4551 11.791ZM38.8291 12.126C39.2165 12.9098 39.4102 13.8145 39.4102 14.8398C39.4102 15.8652 39.2165 16.7721 38.8291 17.5605C38.4463 18.3444 37.9154 18.9482 37.2363 19.3721C36.5573 19.7959 35.7871 20.0078 34.9258 20.0078C34.0645 20.0078 33.2943 19.7959 32.6152 19.3721C31.9362 18.9482 31.403 18.3444 31.0156 17.5605C30.6328 16.7721 30.4414 15.8652 30.4414 14.8398C30.4414 13.8145 30.6328 12.9098 31.0156 12.126C31.403 11.3376 31.9362 10.7314 32.6152 10.3076C33.2943 9.88379 34.0645 9.67188 34.9258 9.67188C35.7871 9.67188 36.5573 9.88379 37.2363 10.3076C37.9154 10.7314 38.4463 11.3376 38.8291 12.126ZM33.4355 12.8301C33.0801 13.2949 32.9023 13.9648 32.9023 14.8398C32.9023 15.7148 33.0801 16.3848 33.4355 16.8496C33.7956 17.3145 34.2923 17.5469 34.9258 17.5469C35.5592 17.5469 36.0537 17.3145 36.4092 16.8496C36.7692 16.3848 36.9492 15.7148 36.9492 14.8398C36.9492 13.9648 36.7692 13.2949 36.4092 12.8301C36.0537 12.3652 35.5592 12.1328 34.9258 12.1328C34.2923 12.1328 33.7956 12.3652 33.4355 12.8301ZM32.7383 12.1396C32.1914 12.7959 31.918 13.696 31.918 14.8398C31.918 15.9837 32.1914 16.8861 32.7383 17.5469C33.2897 18.2031 34.0189 18.5312 34.9258 18.5312C35.8327 18.5312 36.5596 18.2031 37.1064 17.5469C37.6579 16.8861 37.9336 15.9837 37.9336 14.8398C37.9336 13.696 37.6579 12.7959 37.1064 12.1396C36.5596 11.4788 35.8327 11.1484 34.9258 11.1484C34.0189 11.1484 33.2897 11.4788 32.7383 12.1396ZM32.041 11.4424C31.3027 12.2946 30.9336 13.4271 30.9336 14.8398C30.9336 16.2526 31.3027 17.3851 32.041 18.2373C32.7839 19.0895 33.7454 19.5156 34.9258 19.5156C36.1061 19.5156 37.0654 19.0895 37.8037 18.2373C38.5465 17.3851 38.918 16.2526 38.918 14.8398C38.918 13.4271 38.5465 12.2946 37.8037 11.4424C37.0654 10.5902 36.1061 10.1641 34.9258 10.1641C33.7454 10.1641 32.7839 10.5902 32.041 11.4424ZM30.3252 12.5293C30.0745 13.2357 29.9492 14.0059 29.9492 14.8398C29.9492 15.6738 30.0745 16.4463 30.3252 17.1572C30.5758 17.8636 30.9199 18.4606 31.3574 18.9482C31.7995 19.4359 32.3258 19.8164 32.9365 20.0898C33.5518 20.3633 34.2148 20.5 34.9258 20.5C35.6367 20.5 36.2975 20.3633 36.9082 20.0898C37.5234 19.8164 38.0498 19.4359 38.4873 18.9482C38.9294 18.4606 39.2757 17.8636 39.5264 17.1572C39.777 16.4463 39.9023 15.6738 39.9023 14.8398C39.9023 14.0059 39.777 13.2357 39.5264 12.5293C39.2757 11.8184 38.9294 11.2191 38.4873 10.7314C38.0498 10.2438 37.5234 9.86328 36.9082 9.58984C36.2975 9.31641 35.6367 9.17969 34.9258 9.17969C34.2148 9.17969 33.5518 9.31641 32.9365 9.58984C32.3258 9.86328 31.7995 10.2438 31.3574 10.7314C30.9199 11.2191 30.5758 11.8184 30.3252 12.5293ZM41.3516 18.5312V18.0391H48.0234V18.5312H41.3516ZM41.3516 19.5156V19.0234H48.0234V19.5156H41.3516ZM41.3516 20.5V20.0078H48.0234V20.5H41.3516ZM42.1104 17.7656H41.5361C41.8551 17.3327 42.1696 16.9089 42.4795 16.4941C42.7894 16.0794 43.0469 15.7354 43.252 15.4619C43.4616 15.1839 43.6644 14.9128 43.8604 14.6484C44.0563 14.3841 44.2135 14.1722 44.332 14.0127C44.4551 13.8532 44.5713 13.6982 44.6807 13.5479C44.79 13.3975 44.8721 13.2812 44.9268 13.1992C44.9814 13.1126 45.0293 13.0306 45.0703 12.9531C45.1159 12.8757 45.1455 12.8141 45.1592 12.7686C45.1729 12.7184 45.1797 12.6706 45.1797 12.625C45.1797 12.4154 45.0931 12.2809 44.9199 12.2217C44.7467 12.1624 44.4414 12.1328 44.0039 12.1328C43.293 12.1328 42.582 12.2262 41.8711 12.4131L41.7686 11.9414C41.8825 11.8913 42.1696 11.8275 42.6299 11.75C43.0947 11.668 43.5413 11.627 43.9697 11.627C44.2295 11.627 44.4551 11.6429 44.6465 11.6748C44.8379 11.7021 45.0111 11.7523 45.166 11.8252C45.3255 11.8936 45.4463 11.9961 45.5283 12.1328C45.6104 12.265 45.6514 12.429 45.6514 12.625C45.6514 12.821 45.5511 13.0716 45.3506 13.377C45.1501 13.6823 44.6351 14.3887 43.8057 15.4961C43.1312 16.3939 42.5661 17.1504 42.1104 17.7656ZM43.2246 17.7656H42.6504C44.3503 15.4779 45.2936 14.1995 45.4805 13.9307C45.8633 13.3838 46.0775 12.9941 46.123 12.7617C46.1367 12.6979 46.1436 12.6296 46.1436 12.5566C46.1436 11.6133 45.4281 11.1416 43.9971 11.1416C43.5596 11.1416 43.1152 11.1803 42.6641 11.2578C42.2129 11.3353 41.8825 11.4128 41.6729 11.4902L41.5771 11.0186C42.3564 10.777 43.1654 10.6562 44.0039 10.6562C44.2956 10.6562 44.5645 10.6768 44.8105 10.7178C45.0612 10.7542 45.3005 10.818 45.5283 10.9092C45.7562 11.0003 45.9499 11.1188 46.1094 11.2646C46.2689 11.4059 46.3942 11.5859 46.4854 11.8047C46.5811 12.0234 46.6289 12.2741 46.6289 12.5566C46.6289 12.8483 46.4854 13.2152 46.1982 13.6572C45.9111 14.0993 45.0521 15.2887 43.6211 17.2256C43.4479 17.458 43.3158 17.638 43.2246 17.7656ZM44.3662 17.7656H43.792C45.346 15.6419 46.2894 14.3203 46.6221 13.8008C46.9548 13.2767 47.1211 12.8392 47.1211 12.4883C47.1211 12.0599 47.0368 11.6908 46.8682 11.3809C46.7041 11.071 46.4717 10.8294 46.1709 10.6562C45.8747 10.4831 45.5465 10.3577 45.1865 10.2803C44.8311 10.2028 44.4346 10.1641 43.9971 10.1641C43.154 10.1641 42.3132 10.2917 41.4746 10.5469L41.3721 10.0479C42.2699 9.78353 43.138 9.65137 43.9766 9.65137C44.3867 9.65137 44.7673 9.68099 45.1182 9.74023C45.4691 9.79948 45.7995 9.89974 46.1094 10.041C46.4238 10.1777 46.6882 10.3532 46.9023 10.5674C47.1211 10.7816 47.2943 11.0527 47.4219 11.3809C47.5495 11.7044 47.6133 12.0736 47.6133 12.4883C47.6133 12.7845 47.5426 13.0876 47.4014 13.3975C47.2646 13.7028 46.9775 14.1699 46.54 14.7988C46.1071 15.4277 45.3825 16.4167 44.3662 17.7656ZM45.5488 17.7656H44.9746C45.9362 16.4941 46.6312 15.5394 47.0596 14.9014C47.4925 14.2588 47.7751 13.7734 47.9072 13.4453C48.0394 13.1126 48.1055 12.7708 48.1055 12.4199C48.1055 11.9733 48.0371 11.57 47.9004 11.21C47.7682 10.8454 47.5791 10.54 47.333 10.2939C47.0915 10.0433 46.7998 9.83366 46.458 9.66504C46.1162 9.49642 45.7402 9.37337 45.3301 9.2959C44.9245 9.21842 44.4847 9.17969 44.0107 9.17969C43.1357 9.17969 42.2243 9.31641 41.2764 9.58984L41.1738 9.10449C42.1354 8.8265 43.0765 8.6875 43.9971 8.6875C44.6807 8.6875 45.2982 8.7627 45.8496 8.91309C46.4056 9.05892 46.8887 9.27995 47.2988 9.57617C47.7135 9.8724 48.0326 10.262 48.2559 10.7451C48.4837 11.2282 48.5977 11.7865 48.5977 12.4199C48.5977 12.821 48.5316 13.1992 48.3994 13.5547C48.2718 13.9102 47.9893 14.4137 47.5518 15.0654C47.1188 15.7171 46.4512 16.6172 45.5488 17.7656Z" fill="white"/>
<defs>
<filter id="filter0_d_7855_421" x="0" y="13.5" width="78" height="78" filterUnits="userSpaceOnUse" color-interpolation-filters="sRGB">
<feFlood flood-opacity="0" result="BackgroundImageFix"/>
<feColorMatrix in="SourceAlpha" type="matrix" values="0 0 0 0 0 0 0 0 0 0 0 0 0 0 0 0 0 0 127 0" result="hardAlpha"/>
<feOffset dy="2"/>
<feGaussianBlur stdDeviation="2"/>
<feComposite in2="hardAlpha" operator="out"/>
<feColorMatrix type="matrix" values="0 0 0 0 0 0 0 0 0 0 0 0 0 0 0 0 0 0 0.25 0"/>
<feBlend mode="normal" in2="BackgroundImageFix" result="effect1_dropShadow_7855_421"/>
<feBlend mode="normal" in="SourceGraphic" in2="effect1_dropShadow_7855_421" result="shape"/>
</filter>
<clipPath id="clip0_7855_421">
<rect width="35" height="35" fill="white" transform="translate(21.5 33)"/>
</clipPath>
</defs>
</svg>
