<svg width="78" height="92" viewBox="0 0 78 92" fill="none" xmlns="http://www.w3.org/2000/svg">
<g filter="url(#filter0_d_7855_466)">
<rect x="4" y="15.5" width="70" height="70" rx="10" fill="white"/>
</g>
<path fill-rule="evenodd" clip-rule="evenodd" d="M46.7804 60.6279C46.9772 60.4448 47.2853 60.4558 47.4684 60.6527C47.6515 60.8495 47.6405 61.1576 47.4436 61.3407C42.6906 65.7574 35.319 65.7575 30.5659 61.3407C30.3691 61.1576 30.358 60.8495 30.5412 60.6527C30.7244 60.4558 31.0324 60.4448 31.2292 60.6279C32.556 61.8609 34.1727 62.7721 35.9337 63.2616C35.9753 63.2732 36.0161 63.2422 36.0161 63.199V57.4668C36.0161 56.6262 35.6641 55.9027 35.0027 55.3839L31.3026 52.4816C30.8407 52.1193 30.7591 51.445 31.1215 50.9831C31.4838 50.5211 32.1582 50.4397 32.62 50.8019L36.8349 54.1079C37.488 54.6201 38.1852 54.8542 39.014 54.8542C39.8305 54.8542 40.5323 54.6119 41.1747 54.1079L45.3896 50.802C45.8515 50.4397 46.5258 50.5212 46.8881 50.9831C47.2504 51.4451 47.169 52.1194 46.707 52.4817L43.0069 55.384C42.3455 55.9027 41.9934 56.6263 41.9934 57.4669V63.199C41.9934 63.2423 42.0343 63.2733 42.0759 63.2617C43.8398 62.7713 45.45 61.8625 46.7804 60.6279ZM36.7458 50.4605C36.7458 51.7081 37.7573 52.7195 39.0049 52.7195C40.2525 52.7195 41.2638 51.7081 41.2638 50.4605C41.2638 49.2129 40.2524 48.2015 39.0049 48.2015C37.7573 48.2015 36.7458 49.2129 36.7458 50.4605ZM50.4534 53.1503L51.0922 51.1716C51.2073 50.8102 51.7183 50.8095 51.834 51.1691L52.4736 53.1503C52.4824 53.1776 52.5068 53.1954 52.5356 53.1953L54.5892 53.1914C55.0339 53.1909 55.1314 53.69 54.847 53.8958L53.1602 55.1164C53.1369 55.1332 53.1276 55.1619 53.1365 55.1892L53.7838 57.1684L53.7828 57.1688C53.8981 57.5247 53.4883 57.8244 53.1845 57.603L51.5018 56.3754C51.4785 56.3584 51.4483 56.3584 51.4251 56.3754L49.7669 57.585C49.7663 57.5855 49.7657 57.5858 49.7651 57.5863C49.437 57.8433 49.0282 57.5207 49.1431 57.1683L49.7904 55.1892C49.7994 55.1619 49.79 55.1331 49.7667 55.1163L48.0799 53.8957L48.0804 53.8949C47.7773 53.6748 47.9327 53.1909 48.3086 53.1913L50.3913 53.1953C50.4202 53.1955 50.4446 53.1777 50.4534 53.1503ZM47.1177 43.7967L47.8515 41.5231C47.9667 41.1616 48.4777 41.161 48.5934 41.5205L49.3281 43.7967C49.3369 43.824 49.3614 43.8418 49.3901 43.8417L51.7537 43.8372C52.1983 43.8368 52.2958 44.3358 52.0115 44.5416L50.0736 45.9438C50.0503 45.9607 50.041 45.9894 50.0499 46.0167L50.7936 48.2904L50.7925 48.2907C50.9079 48.6467 50.4981 48.9463 50.1943 48.7249L48.2612 47.3148C48.2379 47.2978 48.2078 47.2978 48.1845 47.3148L46.276 48.707C46.2754 48.7075 46.2749 48.7079 46.2742 48.7083C45.9461 48.9654 45.5373 48.6428 45.6522 48.2904L46.3958 46.0167C46.4048 45.9894 46.3954 45.9606 46.3722 45.9438L44.4343 44.5416L44.4348 44.5408C44.1317 44.3207 44.2871 43.8368 44.663 43.8372L47.0556 43.8418C47.0844 43.8418 47.1088 43.824 47.1177 43.7967ZM39.3761 36.6282L40.1795 39.1168C40.1883 39.1442 40.2127 39.162 40.2415 39.1619L42.86 39.1568C43.2359 39.1565 43.3913 39.6404 43.0882 39.8605L43.0887 39.8613L40.9679 41.3959C40.9446 41.4128 40.9352 41.4415 40.9442 41.4688L41.758 43.9572C41.8729 44.3095 41.464 44.6322 41.136 44.3751C41.1354 44.3746 41.1349 44.3742 41.1342 44.3738L39.0432 42.8484C39.02 42.8315 38.9898 42.8315 38.9666 42.8484L36.851 44.3917C36.5472 44.6131 36.1374 44.3135 36.2527 43.9575L36.2517 43.9572L37.0655 41.4688C37.0745 41.4415 37.0651 41.4127 37.0419 41.3959L34.921 39.8613C34.6367 39.6555 34.7342 39.1564 35.1788 39.1568L37.7682 39.1618C37.797 39.1619 37.8214 39.1441 37.8303 39.1167L38.6344 36.6256C38.7507 36.2642 39.2632 36.269 39.3761 36.6282ZM26.9175 51.1716L27.5563 53.1504C27.5651 53.1778 27.5895 53.1956 27.6183 53.1955L29.7011 53.1915C30.0769 53.1911 30.2324 53.6751 29.9292 53.8951L29.9298 53.8959L28.2429 55.1165C28.2197 55.1334 28.2103 55.1621 28.2193 55.1894L28.8666 57.1685C28.9814 57.5209 28.5726 57.8436 28.2445 57.5865C28.2439 57.586 28.2434 57.5856 28.2427 57.5851L26.5846 56.3755C26.5613 56.3586 26.5311 56.3586 26.5079 56.3755L24.8251 57.603C24.5214 57.8244 24.1115 57.5248 24.2269 57.1688L24.2258 57.1685L24.8731 55.1893C24.8821 55.162 24.8727 55.1332 24.8495 55.1164L23.1626 53.8958C22.8783 53.69 22.9758 53.191 23.4204 53.1914L25.4741 53.1954C25.5028 53.1955 25.5273 53.1777 25.5361 53.1503L26.1756 51.1691C26.292 50.8076 26.8046 50.8124 26.9175 51.1716ZM30.1581 41.5231L30.892 43.7967C30.9008 43.824 30.9253 43.8418 30.954 43.8417L33.3467 43.8371C33.7225 43.8368 33.878 44.3207 33.5748 44.5408L33.5754 44.5415L31.6375 45.9438C31.6142 45.9606 31.6049 45.9893 31.6138 46.0166L32.3575 48.2903C32.4723 48.6427 32.0635 48.9653 31.7354 48.7083C31.7348 48.7078 31.7343 48.7074 31.7336 48.7069L29.8251 47.3147C29.8019 47.2978 29.7717 47.2978 29.7485 47.3147L27.8154 48.7249C27.5116 48.9463 27.1018 48.6467 27.2171 48.2907L27.2161 48.2904L27.9597 46.0167C27.9687 45.9894 27.9593 45.9606 27.936 45.9438L25.9982 44.5416C25.7139 44.3358 25.8114 43.8368 26.256 43.8372L28.6195 43.8417C28.6483 43.8418 28.6727 43.824 28.6815 43.7967L29.4163 41.5205C29.5326 41.1591 30.0451 41.1638 30.1581 41.5231Z" fill="#009733"/>
<circle cx="39" cy="15.5" r="15" fill="#3E3E3E"/>
<path d="M30.4629 18.0527C29.9889 17.1139 29.752 16.043 29.752 14.8398C29.752 13.6367 29.9889 12.5658 30.4629 11.627C30.9368 10.6882 31.5885 9.96354 32.418 9.45312C33.2474 8.94271 34.1816 8.6875 35.2207 8.6875C36.2598 8.6875 37.194 8.94271 38.0234 9.45312C38.8529 9.96354 39.5046 10.6882 39.9785 11.627C40.4525 12.5658 40.6895 13.6367 40.6895 14.8398C40.6895 16.043 40.4525 17.1139 39.9785 18.0527C39.5046 18.9915 38.8529 19.7161 38.0234 20.2266C37.194 20.737 36.2598 20.9922 35.2207 20.9922C34.1816 20.9922 33.2474 20.737 32.418 20.2266C31.5885 19.7161 30.9368 18.9915 30.4629 18.0527ZM37.0527 12.4883C37.5085 13.0488 37.7363 13.8327 37.7363 14.8398C37.7363 15.847 37.5085 16.6331 37.0527 17.1982C36.6016 17.7588 35.9909 18.0391 35.2207 18.0391C34.4505 18.0391 33.8376 17.7588 33.3818 17.1982C32.9307 16.6331 32.7051 15.847 32.7051 14.8398C32.7051 13.8327 32.9307 13.0488 33.3818 12.4883C33.8376 11.9232 34.4505 11.6406 35.2207 11.6406C35.9909 11.6406 36.6016 11.9232 37.0527 12.4883ZM37.75 11.791C38.3971 12.5475 38.7207 13.5638 38.7207 14.8398C38.7207 16.1159 38.3971 17.1322 37.75 17.8887C37.1074 18.6452 36.2643 19.0234 35.2207 19.0234C34.1771 19.0234 33.3317 18.6452 32.6846 17.8887C32.042 17.1322 31.7207 16.1159 31.7207 14.8398C31.7207 13.5638 32.042 12.5475 32.6846 11.791C33.3317 11.0345 34.1771 10.6562 35.2207 10.6562C36.2643 10.6562 37.1074 11.0345 37.75 11.791ZM39.124 12.126C39.5114 12.9098 39.7051 13.8145 39.7051 14.8398C39.7051 15.8652 39.5114 16.7721 39.124 17.5605C38.7412 18.3444 38.2103 18.9482 37.5312 19.3721C36.8522 19.7959 36.082 20.0078 35.2207 20.0078C34.3594 20.0078 33.5892 19.7959 32.9102 19.3721C32.2311 18.9482 31.6979 18.3444 31.3105 17.5605C30.9277 16.7721 30.7363 15.8652 30.7363 14.8398C30.7363 13.8145 30.9277 12.9098 31.3105 12.126C31.6979 11.3376 32.2311 10.7314 32.9102 10.3076C33.5892 9.88379 34.3594 9.67188 35.2207 9.67188C36.082 9.67188 36.8522 9.88379 37.5312 10.3076C38.2103 10.7314 38.7412 11.3376 39.124 12.126ZM33.7305 12.8301C33.375 13.2949 33.1973 13.9648 33.1973 14.8398C33.1973 15.7148 33.375 16.3848 33.7305 16.8496C34.0905 17.3145 34.5872 17.5469 35.2207 17.5469C35.8542 17.5469 36.3486 17.3145 36.7041 16.8496C37.0641 16.3848 37.2441 15.7148 37.2441 14.8398C37.2441 13.9648 37.0641 13.2949 36.7041 12.8301C36.3486 12.3652 35.8542 12.1328 35.2207 12.1328C34.5872 12.1328 34.0905 12.3652 33.7305 12.8301ZM33.0332 12.1396C32.4863 12.7959 32.2129 13.696 32.2129 14.8398C32.2129 15.9837 32.4863 16.8861 33.0332 17.5469C33.5846 18.2031 34.3138 18.5312 35.2207 18.5312C36.1276 18.5312 36.8545 18.2031 37.4014 17.5469C37.9528 16.8861 38.2285 15.9837 38.2285 14.8398C38.2285 13.696 37.9528 12.7959 37.4014 12.1396C36.8545 11.4788 36.1276 11.1484 35.2207 11.1484C34.3138 11.1484 33.5846 11.4788 33.0332 12.1396ZM32.3359 11.4424C31.5977 12.2946 31.2285 13.4271 31.2285 14.8398C31.2285 16.2526 31.5977 17.3851 32.3359 18.2373C33.0788 19.0895 34.0404 19.5156 35.2207 19.5156C36.401 19.5156 37.3604 19.0895 38.0986 18.2373C38.8415 17.3851 39.2129 16.2526 39.2129 14.8398C39.2129 13.4271 38.8415 12.2946 38.0986 11.4424C37.3604 10.5902 36.401 10.1641 35.2207 10.1641C34.0404 10.1641 33.0788 10.5902 32.3359 11.4424ZM30.6201 12.5293C30.3695 13.2357 30.2441 14.0059 30.2441 14.8398C30.2441 15.6738 30.3695 16.4463 30.6201 17.1572C30.8708 17.8636 31.2148 18.4606 31.6523 18.9482C32.0944 19.4359 32.6208 19.8164 33.2314 20.0898C33.8467 20.3633 34.5098 20.5 35.2207 20.5C35.9316 20.5 36.5924 20.3633 37.2031 20.0898C37.8184 19.8164 38.3447 19.4359 38.7822 18.9482C39.2243 18.4606 39.5706 17.8636 39.8213 17.1572C40.0719 16.4463 40.1973 15.6738 40.1973 14.8398C40.1973 14.0059 40.0719 13.2357 39.8213 12.5293C39.5706 11.8184 39.2243 11.2191 38.7822 10.7314C38.3447 10.2438 37.8184 9.86328 37.2031 9.58984C36.5924 9.31641 35.9316 9.17969 35.2207 9.17969C34.5098 9.17969 33.8467 9.31641 33.2314 9.58984C32.6208 9.86328 32.0944 10.2438 31.6523 10.7314C31.2148 11.2191 30.8708 11.8184 30.6201 12.5293ZM44.791 18.0322C43.7337 18.0322 42.82 17.9229 42.0498 17.7041L42.1455 17.2461C42.7744 17.4421 43.6562 17.54 44.791 17.54C45.4655 17.54 45.8027 17.3623 45.8027 17.0068C45.8027 16.7243 45.4769 16.583 44.8252 16.583H43.335V16.0908H44.832C45.2513 16.0908 45.5999 16.1637 45.8779 16.3096C46.1559 16.4554 46.2949 16.6878 46.2949 17.0068C46.2949 17.3486 46.1536 17.6061 45.8711 17.7793C45.5931 17.9479 45.2331 18.0322 44.791 18.0322ZM46.2129 13.1787L45.7412 13.0762C45.7822 13.0078 45.8027 12.8939 45.8027 12.7344C45.8027 12.3333 45.4655 12.1328 44.791 12.1328C43.6562 12.1328 42.7744 12.2308 42.1455 12.4268L42.0498 11.9688C42.82 11.75 43.7337 11.6406 44.791 11.6406C45.2331 11.6406 45.5931 11.7318 45.8711 11.9141C46.1536 12.0964 46.2949 12.3698 46.2949 12.7344C46.2949 12.9303 46.2676 13.0785 46.2129 13.1787ZM41.9541 11.5039L41.8584 11.0254C42.7106 10.7793 43.6882 10.6562 44.791 10.6562C45.502 10.6562 46.0944 10.8431 46.5684 11.2168C47.0423 11.5859 47.2793 12.0918 47.2793 12.7344C47.2793 12.9941 47.2292 13.2516 47.1289 13.5068L46.6709 13.3223C46.7484 13.1491 46.7871 12.9531 46.7871 12.7344C46.7871 12.2331 46.598 11.8434 46.2197 11.5654C45.8415 11.2874 45.3652 11.1484 44.791 11.1484C43.7337 11.1484 42.7881 11.2669 41.9541 11.5039ZM47.9766 13.9717L47.5732 13.7256C47.7054 13.4111 47.7715 13.0807 47.7715 12.7344C47.7715 11.9551 47.4867 11.333 46.917 10.8682C46.3473 10.3988 45.6387 10.1641 44.791 10.1641C43.7474 10.1641 42.738 10.2962 41.7627 10.5605L41.6602 10.0684C42.6035 9.80404 43.6471 9.67188 44.791 9.67188C45.429 9.67188 46.0101 9.79492 46.5342 10.041C47.0583 10.2871 47.4775 10.6471 47.792 11.1211C48.1064 11.5905 48.2637 12.1283 48.2637 12.7344C48.2637 13.1764 48.168 13.5889 47.9766 13.9717ZM48.708 14.6826L48.3525 14.3135C48.6214 13.8258 48.7559 13.2995 48.7559 12.7344C48.7559 12.0371 48.5758 11.415 48.2158 10.8682C47.8604 10.3213 47.3818 9.9043 46.7803 9.61719C46.1833 9.32552 45.5202 9.17969 44.791 9.17969C43.6745 9.17969 42.599 9.31641 41.5645 9.58984L41.4619 9.09766C42.4554 8.82422 43.5651 8.6875 44.791 8.6875C45.4017 8.6875 45.9782 8.78548 46.5205 8.98145C47.0674 9.17741 47.5413 9.45085 47.9424 9.80176C48.3434 10.1481 48.6602 10.5765 48.8926 11.0869C49.1296 11.5928 49.248 12.1419 49.248 12.7344C49.248 13.4499 49.068 14.0993 48.708 14.6826ZM44.791 18.5244C45.3652 18.5244 45.8415 18.3923 46.2197 18.1279C46.598 17.859 46.7871 17.4854 46.7871 17.0068C46.7871 16.5648 46.6003 16.2207 46.2266 15.9746C45.8574 15.724 45.4108 15.5986 44.8867 15.5986H43.335V15.1064H44.8936C45.5544 15.1064 46.1172 15.2796 46.582 15.626C47.0469 15.9678 47.2793 16.4281 47.2793 17.0068C47.2793 17.6312 47.0423 18.1234 46.5684 18.4834C46.0944 18.8389 45.502 19.0166 44.791 19.0166C43.6882 19.0166 42.7106 18.8936 41.8584 18.6475L41.9541 18.1689C42.7881 18.4059 43.7337 18.5244 44.791 18.5244ZM44.791 19.5088C45.6387 19.5088 46.3473 19.2832 46.917 18.832C47.4867 18.3763 47.7715 17.7679 47.7715 17.0068C47.7715 16.2822 47.4912 15.7035 46.9307 15.2705C46.3747 14.833 45.7048 14.6143 44.9209 14.6143H43.335V14.1221H44.9346C45.5361 14.1221 46.0921 14.2497 46.6025 14.5049C47.113 14.7555 47.5163 15.1042 47.8125 15.5508C48.1133 15.9928 48.2637 16.4782 48.2637 17.0068C48.2637 17.5993 48.1064 18.1257 47.792 18.5859C47.4775 19.0462 47.0583 19.3971 46.5342 19.6387C46.0101 19.8802 45.429 20.001 44.791 20.001C43.6471 20.001 42.6035 19.8688 41.6602 19.6045L41.7627 19.1123C42.738 19.3766 43.7474 19.5088 44.791 19.5088ZM44.791 20.4932C45.5202 20.4932 46.1833 20.3519 46.7803 20.0693C47.3818 19.7822 47.8604 19.3721 48.2158 18.8389C48.5758 18.3011 48.7559 17.6904 48.7559 17.0068C48.7559 16.5055 48.6465 16.0407 48.4277 15.6123C48.209 15.1794 47.9196 14.8216 47.5596 14.5391C47.2041 14.252 46.7985 14.0286 46.3428 13.8691C45.887 13.7096 45.4176 13.6299 44.9346 13.6299H43.335V13.1377H44.9619C45.5225 13.1377 46.0602 13.2311 46.5752 13.418C47.0947 13.6048 47.5505 13.8623 47.9424 14.1904C48.3389 14.5186 48.6556 14.9287 48.8926 15.4209C49.1296 15.9085 49.248 16.4372 49.248 17.0068C49.248 17.7816 49.0475 18.4743 48.6465 19.085C48.2454 19.6956 47.7054 20.165 47.0264 20.4932C46.3519 20.8213 45.6068 20.9854 44.791 20.9854C43.5651 20.9854 42.4554 20.8486 41.4619 20.5752L41.5645 20.083C42.599 20.3564 43.6745 20.4932 44.791 20.4932Z" fill="white"/>
<defs>
<filter id="filter0_d_7855_466" x="0" y="13.5" width="78" height="78" filterUnits="userSpaceOnUse" color-interpolation-filters="sRGB">
<feFlood flood-opacity="0" result="BackgroundImageFix"/>
<feColorMatrix in="SourceAlpha" type="matrix" values="0 0 0 0 0 0 0 0 0 0 0 0 0 0 0 0 0 0 127 0" result="hardAlpha"/>
<feOffset dy="2"/>
<feGaussianBlur stdDeviation="2"/>
<feComposite in2="hardAlpha" operator="out"/>
<feColorMatrix type="matrix" values="0 0 0 0 0 0 0 0 0 0 0 0 0 0 0 0 0 0 0.25 0"/>
<feBlend mode="normal" in2="BackgroundImageFix" result="effect1_dropShadow_7855_466"/>
<feBlend mode="normal" in="SourceGraphic" in2="effect1_dropShadow_7855_466" result="shape"/>
</filter>
</defs>
</svg>
